<?xml version="1.0" standalone="no"?>
<!DOCTYPE svg PUBLIC "-//W3C//DTD SVG 1.1//EN" "http://www.w3.org/Graphics/SVG/1.1/DTD/svg11.dtd">
<svg xmlns="http://www.w3.org/2000/svg">
<metadata>Generated by Fontastic.me</metadata>
<defs>
<font id="untitled-font-1" horiz-adv-x="512">
<font-face font-family="untitled-font-1" units-per-em="512" ascent="480" descent="-32"/>
<missing-glyph horiz-adv-x="512" />

<glyph glyph-name="ranged" unicode="&#97;" d="M455 306l20 30c3 4 3 8 1 12-2 4-6 6-10 6l-26 0c-22 91-103 158-200 158-113 0-205-92-205-205 0-56 22-107 58-144l-32-121c-1-6-1-12 2-18 4-5 8-9 14-10l50-13c2-1 4-1 6-1 3 0 7 1 11 3 5 3 9 8 10 14l25 94c20-6 40-9 61-9 21 0 42 3 61 9l25-94c1-6 5-11 10-14 4-2 8-3 12-3 2 0 4 0 5 1l50 13c6 1 11 5 14 10 3 6 4 12 2 18l-10 37c-1 4-5 6-9 5-4-1-6-5-5-9l10-37c0-2 0-4-1-6-1-2-3-3-5-4l-49-13c-2 0-4 0-6 1-2 1-3 3-4 5l-25 95c22 8 42 20 59 36l8-30c1-4 5-7 9-6 4 1 7 6 6 10l-10 37c25 26 44 59 52 95l26 0c0 0 0 0 0 0 4 0 8 2 10 6 2 3 2 8 0 11z m4 33l-17-25-42 0 17 26z m-319-318c-1-2-2-4-4-5-1-1-3-1-5-1l-50 13c-2 1-4 2-5 4-1 2-1 4 0 6l30 114c17-16 37-28 59-36z m100 95c-105 0-190 86-190 191 0 105 85 190 190 190 89 0 163-61 184-143l-9 1c-4 0-7-2-9-6l-24-35-16 0c-4 66-59 119-126 119-69 0-126-57-126-126 0-70 57-126 126-126 67 0 122 52 126 118l16 0 23-36c2-3 6-5 10-5l9 0c-22-81-96-142-184-142z m-28 233c2-4 6-6 10-4 6 3 12 4 18 4 21 0 38-15 42-35l-42 0c-4 0-7-3-7-7 0-4 3-8 7-8l42 0c-4-20-21-35-42-35-23 0-42 19-42 43 0 2 0 5 0 7 1 4-2 8-6 9-4 1-8-2-9-6 0-3 0-7 0-10 0-32 25-58 57-58 29 0 53 22 57 50l54 0c-4-58-52-103-111-103-61 0-111 49-111 111 0 61 50 111 111 111 59 0 107-46 111-104l-54 0c-4 28-28 50-57 50-9 0-17-2-25-5-3-2-5-7-3-10z m205-76l-17 26 42 0 17-26z"/>
<glyph glyph-name="armor" unicode="&#98;" d="M512 342c-1 2-1 3-1 4-1 4-1 4-1 5-4 13-10 25-18 37-11 18-28 33-46 45-21 12-42 18-63 16-3 5-6 9-8 12-6 9-17 12-26 8-44-19-90-17-91-17 0 1 0 1-1 0 0 0-50-2-94 17-9 4-20 1-26-8-2-3-5-7-8-12-21 2-42-4-63-17-4-2-5-6-3-10 2-3 7-5 11-2 18 11 36 15 54 14 11-1 18-3 25-7 15-9 16-13 16-14 0 0 0 0-1 0-2-5-6-9-9-14-2-2-4-5-5-7l-18-25c-5-8-8-10-18-11l-102-14c0 1 0 1 0 1 0 1 1 3 1 4 3 11 9 23 15 33 3 3 5 7 8 11 3 3 2 7-1 10-3 3-8 2-10-1-4-4-7-8-9-12-8-12-14-24-18-37 0-1 0-1-1-5 0-1 0-2-1-4-1-4 0-8 3-11 3-3 6-4 10-4 0 0 1 0 1 0l89 12c5-15 9-31 13-46 4-14 7-27 10-41 2-10 5-20 7-30 2-9 4-18 6-27 2-11 4-21 2-32-1-7-2-14-3-21-1-13-3-26-5-38 0-2 0-5 1-7l20-47c2-4 5-7 9-7 1 0 2 0 3 0 3 0 6 1 9 3l36 37 36-38c2-3 6-4 9-4 3 0 7 1 9 4l36 38 37-37c2-2 5-4 9-4 0 0 1 0 2 1 4 0 7 3 9 7l20 47c1 2 2 5 1 7-2 14-4 28-6 42-1 8-4 18-3 26 7 57 23 112 39 167l89-12c0 0 1 0 1 0 4 0 7 1 10 4 3 3 4 7 3 11z m-352 98c-5 3-10 5-15 6 2 3 3 5 5 7 1 3 4 4 7 2 45-20 95-18 101-17 5-1 52-3 97 17 3 2 6 1 7-2 2-2 3-4 5-7-5-1-10-3-15-6-9-5-25-15-24-28 1-2 1-5 3-7 2-3 4-7 6-10-10-11-22-23-36-35-13-12-28-25-45-38-32 24-60 51-81 73 2 3 4 7 6 10 2 2 2 5 3 7 1 13-15 23-24 28z m186-57l14-20c-20-22-44-44-69-64-8 5-15 9-22 14 14 11 28 23 42 36 13 11 25 23 35 34z m-207-118c-7 26-14 53-21 76l2 0c10 2 17 4 22 10 20-20 42-41 65-60-22-12-45-21-68-26z m81 16c7-5 15-11 22-16-8-5-17-10-26-14-30-16-55-24-68-26-2 8-4 17-6 26 25 5 51 15 78 30z m36-25c11-7 22-13 34-19 34-18 59-24 71-27-3-14-5-26-6-36l-198 0c-1 10-3 22-6 36 12 3 37 9 71 27 12 6 23 12 34 19z m-43-103l-9-56-37-38-19 43 8 57 57 0z m43-96l-37 39 10 63 54 0 10-63z m90 2l-38 38-9 62 57 0 8-57z m27 206c-6 1-13 3-20 5-4 2-8-1-10-4-1-4 1-9 5-10 8-2 15-4 22-5-2-9-4-18-6-26-23 4-105 27-212 137l14 21c3-4 6-7 10-11 54-54 99-83 128-97 4-2 8-1 10 3 2 4 0 8-3 10-2 1-4 2-6 3 23 19 45 40 65 60 5-6 12-8 22-10l2 0c-7-23-14-50-21-76z m21 91c-10 1-13 3-18 11l-18 25c-1 2-3 5-5 7-3 5-7 9-9 14-1 0-1 0-1 0 0 1 1 5 16 14 7 4 14 6 25 7 2 0 4 0 6 0 36 0 72-26 90-54 6-10 12-22 15-33 0-1 1-3 1-4 0 0 0 0 0-1z"/>
<glyph glyph-name="backpack" unicode="&#99;" d="M283 111l-36 0c-8 0-16-7-16-16l0-15c0-9 8-16 16-16l36 0c8 0 16 7 16 16l0 15c0 9-8 16-16 16z m1-31c0-1-1-1-1-1l-36 0c0 0-1 0-1 1l0 15c0 0 1 1 1 1l36 0c0 0 1-1 1-1z m150 116l-44 0 0 71c0 16-7 30-17 40l24 0c14 0 26 12 26 26l0 40c0 14-12 25-26 25l-264 0c-14 0-26-11-26-25l0-40c0-14 12-26 26-26l24 0c-10-10-17-24-17-40l0-71-44 0c-13 0-23-10-23-22l0-8c0-7 6-13 13-13l0 0 0-44c0-17 14-30 30-30l26 0c6-24 28-41 53-41l140 0c25 0 47 17 53 41l26 0c16 0 30 13 30 30l0 44 0 0c7 0 13 6 13 13l0 8c0 12-10 22-23 22z m-61 187l24 0c6 0 11-4 11-10l0-40c0-6-5-11-11-11l-24 0z m-233-289l-24 0c-8 0-15 7-15 15l0 43 39 0z m0 74l-52 0 0 6c0 4 3 7 8 7l44 0z m201 215l17 0 0-61-17 0z m-166 0l17 0 0-61-17 0z m-42-61c-6 0-11 5-11 11l0 40c0 6 5 10 11 10l27 0 0-61z m242-230c0-22-18-39-40-39l-140 0c-22 0-40 17-40 39l0 72c8-8 17-14 28-17l0-38c0-2 1-4 2-5l8-8c3-3 6-4 10-4 4 0 7 1 10 3l9 8c2 2 3 4 3 6l0 37 82 0 0-37c0-2 1-4 3-6l9-8c3-2 6-3 10-3 4 0 7 1 10 4l8 8c1 1 2 3 2 5l0 39c10 3 19 8 26 16z m-185 107c0 0-1 0-1 0l0 9c0 1 1 1 1 1l28 0c0 0 0 0 0-1l0-9c0 0 0 0 0 0z m20-16l0-71-7-5c0 0 0 0 0 0l-5 5 0 71z m104 16c0 0 0 0 0 0l0 9c0 1 0 1 0 1l28 0c0 0 1 0 1-1l0-9c0 0-1 0-1 0z m20-16l0-71-5-5c0 0 0 0 0 0l-7 5 0 71z m41 19c0-17-11-32-26-38l0 22c5 2 9 7 9 13l0 9c0 9-7 16-16 16l-28 0c-8 0-15-7-15-16l0-9c0-6 3-11 8-13l0-25-82 0 0 25c5 2 8 7 8 13l0 9c0 9-6 16-15 16l-28 0c-9 0-16-7-16-16l0-9c0-6 4-11 9-13l0-23c-16 6-28 21-28 39l0 65 0 0c0 22 18 40 40 40l49 0c4 0 8 4 8 8 0 4-4 7-8 7l-37 0 0 61 119 0 0-61-31 0c-4 0-7-3-7-7 0-4 3-8 7-8l40 0c22 0 40-18 40-40z m54-93c0-8-7-15-15-15l-24 0 0 58 39 0 0-43z m13 59l-52 0 0 13 44 0c5 0 8-3 8-7z m44 344l-7 0c-10 0-17-7-17-17l0-68-40 44c-6 7-17 8-24 1l-5-5c-7-6-8-16-2-23l71-79 0-348c0-9 7-17 17-17l7 0c9 0 17 8 17 17l0 478c0 10-7 17-17 17z m0-497l-7 0c-1 0-2 1-2 2l0 351c0 2-1 4-2 5l-72 81c-1 0-1 1 0 2l5 5c1 1 1 1 2 1 0 0 0-1 1-1l40-44c4-5 11-7 16-4 6 2 10 7 10 14l0 68c0 1 1 2 2 2l7 0c1 0 2-1 2-2l0-478c0-1-1-2-2-2z m-401 302l0 15c4 3 7 8 7 13l0 7c0 9-7 16-15 16l-20 0c-9 0-16-7-16-16l0-7c0-5 3-10 7-13l0-15c-23-8-39-30-39-55 0-32 26-58 58-58 31 0 57 26 57 58 0 25-16 47-39 55z m-29 35c0 1 0 1 1 1l20 0c0 0 0 0 0-1l0-7c0 0 0 0 0 0l-20 0c-1 0-1 0-1 0z m14-22l0-10-7 0 0 10z m-3-111c-24 0-43 20-43 43 0 23 19 43 43 43 23 0 42-20 42-43 0-23-19-43-42-43z m23 66c-2 2-4 3-7 2l-31-5c-3 0-5-3-6-6l-5-31c0-2 1-5 2-6 2-2 4-3 6-3 0 0 0 0 1 1l31 5c3 0 6 3 6 6l5 31c0 2 0 5-2 6z m-17-29l-15-3 2 15 16 3z"/>
<glyph glyph-name="bomb" unicode="&#100;" d="M175 326c-25 1-50-5-71-18-5-3-7-9-4-14 2-3 5-5 9-5 2 0 3 1 5 2 18 10 39 16 60 15 6 0 11 4 11 10 0 5-4 10-10 10z m-82-38c-4 4-11 4-15 0l0 0c-4-4-4-10 0-14 2-2 5-3 7-3 3 0 5 1 7 3l0 0c4 4 4 10 1 14z m169-170c-4 4-10 4-14 0l0 0c-4-4-4-10 0-14 2-2 4-3 7-3 2 0 5 1 7 3l0 0c4 4 4 10 0 14z m-22-20c-3 5-9 6-14 3-18-10-39-16-60-15-6 0-11-4-11-10 0-5 4-10 10-10 2 0 3 0 5 0 23 0 46 6 66 18 5 3 7 9 4 14z m174 297c-5 2-11-2-12-7-4-13-15-15-40-16-12 0-24-1-34-4-8-3-15-8-19-14l-19 19c-5 5-13 9-21 9-8 0-16-4-21-9l-18-18c-19 7-39 11-60 11-45 0-88-18-120-50-32-32-50-75-50-120 0-45 18-88 50-120 32-32 75-50 120-50 45 0 88 18 120 50 25 24 41 55 47 89 6 31 3 62-8 91l18 18c5 5 9 13 9 21 0 8-4 16-9 21l-24 24c5 10 17 11 40 12 22 1 50 2 58 31 2 5-2 11-7 12z m-138-305c-28-28-66-44-106-44-40 0-78 16-106 44-28 28-44 66-44 106 0 40 16 78 44 106 28 28 66 44 106 44 20 0 39-4 57-11l41-41 41-41c23-56 10-120-33-163z m57 212c2-2 3-4 3-7 0-3-1-5-3-7l-16-15-70 70 15 16c2 2 4 3 7 3 3 0 5-1 7-3z m169 94l-30 0c-5 0-10-5-10-10 0-6 5-10 10-10l30 0c6 0 10 4 10 10 0 5-4 10-10 10z m-19 61c-4 3-11 3-15 0l-21-21c-3-4-3-11 0-15 2-2 5-2 8-2 2 0 5 0 7 2l21 21c3 4 3 11 0 15z m-71 29c-6 0-10-4-10-10l0-30c0-5 4-10 10-10 5 0 10 5 10 10l0 30c0 6-5 10-10 10z m-36-50l-21 21c-4 3-11 3-14 0-4-4-4-11 0-15l21-21c1-2 4-2 7-2 2 0 5 0 7 2 4 4 4 11 0 15z m36-101c-6 0-10-5-10-10l0-30c0-5 4-10 10-10 5 0 10 5 10 10l0 30c0 5-5 10-10 10z m71-6l-21 21c-4 4-11 4-15 0-3-4-3-11 0-14l21-21c2-2 5-3 8-3 2 0 5 1 7 3 3 3 3 10 0 14z"/>
<glyph glyph-name="wizard" unicode="&#101;" d="M409 409c-15 14-38 14-53 0l-15-16c-3-3-3-7 0-10 3-3 8-3 11 0l15 15c9 9 23 9 31 0 9-9 9-23 0-31l-68-68-31 31 31 31c3 3 3 8 0 11-2 3-7 3-10 0l-221-221c-3-2-3-7 0-10 2-2 4-2 6-2 2 0 4 0 5 2l179 179 31-31-70-70c-3-3-3-8 0-11 3-3 8-3 11 0l148 148c14 15 14 38 0 53z m-169-211c-3 3-8 3-11 0l-176-177c-9-8-23-8-31 0-9 9-9 23 0 32l67 67c3 3 3 7 0 10-3 3-8 3-11 0l-67-67c-14-14-14-38 0-52 7-7 17-11 26-11 10 0 19 4 26 11l177 176c3 3 3 8 0 11z m267 270l-18 8c-6 3-10 7-13 13l-8 19c-1 2-4 4-7 4-3 0-6-2-7-4l-8-19c-3-6-7-10-13-13l-18-8c-3-1-5-4-5-7 0-3 2-5 5-7l18-8c6-2 10-7 13-13l8-18c1-3 4-5 7-5 3 0 6 2 7 5l8 18c3 6 7 11 13 13l18 8c3 2 5 4 5 7 0 3-2 6-5 7z m-24-8c-9-4-17-12-21-21l-1-3-1 3c-5 9-12 17-21 21l-3 1 3 1c9 5 16 12 21 21l1 3 1-3c4-9 12-16 21-20l3-2z m0-199l-18 8c-6 3-11 7-14 13l-8 18c-1 3-4 5-7 5-3 0-5-2-7-5l-8-18c-2-6-7-10-13-13l-18-8c-3-1-5-4-5-7 0-3 2-6 5-7l18-8c6-3 11-7 13-13l8-18c2-3 4-5 7-5 3 0 6 2 7 5l8 18c3 6 8 10 14 13l18 8c2 1 4 4 4 7 0 3-2 6-4 7z m-25-8c-9-4-16-12-20-21l-2-3-1 3c-4 9-12 17-21 21l-3 1 3 1c9 4 17 12 21 21l1 3 2-3c4-9 11-17 20-21l3-1z m-156 190l-24 11c-8 3-15 10-19 18l-10 24c-2 3-4 4-7 4-3 0-6-1-7-4l-11-24c-3-8-10-15-18-18l-24-11c-3-1-4-4-4-7 0-3 1-6 4-7l24-10c8-4 15-11 18-19l11-24c1-3 4-4 7-4 3 0 5 1 7 4l10 24c4 8 11 15 19 19l24 10c2 1 4 4 4 7 0 3-2 6-4 7z m-30-11c-12-5-21-14-26-26l-4-8-4 8c-5 12-15 21-26 26l-9 4 9 4c11 5 21 14 26 26l4 9 4-9c5-12 14-21 26-26l8-4z"/>
<glyph glyph-name="bottle" unicode="&#102;" d="M378 201c-2 7-4 14-7 20-12 23-37 39-64 39l-102 0c-27 0-53-16-64-41-3-6-6-12-7-18-11-34-14-100 12-135 11-15 26-22 44-22l59 0c4 0 7 3 7 7 0 4-3 8-7 8l-59 0c-13 0-24 5-32 16-9 13-15 34-17 59-1 22 2 45 7 63 2 5 4 11 6 16 9 19 29 32 51 32l102 0c21 0 41-12 50-31 3-5 5-11 7-17 5-18 8-41 7-63-2-25-8-46-17-59-8-11-19-16-32-16l-28 0c-4 0-7-4-7-8 0-4 3-7 7-7l28 0c18 0 33 7 44 22 26 35 23 101 12 135z m52 23c-8 25-24 60-57 81-2 1-4 2-6 3-8 5-16 10-22 17 5 5 8 12 8 19l0 7c0 13-10 25-24 27 0 7 1 14 1 21 0 5 0 9 0 13 12 3 20 13 20 25l0 49c0 15-11 26-25 26l-138 0c-14 0-25-11-25-26l0 0c-4 1-9 1-10 1-11 0-24 0-37-6-11-4-20-12-27-21-4-7-8-14-10-22-5-16-4-34 3-48 12-23 33-37 52-48 0 0 0-1 1-1l30-14c1-1 2-2 2-3-6-6-13-11-21-16-2-1-4-2-6-3-33-21-49-56-57-81-15-48-19-143 17-193 16-20 36-31 61-31l192 0c25 0 45 11 61 31 36 50 32 145 17 193z m-92 127l0-7c0-7-6-13-14-13l-138 0c-7 0-13 6-13 13l0 7c0 7 6 13 13 13l138 0c8 0 14-6 14-13z m-51 146l38 0c5 0 10-5 10-11l0-49c0-6-5-11-10-11l-38 0z m0-86c12 0 22 0 28 0 0-3 0-7 0-11-1-7-1-14-1-21l-116 0c0 7 0 14-1 21 0 4 0 8 0 11 6 0 16 0 28 0 3-13 15-24 29-24l4 0c14 0 26 11 29 24z m-110 33l0 0c0 1 0 1 0 1l0 31c0 1 0 1 0 1l0 9c0 6 5 11 10 11l38 0 0-17c0-4 3-8 7-8 4 0 8 4 8 8l0 17 32 0 0-80c0-8-6-15-14-15l-4 0c-8 0-14 7-14 15l0 17c0 4-4 7-8 7-4 0-7-3-7-7l0-8-38 0c-5 0-10 5-10 11z m-19-93l0-5-18 9c-17 10-36 23-45 42-6 11-7 24-3 37 2 6 5 12 9 17 5 7 12 13 20 17 9 4 19 4 31 4 2 0 6 0 10-1l0-18c-25 1-41-9-43-28-2-14 5-27 19-39 9-8 20-13 27-17-4-5-7-11-7-18z m-24 72c0 6 4 11 10 13 5 2 11 3 18 2l0-1c0-12 8-22 20-25 0-4 0-8 0-13 0-6 1-13 1-20l-4 1c-20 7-48 24-45 43z m292-295c-2-37-11-68-26-88-12-17-28-25-48-25l-192 0c-20 0-36 8-48 25-33 44-30 132-16 179 7 23 22 54 51 73 12 7 24 14 33 25 2-1 150-1 152 0 9-11 21-18 33-25 29-19 44-50 51-73 8-25 11-59 10-91z"/>
<glyph glyph-name="dice" unicode="&#103;" d="M458 409l-169 95c-21 11-45 11-66 0l-169-95c-22-11-35-34-35-58l0-184c0-25 13-47 35-59l187-104c5-3 10-4 15-4 5 0 10 1 15 4l187 104c22 12 35 34 35 59l0 184c0 24-13 47-35 58z m-395-17l170 94c7 4 15 6 23 6 8 0 16-2 23-6l170-94c5-3 9-7 13-11l-183-101c-14-8-32-8-46 0l0 0-181 103c3 4 7 7 11 9z m386-267l-183-101 0 48c0 5-4 10-10 10-6 0-10-5-10-10l0-48-183 101c-15 9-24 24-24 42l0 184c0 5 1 10 3 15l184-105c12-7 20-20 20-34 0 0 0 0 0 0l0 0c0 0 0 0 0 0 0 0 0 0 0 0l0-91c0-6 4-10 10-10 6 0 10 4 10 10l0 91c0 14 8 27 20 34l3 2c1 0 182 100 182 100 1-4 2-8 2-12l0-184 0 0c0-18-9-33-24-42z m-193 294c-19 0-35-15-35-32 0-18 16-32 35-32 20 0 35 14 35 32 0 17-15 32-35 32z m0-44c-8 0-15 5-15 12 0 6 7 12 15 12 9 0 15-6 15-12 0-7-6-12-15-12z m7-263c-2 2-4 3-7 3-3 0-5-1-7-3-2-2-3-4-3-7 0-3 1-5 3-7 2-2 4-3 7-3 3 0 5 1 7 3 2 2 3 4 3 7 0 3-1 5-3 7z m-45 144c-14 14-35 15-48 2-12-12-11-34 3-47 7-8 16-11 25-11 8 0 16 2 22 8 13 13 12 34-2 48z m-12-34c-5-4-13-3-19 3-6 6-7 14-2 19 2 2 4 3 7 3 4 0 8-2 12-5 6-6 7-15 2-20z m-46-2c-13 13-35 14-47 2-13-13-12-34 2-48 7-7 17-11 26-11 8 0 16 3 22 9 12 13 11 34-3 48z m-12-34c-4-4-13-3-19 2-6 6-7 15-2 20 2 2 5 3 8 3 4 0 8-2 11-6 6-5 7-14 2-19z m-34-24c-1 9-5 17-11 24-14 14-35 15-48 2-12-12-11-34 2-47 8-8 17-11 26-11 8 0 16 2 22 8 6 7 9 15 9 24z m-23-9c-5-5-13-4-19 2-6 6-7 14-3 19 2 2 5 3 8 3 4 0 8-2 12-5 3-3 5-7 5-11 0-3-1-6-3-8z m267 86c-12 13-33 12-47-2-14-13-15-35-2-47 5-6 13-9 21-9 9 0 19 4 26 11 14 14 15 35 2 47z m-16-33c-6-6-15-7-19-2-5 5-4 13 2 19 6 6 14 7 19 2 5-4 4-13-2-19z m101-6c-13 13-34 12-48-2-6-7-10-15-11-24 0-9 3-17 9-24 6-6 14-8 22-8 9 0 18 3 26 11 13 13 14 35 2 47z m-17-33c-6-6-14-7-19-2-2 2-3 5-3 8 0 4 2 8 5 11 4 3 8 5 12 5 3 0 6-1 8-3 4-5 3-13-3-19z"/>
<glyph glyph-name="wheel" unicode="&#105;" d="M437 437c-48 48-113 75-181 75-68 0-133-27-181-75-43-43-69-100-74-161-5-59 11-119 46-168 3-4 9-5 14-2 4 3 6 9 2 14-66 94-56 221 26 303 92 92 242 92 334 0 44-45 69-104 69-167 0-63-25-122-69-167-82-82-210-92-304-25-4 3-11 2-14-3-3-4-2-10 2-14 44-30 96-47 149-47 7 0 13 0 20 1 61 5 118 31 161 74 48 48 75 113 75 181 0 68-27 133-75 181z m-347-349l-1 1c-4 4-10 4-14 0-4-4-4-10 0-14l1-1c2-2 4-3 7-3 2 0 5 1 7 3 4 4 4 11 0 14z m166 362c-107 0-194-87-194-194 0-107 87-194 194-194 107 0 194 87 194 194 0 107-87 194-194 194z m142-93c14-20 24-44 29-70l-99 0z m-112 70c25-4 49-14 69-28l-69-69z m0-125l85 85c5-5 10-10 14-15l-85-85-8 0c-2 3-4 5-6 6z m-40 128c3 0 7 0 10 0 3 0 7 0 10 0l0-120-6-6c-1 0-3 0-4 0-1 0-3 0-4 0l-6 6z m-20-3l0-97-69 69c20 14 44 24 69 28z m-85-40l85-85 0-9c-2-1-4-3-6-6l-8 0-85 85c4 5 9 10 14 15z m-27-30l70-70-99 0c5 26 15 50 29 70z m-32-101c0 4 0 8 0 11l122 0 4-4c0-3 0-5 0-7 0-1 0-3 0-4l-4-5-122 0c0 3 0 6 0 9z m31-99c-14 21-24 45-29 70l100 0z m113-72c-26 4-50 14-71 29l71 71z m0 128l-86-86c-5 4-10 9-15 14l87 86 5 0c3-3 6-6 9-8z m40-131c-3 0-7 0-10 0-3 0-7 0-10 0l0 123 3 3c3 0 5 0 7 0 2 0 4 0 7 0l3-3z m-10 146c-15 0-28 13-28 28 0 15 13 28 28 28 15 0 28-13 28-28 0-15-13-28-28-28z m30-143l0 100 71-71c-21-15-45-25-71-29z m86 42l-86 86 0 6c3 2 6 5 9 8l5 0 87-86c-5-5-10-10-15-14z m27 30l-71 70 100 0c-5-25-15-49-29-70z m-91 90l-4 5c0 1 0 3 0 4 0 2 0 4 0 7l4 4 122 0c0-3 0-7 0-11 0-3 0-6 0-9z m-45 16c-2 2-4 3-7 3-3 0-5-1-7-3-2-2-3-4-3-7 0-3 1-5 3-7 2-2 4-3 7-3 3 0 5 1 7 3 2 2 3 4 3 7 0 3-1 5-3 7z m115 181c-25 17-52 28-82 33-5 1-11-3-12-8 0-6 3-11 9-12 26-5 52-15 74-29 2-1 4-2 6-2 3 0 6 2 8 5 3 4 2 10-3 13z m-122 37l0 0c-6 0-10-5-10-10 0-6 4-10 10-10l0 0c0 0 0 0 0 0 6 0 10 4 10 10 0 5-4 10-10 10z"/>
<glyph glyph-name="weight" unicode="&#106;" d="M256 471c-62 0-112-50-112-112 0-26 9-52 27-72 1-2 4-4 7-4 1 0 2 1 3 1 20 5 43 8 69 8 2 0 4 0 6 0 0 0 0 0 0 0 2 0 4 0 6 0 26 0 49-3 69-8 4-1 8 0 10 3 18 20 27 46 27 72 0 62-50 112-112 112z m74-166c-20 5-43 7-68 7-2 0-4 0-6 0-2 0-4 0-6 0-25 0-48-2-68-7-12 15-18 35-18 54 0 51 41 92 92 92 51 0 92-41 92-92 0-19-6-39-18-54z m124-169c-5 65-27 114-68 144 15 24 23 51 23 79 0 85-69 153-153 153-84 0-153-68-153-153 0-28 8-55 23-79-41-30-63-79-68-144-3-38 6-69 27-91 16-17 39-29 69-36 25-6 54-9 91-9 4 0 7 0 11 0 4 0 7 0 11 0 37 0 66 3 91 9 30 7 53 19 69 36 21 22 30 53 27 91z m-41-77c-25-27-71-39-146-39-3 0-7 0-11 0 0 0 0 0 0 0 0 0 0 0 0 0-4 0-8 0-11 0-75 0-121 12-146 39-17 18-24 43-21 75 4 64 27 109 67 134 2 2 4 4 5 7 0 3-1 5-2 8-16 22-25 49-25 76 0 74 60 133 133 133 73 0 133-59 133-133 0-27-9-54-25-76-1-3-2-5-2-8 1-3 3-5 5-7 40-25 63-70 67-134 3-32-4-57-21-75z m-7 108c0 0 0 0 0 1l0 0c-1 5-7 9-12 7-6-1-9-7-7-12l0 0c0-1 0-1 0-1 1-5 5-8 10-8 0 0 1 0 2 1 5 1 9 6 7 12z m6-39c0 6-5 10-10 10-6-1-10-5-10-11 2-19-1-32-9-40-7-7-19-13-35-16-5-2-8-7-7-12 1-5 5-8 10-8 0 0 1 0 2 0 20 5 35 12 44 22 12 13 17 31 15 55z m-82 46l-35 0c-5 0-10-5-10-10 0-6 5-10 10-10l23 0c-4-11-14-15-23-15-13 0-24 14-24 31 0 13 6 24 16 29 10 4 21 2 31-5 4-4 10-3 14 1 3 4 3 11-2 14-15 13-35 16-51 8-18-8-28-26-28-47 0-28 20-51 44-51 26 0 45 19 45 45 0 5-5 10-10 10z m-90-40l-25 44 22 26c3 4 3 11-2 14-4 4-10 3-14-1l-28-34 1 28c0 5-5 10-10 10-6 0-10-4-10-10l-1-57c0 0 0 0 0 0l-1-25c0-5 5-10 10-10 0 0 0 0 0 0 6 0 10 5 10 10l1 22 8 10 21-37c2-3 6-5 9-5 2 0 4 1 5 2 5 2 7 9 4 13z"/>
<glyph glyph-name="map" unicode="&#104;" d="M276 247c0 1 0 3 0 5 0 4-3 7-7 8-4 0-8-3-8-7 0-2 0-4 0-6 0-11 1-21 4-31 1-3 4-5 7-5 1 0 2 0 2 0 4 1 7 5 5 9-2 9-3 18-3 27z m-12 39c0-4 4-7 8-7 0 0 0 0 0 0 4 0 7 3 7 7 0 1 0 2 0 3 0 14-2 26-7 34-2 4-7 5-11 3-3-2-4-7-2-11 4-6 5-14 5-26 0-1 0-2 0-3z m33-99c-1 2-2 3-4 5-2 4-7 4-10 2-3-3-4-7-2-11 2-2 3-4 5-6 5-6 12-13 19-20 1-2 3-2 5-2 2 0 4 0 5 2 3 3 3 7 0 10-6 7-12 14-18 20z m69-66c-3 3-6 7-9 10-1 0-1 0-1 0 0 0-7 5-16 14-3 2-8 2-11-1-2-3-2-8 1-11 9-8 16-13 17-14 3-2 6-5 8-8 1-1 3-2 6-2 1 0 3 0 4 1 4 3 4 8 1 11z m-116 231c-4 4-9 8-15 12-3 2-8 1-10-3-2-3-1-8 2-10 5-3 9-6 13-10 2-1 3-2 5-2 2 0 4 1 6 3 3 3 2 7-1 10z m255 114l0 18c0 14-11 25-26 25-14 0-25-11-25-25l0-18c-4 0-7-3-7-7l0-8-382 0 0 8c0 4-3 7-7 7l0 18c0 14-11 25-25 25-15 0-26-11-26-25l0-18c-4 0-7-3-7-7l0-75c0-4 3-7 8-7 4 0 7 3 7 7l0 67 35 0 0-390-35 0 0 276c0 5-3 8-7 8-5 0-8-3-8-8l0-284c0-4 3-7 7-8l0-17c0-14 11-25 26-25 14 0 25 11 25 25l0 17c4 1 7 4 7 8l0 8 133 0c4 0 8 3 8 7 0 4-4 8-8 8l-31 0c0 1 0 3 0 5 1 2 1 3 2 3 1 0 2 1 4 1 3 0 12 1 13 11 2 16-14 24-20 27-6 4-11 9-10 11 1 2 4 4 7 6l0 0c8 5 19 12 24 23 7 14 2 29-6 36-9 7-22 7-38 0l-2-1c-8-3-16-7-23-4-5 1-9 5-13 10-4 5-8 10-14 13-8 5-17 6-26 3l0 216 25 0c4-27 3-54-3-80l0-1c-3-14 0-27 7-39 7-9 18-16 30-19 0 0 0-1 1-1 2-4 5-8 4-11 0-2-1-4-1-7-2-4-4-9-3-15 2-8 9-14 19-16 3 0 5 0 7 0 14 0 27 6 34 18 11 14 10 36 0 53-4 7-8 12-14 15-1 1-4 3-6 5-9 8-20 17-31 15-5-1-10-4-14-9-4-7-5-17-4-23 0-2 0-4 1-5-4 2-8 5-10 9-6 8-8 17-5 26l0 2c6 27 7 55 3 83l243 0 3-6c3-9-6-20-8-24-2-2-5-4-7-7-6-6-12-13-16-21-8-18-3-41 13-54 2-2 5-3 7-5 4-2 8-4 10-7 4-7 1-16-2-27-4-12-7-29 4-41 4-5 11-7 18-8 0 0 0 0 1 0 8 0 17 4 23 10 10 9 14 23 17 35l1 2c2 11 5 21 11 28 5 6 17 11 24 11l0-65-44-47c-6-6-11-13-14-21-7-17-7-37 0-54l10-25c4-10 5-21 3-32l0-2-21 0c0 3 1 6 0 10 0 4-3 7-7 7-5 0-8-4-7-8 0-4-1-7-1-9l-122 0c-4 0-7-4-7-8 0-4 3-7 7-7l127 0c0 0 0 0 0 0 0 0 0 0 0 0l35 0c0 0 0 0 0 0 1-1 1-1 2-1 0 0 1 1 2 1l37 0 0-8c0-4 3-7 7-8l0-17c0-14 11-25 25-25 15 0 26 11 26 25l0 17c4 1 7 4 7 8l0 406c0 4-3 7-7 7z m-462 1l-21 0 0 17c0 5 5 10 11 10 5 0 10-5 10-10z m0-439c0-5-5-10-10-10-6 0-11 5-11 10l0 17 21 0z m23 176c5 3 12 3 17 0 4-2 7-6 11-10 5-5 10-12 19-15 12-4 24 1 34 6l2 0c10 5 18 5 23 2 4-4 4-12 2-18-4-7-12-12-19-16l0 0c-4-3-11-7-13-14-4-10 3-21 17-29 9-5 12-8 12-10 0 0 0 0 0 0-3-1-7-1-10-4-5-2-7-7-8-12-1-3-1-6-1-8l-86 0z m67 131c1 3 3 3 3 3 0 0 1 0 1 0 5 0 13-7 18-11 3-2 6-5 8-6 3-3 6-6 9-10 7-13 8-28 1-38-6-8-16-13-26-11-4 1-7 2-7 4-1 2 0 4 2 7 1 3 2 6 2 10 1 9-3 15-7 21-1 1-1 2-2 4-4 7-6 22-2 27z m284-259c2 13 1 27-4 40l-10 25c-6 13-6 29 0 42 2 7 6 12 11 17l33 35 0-159z m30 261c-14 0-29-8-36-17-8-10-11-22-14-33l0-2c-3-11-6-22-13-28-4-4-9-6-14-6-2 0-5 1-8 3-4 5-4 13 0 26 4 11 9 27 0 40-4 6-9 9-14 12-2 1-4 3-6 4-10 8-13 24-8 36 3 6 8 11 13 17 2 2 5 5 7 8 11 13 15 27 11 39 0 0-1 0-1 0l83 0 0-99z m22 147c0 5 5 10 10 10 6 0 11-5 11-10l0-17-21 0z m21-456c0-5-5-10-11-10-5 0-10 5-10 10l0 17 21 0z m7 33l-35 0 0 390 35 0z m-295 353c-15 0-26-12-26-26 0-15 11-26 26-26 14 0 25 11 25 26 0 14-11 26-25 26z m0-37c-7 0-11 5-11 11 0 6 4 11 11 11 6 0 10-5 10-11 0-6-4-11-10-11z"/>
<glyph glyph-name="death" unicode="&#107;" d="M256 458l0 0c-6 0-10-4-10-10 0-6 4-10 10-10l0 0c6 0 10 4 10 10 0 6-4 10-10 10z m68-343l-136 0c-5 0-10-4-10-10 0-30 25-55 56-55l45 0c30 0 55 25 55 55 0 6-5 10-10 10z m-45-45l-45 0c-16 0-30 11-34 25l113 0c-5-14-18-25-34-25z m54 265l-32 0c-21 0-39-17-39-39l0-25c0-22 18-39 39-39l32 0c21 0 39 17 39 39l0 25c0 22-18 39-39 39z m19-64c0-11-9-19-19-19l-32 0c-10 0-19 8-19 19l0 25c0 11 9 19 19 19l32 0c10 0 19-8 19-19z m-141 64l-32 0c-21 0-39-17-39-39l0-25c0-22 18-39 39-39l32 0c21 0 39 17 39 39l0 25c0 22-18 39-39 39z m19-64c0-11-9-19-19-19l-32 0c-10 0-19 8-19 19l0 25c0 11 9 19 19 19l32 0c10 0 19-8 19-19z m261-157c-5 6-13 9-21 9-8 0-15-3-21-9l-4-4-81 80c28 7 48 32 48 62l0 50c0 20-4 39-11 57l44 44 5-5c5-6 13-9 20-9 8 0 16 3 21 9l12 12c6 6 9 13 9 21 0 8-3 15-9 21l-12 12c-5 5-11 8-19 8 0 7-3 14-8 19l-12 12c-6 6-13 9-21 9-8 0-15-3-21-9l-12-12c-6-5-9-13-9-21 0-7 3-15 9-20l5-5-35-34c-19 19-43 34-69 41-5 2-11-2-12-7-2-5 1-11 6-12 58-17 99-71 99-131l0-50c0-24-20-44-44-44l-6 0c0 0 0 0 0 0l-3 0c-6 0-10-4-10-10l0-23c0-11-9-20-20-20l-5 0 0 21c0 5-4 10-10 10-5 0-10-5-10-10l0-21-18 0 0 21c0 5-4 10-10 10-6 0-10-5-10-10l0-21-18 0 0 21c0 5-5 10-10 10-6 0-10-5-10-10l0-21-3 0c-11 0-20 9-20 20l0 23c0 6-4 10-10 10l-5 0c0 0 0 0 0 0l-6 0c-24 0-44 20-44 44l0 50c0 33 12 63 31 87 1 0 1 1 1 1 16 19 37 33 61 41 5 2 8 7 6 13-2 5-8 8-13 6-24-8-45-22-62-39l-35 34 5 5c6 5 9 13 9 20 0 8-3 16-9 21l-12 12c-6 6-13 9-21 9-8 0-15-3-21-9l-12-12c-5-5-8-12-8-19-8 0-14-3-19-8l-12-12c-6-6-9-13-9-21 0-8 3-15 9-21l12-12c5-6 13-9 21-9 7 0 15 3 20 9l5 5 44-44c-7-18-11-37-11-57l0-50c0-30 20-55 48-62l-81-80-4 4c-6 6-13 9-21 9-8 0-16-3-21-9l-12-12c-12-11-12-30 0-42l12-12c5-5 12-8 19-8 0-7 3-14 8-19l12-12c6-6 14-9 21-9 8 0 15 3 21 9l12 12c12 11 12 30 0 41l-5 5 22 22c4 4 4 10 0 14-4 4-10 4-14 0l-29-29c-2-2-3-4-3-7 0-3 1-5 3-7l12-12c4-3 4-9 0-13l-12-12c-4-4-10-4-13 0l-12 12c-4 4-4 10 0 13 1 2 2 5 2 7 0 3-1 5-2 7-4 4-11 4-15 0-1-1-4-2-6-2-3 0-5 1-7 2l-12 13c-4 3-4 9 0 13l12 12c2 2 4 3 7 3 2 0 5-1 6-3l12-12c2-2 4-3 7-3 3 0 5 1 7 3l91 91 0-4c0-22 18-40 40-40l104 0c7 0 14 2 20 6l74-74-5-5c-12-11-12-30 0-41l12-12c6-6 13-9 21-9 7 0 15 3 21 9l12 12c5 5 8 12 8 19 7 0 14 3 19 8l12 12c12 12 12 31 0 42z m-110 281l43 43c4 4 4 10 0 14l-12 12c-2 1-3 4-3 6 0 3 1 5 3 7l12 12c2 2 4 3 7 3 2 0 5-1 7-3l12-12c3-4 3-10 0-13-2-2-3-5-3-7 0-3 1-5 3-7 4-4 10-4 14 0 2 1 4 2 6 2 3 0 5-1 7-2l12-13c2-1 3-4 3-6 0-3-1-5-3-7l-12-12c-2-2-4-3-7-3-2 0-4 1-6 3l-12 12c-2 2-4 3-7 3-3 0-5-1-7-3l-46-46c-3 6-7 12-11 17z m-307 29c-2 2-4 3-7 3-3 0-5-1-7-3l-12-12c-2-2-4-3-6-3-3 0-5 1-7 3l-12 12c-2 2-3 4-3 7 0 2 1 5 3 6l12 13c2 1 4 2 7 2 2 0 4-1 6-2 4-4 10-4 14 0 2 2 3 4 3 7 0 2-1 5-3 7-3 3-3 9 0 13l12 12c2 2 5 3 7 3 3 0 5-1 7-3l12-12c2-2 3-4 3-7 0-2-1-5-3-6l-12-12c-4-4-4-10 0-14l43-43c-4-5-8-11-11-17z m415-349l-12-13c-2-1-4-2-7-2-2 0-5 1-6 2-4 4-11 4-15 0-1-2-2-4-2-7 0-2 1-5 2-7 4-3 4-9 0-13l-12-12c-3-4-9-4-13 0l-12 12c-4 4-4 10 0 13l12 12c4 4 4 10 0 14l-81 81c4 6 6 13 6 20l0 2 89-89c2-2 4-3 7-3 3 0 5 1 7 3l12 12c1 2 4 3 6 3 3 0 5-1 7-3l12-12c4-4 4-10 0-13z m-339 57l0 0c-5 0-10-4-10-10 0-5 5-10 10-10 6 0 10 5 10 10 0 6-4 10-10 10z"/>
<glyph glyph-name="crystal" unicode="&#108;" d="M355 360c0 0 0 1 0 1-1 0-1 0-1 0 0 0 0 1 0 1 0 0 0 0 0 0 0 0 0 1 0 1 0 0 0 0 0 0 0 0 0 1 0 1-1 0-1 0-1 0 0 0 0 0 0 1 0 0 0 0 0 0l-93 113c0 0-1 0-1 0 0 0 0 0 0 0 0 0 0 1 0 1-1 0-1 0-1 0 0 0 0 0 0 0-1 0-1 1-1 1 0 0 0 0 0 0 0 0-1 0-1 0 0 0 0 0 0 0 0 0 0 0 0 0-1 0-1 0-1 0 0 0 0 0-1 0 0 0 0 0 0 0 0 0-1 0-1 0 0 0 0 0 0 0-1 0-1 0-1 0 0 0 0 0 0 0-1 0-1 0-1 0 0 0 0 0 0 0 0 0 0 0-1 0 0 0 0-1 0-1 0 0 0 0 0 0-1 0-1 0-1 0 0 0 0-1 0-1 0 0-1 0-1 0 0 0 0 0 0 0l-39-47c-2-3-2-8 1-11 4-2 8-2 11 1l25 31 0-84-70 0 16 18c2 3 2 8-1 10-4 3-8 3-11-1l-25-30c0 0 0 0 0 0 0-1-1-1-1-1 0 0 0 0 0 0 0 0 0-1 0-1 0 0 0 0 0 0 0 0-1-1-1-1 0 0 0 0 0 0 0 0 0-1 0-1 0 0 0 0 0 0 0 0 0-1 0-1 0 0 0 0 0 0 0 0 0-1 0-1l46-312 0 0c0-3 2-7 5-9l46-28c0 0 0 0 0 0 0 0 0 0 0 0 0 0 0 0 1 0 0 0 0 0 0 0 0 0 0-1 0-1 1 0 1 0 1 0 0 0 0 0 1 0 0 0 0 0 0 0 0 0 0 0 1 0 0 0 0 0 1 0 0 0 0 0 0 0 0 0 1 0 1 0 0 0 0 0 0 0 0 0 1 1 1 1 0 0 0 0 0 0 0 0 0 0 0 0 1 0 1 0 1 0 0 0 0 0 0 0l45 28c3 2 5 6 6 9l45 312c1 0 1 1 1 1 0 0 0 0 0 0z m-109-330l-33 20-44 303 77 0z m15 422l70-84-70 0z m33-402l-33-20 0 323 77 0z m218 193c0 0 0 0 0 0 0 0 0 0 0 0 0 1 0 1 0 1 0 0 0 0 0 0-1 1-1 1-1 1l-38 96c0 0 0 0 0 0 0 0 0 0-1 0 0 1 0 1 0 1 0 0 0 0 0 0 0 0 0 1 0 1-1 0-1 0-1 0 0 0 0 0 0 1 0 0 0 0-1 0 0 0 0 0 0 0 0 0 0 0 0 0 0 0-1 0-1 1 0 0 0 0 0 0 0 0-1 0-1 0 0 0 0 0 0 0-1 0-1 0-1 0 0 0 0 0 0 0-1 0-1 0-1 0 0 0 0 0 0 0 0 0-1 0-1 0 0 0 0 0 0 0 0 0-1 0-1 0 0 0 0 0 0 0 0 0-1 0-1 0 0 0 0 0 0 0-1-1-1-1-1-1 0 0 0 0 0 0l-87-56c0 0 0 0 0 0 0 0-1 0-1 0 0-1 0-1 0-1 0 0 0 0-1 0 0 0 0 0 0 0 0-1 0-1 0-1 0 0 0 0 0 0-1-1-1-1-1-1 0 0 0 0 0 0 0 0 0-1 0-1 0 0 0 0 0 0 0 0 0-1 0-1l-36-220c-1-3 0-6 2-9l25-28c0 0 0 0 0 0 0 0 0-1 0-1 0 0 0 0 0 0 0 0 0 0 0 0 0 0 0 0 1 0 0 0 0 0 0 0 0-1 0-1 0-1 0 0 0 0 0 0 1 0 1 0 1 0 0 0 0 0 0 0 0 0 0 0 1 0 0 0 0 0 0-1 0 0 0 0 0 0 0 0 1 0 1 0 0 0 0 0 0 0 0 0 0 0 0 0 1 0 1 0 1 0 0 0 0 0 0 0 0 0 1 0 1 0 0 0 0 0 0 0 0 0 1 0 1 0 0 0 0 0 0 0 0 0 0 0 0 0l37 10c3 0 5 3 7 5l97 201c0 0 0 0 1 0 0 1 0 1 0 1 0 0 0 0 0 0 0 0 0 1 0 1 0 0 0 0 0 0 0 0 0 1 0 1 0 0 0 0 0 1z m-45 73l25-62-41 13z m-15 4l-15-49-16 5-25 8z m-87-274l-14 17 34 209 47-15z m36 1l-22-6 68 211 20-6 27-9z m-229 12l-14 74c-1 4-5 7-9 6-4-1-6-5-6-9l14-71-13-16-68 198 12 4 32 11 15-80c1-4 5-7 9-6 4 1 6 5 6 9l-17 88 0 0c0 1 0 1 0 1 0 0 0 0 0 1 0 0 0 0 0 0 0 0 0 0 0 0 0 1-1 1-1 1 0 0 0 0 0 0 0 1 0 1 0 1 0 0 0 0-1 0 0 0 0 1 0 1 0 0 0 0 0 0 0 0-1 0-1 0 0 0 0 0 0 0l-84 52c0 0 0 0 0 0 0 0 0 0 0 0-1 1-1 1-1 1 0 0 0 0 0 0-1 0-1 0-1 0 0 0 0 0-1 0 0 0 0 0 0 0 0 0 0 0 0 0-1 0-1 0-1 0 0 0 0 0 0 0 0 0-1 0-1 0 0 0 0 0 0 0-1 0-1 0-1 0 0 0 0 0 0 0-1 0-1-1-1-1 0 0 0 0 0 0-1 0-1 0-1 0 0 0 0 0 0 0 0 0 0-1 0-1-1 0-1 0-1 0 0 0 0 0 0 0 0-1 0-1-1-1 0 0 0 0 0 0 0-1 0-1 0-1 0 0 0 0 0 0 0 0-1-1-1-1l-35-91c0-1 0-1 0-1 0 0 0 0 0 0 0 0 0-1 0-1 0 0 0 0 0 0 0 0 0-1 0-1 0 0 0 0 0-1 0 0 0 0 0 0 0 0 0 0 0 0 0-1 0-1 0-1 0 0 0 0 0 0 0-1 0-1 0-1 1 0 1 0 1-1l96-188c1-3 4-5 7-6l35-8c0 0 0 0 0 0 0 0 0 0 0 0 1 0 1 0 1 0 0 0 0 0 0 0 0 0 1 0 1 0 0 0 0 0 0 0 0 0 0 0 1 0 0 0 0 0 0 0 0 0 0 0 0 0 0 0 1 0 1 0 0 0 0 0 0 1 0 0 0 0 0 0 1 0 1 0 1 0 0 0 0 0 0 0 0 0 0 0 1 0 0 0 0 0 0 0 0 0 0 1 0 1 0 0 0 0 1 0 0 0 0 0 0 0 0 0 0 0 0 0 0 0 0 1 0 1 0 0 0 0 0 0 0 0 1 0 1 0l22 28c2 2 3 5 3 8z m-63 209l-38-13-15 45z m-67 28l15-45-37-13z m67-253l-91 179 44 14 67-198z m267 414l-16 0 0 16c0 4-3 7-7 7-5 0-8-3-8-7l0-16-16 0c-4 0-7-3-7-7 0-4 3-8 7-8l16 0 0-16c0-4 3-7 8-7 4 0 7 3 7 7l0 16 16 0c4 0 7 4 7 8 0 4-3 7-7 7z m-256-99l-16 0 0 15c0 5-3 8-7 8-4 0-8-3-8-8l0-15-16 0c-4 0-7-4-7-8 0-4 3-7 7-7l16 0 0-16c0-4 4-8 8-8 4 0 7 4 7 8l0 16 16 0c4 0 7 3 7 7 0 4-3 8-7 8z m295 37l-4 0 0 4c0 4-3 7-7 7-5 0-8-3-8-7l0-4-4 0c-4 0-8-4-8-8 0-4 4-7 8-7l4 0 0-5c0-4 3-7 8-7 4 0 7 3 7 7l0 5 4 0c4 0 8 3 8 7 0 4-4 8-8 8z m-240 57l-7 0 0 7c0 4-3 7-7 7-5 0-8-3-8-7l0-7-7 0c-4 0-7-4-7-8 0-4 3-7 7-7l7 0 0-7c0-4 3-7 8-7 4 0 7 3 7 7l0 7 7 0c4 0 7 3 7 7 0 4-3 8-7 8z m-111 38l-4 0 0 4c0 5-3 8-7 8-5 0-8-3-8-8l0-4-4 0c-4 0-8-3-8-7 0-4 4-8 8-8l4 0 0-4c0-4 3-7 8-7 4 0 7 3 7 7l0 4 4 0c4 0 8 4 8 8 0 4-4 7-8 7z m414 0l-5 0 0 5c0 5-3 8-7 8-4 0-8-3-8-8l0-5-5 0c-4 0-7-3-7-7 0-4 3-8 7-8l5 0 0-5c0-4 4-7 8-7 4 0 7 3 7 7l0 5 5 0c5 0 8 4 8 8 0 4-3 7-8 7z"/>
<glyph glyph-name="tower" unicode="&#110;" d="M449 395c-4 0-8-4-8-8l0-39-370 0 0 67 54 0c4 0 7 4 7 8 0 4-3 7-7 7l-54 0 0 67 51 0 0-19c0-7 5-13 12-13l84 0c7 0 13 6 13 13l0 19 50 0 0-19c0-7 6-13 13-13l84 0c7 0 12 6 12 13l0 19 51 0 0-63c0-4 4-7 8-7 4 0 7 3 7 7l0 65c0 7-5 13-12 13l-56 0c-7 0-13-6-13-13l0-19-79 0 0 19c0 7-5 13-12 13l-56 0c-7 0-12-6-12-13l0-19-79 0 0 19c0 7-6 13-13 13l-56 0c-7 0-12-6-12-13l0-158c0 0 0 0 0 0 0 0 0 0 0 0 0-1 0-1 0-1 0 0 0 0 0 0 0 0 0-1 0-1 0 0 0 0 0 0 0 0 0-1 0-1 0 0 0 0 0 0l0 0c0 0 0 0 0 0l28-69 0-256c0-7 6-13 13-13l318 0c7 0 13 6 13 13l0 72c0 4-3 8-8 8-4 0-7-4-7-8l0-70-91 0 0 66c0 37-29 67-66 67-37 0-66-30-66-67l0-66-91 0 0 248 314 0 0-66-24 0c-4 0-7-3-7-8 0-4 3-7 7-7l24 0 0-50c0-4 3-8 7-8 5 0 8 4 8 8l0 137 28 69c0 0 0 0 0 0l0 0c0 0 0 0 0 0 0 0 0 1 0 1 0 0 0 0 0 0 0 0 0 1 0 1 0 0 0 0 0 0 0 0 0 0 0 1 0 0 0 0 0 0 0 0 0 0 0 0l0 46c0 4-3 8-7 8z m-244-314c0 29 23 52 51 52 28 0 51-23 51-52l0-66-102 0z m210 197l-318 0-23 55 364 0z m-238 112l-31 0c-4 0-7-3-7-7 0-4 3-8 7-8l31 0c4 0 8 4 8 8 0 4-4 7-8 7z m208-325l-31 0c-4 0-7-4-7-8 0-4 3-7 7-7l31 0c4 0 8 3 8 7 0 4-4 8-8 8z m-7 367l-31 0c-4 0-7-3-7-7 0-5 3-8 7-8l31 0c4 0 8 3 8 8 0 4-4 7-8 7z m-108-236l-15 0c-5 0-8-3-8-7 0-4 3-8 8-8l15 0c4 0 7 4 7 8 0 4-3 7-7 7z m116-59l-15 0c-5 0-8-3-8-7 0-5 3-8 8-8l15 0c4 0 7 3 7 8 0 4-3 7-7 7z m-246-59l-15 0c-4 0-8-4-8-8 0-4 4-7 8-7l15 0c4 0 8 3 8 7 0 4-4 8-8 8z m188 166l-56 0c-4 0-8-4-8-8 0-4 4-7 8-7l56 0c4 0 8 3 8 7 0 4-4 8-8 8z m-123-73l-56 0c-4 0-8-3-8-7 0-5 4-8 8-8l56 0c4 0 8 3 8 8 0 4-4 7-8 7z"/>
<glyph glyph-name="thinking" unicode="&#111;" d="M232 160l48 0 0-16-48 0z m-8 88c0-2-9-8-24-8-15 0-24 6-24 8l-16 0c0-14 17-24 40-24 23 0 40 10 40 24z m112 0c0-2-9-8-24-8-15 0-24 6-24 8l-16 0c0-14 17-24 40-24 23 0 40 10 40 24z m-336 96l24 0 0-16-24 0z m32 32l16 0 0-16-16 0z m-32 0l16 0 0-16-16 0z m464-8l16 0 0-16-16 0z m32 0l16 0 0-16-16 0z m-80 112l16 0 0-16-16 0z m32 0l16 0 0-16-16 0z m32 0l16 0 0-16-16 0z m-448 32l16 0 0-16-16 0z m32 0l16 0 0-16-16 0z m32 0l16 0 0-16-16 0z m152-40l16 0 0-16-16 0z m32 0l16 0 0-16-16 0z m-72-88l16 0 0-16-16 0z m32 0l16 0 0-16-16 0z m72 88l16 0 0-16-16 0z m198-458l-42 42c-11 10-25 16-40 16l-68 0c-22 0-39 17-40 39 38 47 60 105 64 167l0 10 128 0 0 16-127 0c1 17-1 33-6 48l69 0 0 16-76 0c-5 11-13 22-22 32-24 26-57 40-93 40-32 0-62-11-85-32l-132 0 0-16 117 0c-12-14-20-31-25-48l-92 0 0-16 89 0c-1-8-1-16-1-24l2-26c3-61 25-119 62-166l0 0c0-22-18-40-40-40l-68 0c-15 0-29-6-40-16l-42-42c-1-2-2-4-2-6l0-8 16 0 0 5 40 39c7 8 17 12 28 12l68 0c25 0 47 17 54 40 6-8 14-15 21-22 2-1 4-2 6-2l48 0c2 0 4 1 5 2 7 7 14 14 21 21 7-23 28-39 53-39l68 0c11 0 21-4 28-12l40-39 0-5 16 0 0 8c0 2-1 4-2 6z m-232 74l-42 0c-54 50-86 118-90 191l-2 26c0 8 0 15 1 23l44 0-11-10 12-12 29 30-29 30-12-12 11-10-40 0c5 16 14 32 26 45 21 22 50 35 82 35 31 0 60-13 82-35 6-7 11-14 15-21l-55 0 11 10-12 12-29-30 29-30 12 12-11 10 63 0c6-15 8-31 7-47l0-1-38 0 11 10-12 12-29-30 29-30 12 12-11 10 37 0 0-9c-5-73-37-141-90-191z"/>
<glyph glyph-name="crown" unicode="&#109;" d="M256 168c-14 0-26-12-26-26 0-14 12-26 26-26 14 0 26 12 26 26 0 14-12 26-26 26z m0-37c-6 0-11 5-11 11 0 6 5 11 11 11 6 0 11-5 11-11 0-6-5-11-11-11z m88 37c-14 0-26-12-26-26 0-14 12-26 26-26 14 0 25 12 25 26 0 14-11 26-25 26z m0-37c-6 0-11 5-11 11 0 6 5 11 11 11 6 0 10-5 10-11 0-6-4-11-10-11z m-176 37c-14 0-25-12-25-26 0-14 11-26 25-26 14 0 26 12 26 26 0 14-12 26-26 26z m0-37c-6 0-10 5-10 11 0 6 4 11 10 11 6 0 11-5 11-11 0-6-5-11-11-11z m88 182c-16 0-28-17-28-39 0-21 12-39 28-39 16 0 28 18 28 39 0 22-12 39-28 39z m0-63c-6 0-13 10-13 24 0 14 7 24 13 24 6 0 13-10 13-24 0-14-7-24-13-24z m229 165c-15 0-27-12-27-27 0-1 0-3 0-5l-101-46c-7-3-15-2-19 4l-59 68c2 4 4 9 4 14 0 15-12 27-27 27-15 0-27-12-27-27 0-5 2-10 4-14l-59-68c-4-6-12-7-19-4l-18 8c-3 2-8 0-10-4-1-3 0-8 4-10l18-8c13-6 28-2 36 8l60 68c3-2 7-3 11-3 4 0 8 1 11 3l60-68c8-10 23-14 36-8l102 47c2-2 5-4 7-6l-12-51c-7 0-13-3-19-8-6-6-11-14-13-23-3-10-3-20 0-28 2-7 7-13 13-16l-4-16-97 0c-4 0-7-3-7-7 0-4 3-8 7-8l95 0 0-16-358 0 0 16 218 0c5 0 8 4 8 8 0 4-3 7-8 7l-220 0-4 16c14 5 20 24 15 44-3 9-8 17-14 23-6 5-13 8-20 8l-12 51c2 2 5 4 7 6l42-19c3-2 8 0 10 4 1 3 0 8-4 9l-41 19c0 2 0 4 0 5 0 15-12 27-27 27-15 0-27-12-27-27 0-14 11-26 25-27l14-55c-3-3-6-7-7-12-3-8-3-17-1-27 4-15 14-26 25-30l6-23 0-140c0-7 5-12 12-12l364 0c7 0 12 5 12 12l0 140 6 23c4 1 8 3 12 7 7 5 11 14 14 23 3 10 2 19 0 27-2 6-5 10-8 13l13 54c14 1 25 13 25 27 0 15-12 27-27 27z m-229-4c-7 0-12 6-12 12 0 7 5 12 12 12 7 0 12-5 12-12 0-6-5-12-12-12z m-229-35c-7 0-12 5-12 12 0 7 5 12 12 12 7 0 12-5 12-12 0-7-5-12-12-12z m38-125c-6-1-15 6-19 20-2 7-2 13 0 19 1 2 3 6 6 7 1 1 2 1 2 1 3 0 6-3 8-4 4-4 8-10 9-16 4-14 0-25-6-27z m370-174l-358 0 0 16 358 0z m0 31l-358 0 0 68 358 0z m33 163c-2-7-6-13-10-16-2-2-6-5-9-4-4 1-6 6-7 8-2 5-2 12 0 19 2 6 5 12 9 16 2 1 5 4 8 4 1 0 1 0 2-1 4-1 6-5 7-7 1-6 1-12 0-19z m17 105c-7 0-12 5-12 12 0 7 5 12 12 12 7 0 12-5 12-12 0-7-5-12-12-12z"/>
<glyph glyph-name="component" unicode="&#112;" d="M273 60l-15 25 13 22c2 3 2 6 0 8-1 2-3 4-6 4l-28 0-13 21c-1 3-4 4-6 4-3 0-6-1-7-4l-13-21-28 0c-3 0-5-2-6-4-2-2-2-5 0-8l13-22-15-25c-1-2-1-5 0-7 1-3 4-4 6-4l29 0 14-23c1-3 4-4 7-4 2 0 5 1 6 4l14 23 29 0c2 0 5 1 6 4 1 2 1 5 0 7z m-21 44l-3-5-3 5z m-34 18l2-3-5 0z m-29-18l-3-5-3 5z m-7-40l3 6 4-6z m36-20l-3 5 5 0z m11 20l-23 0-12 20 12 20 23 0 12-20z m17 0l4 6 3-6z m205-21l-33 0c-3 0-6 3-6 6l0 2c0 3 3 6 6 6 12 0 21 9 21 21l0 3c0 12-9 21-21 21l-24 0c-4 10-13 18-25 18l-6 0c-3 16-14 30-29 36l20 24c13 6 22 20 22 35l0 26c0 22-18 40-39 40l-242 0c-22 0-40-18-40-40l0-26c0-14 8-27 20-34l20-25c-15-6-26-20-29-36l-6 0c-14 0-26-12-26-26 0-14 12-26 26-26l5 0 0-18c0-28 22-50 50-50l199 0c28 0 50 22 50 50l0 18 5 0c12 0 22 8 25 19l24 0c3 0 6-3 6-6l0-3c0-3-3-6-6-6-12 0-21-9-21-21l0-2c0-12 9-21 21-21l33 0c4 0 7 3 7 7 0 5-3 8-7 8z m-386 40l-5 0c-6 0-11 5-11 11 0 6 5 11 11 11l5 0z m30 183l242 0c12 0 23-10 24-22-7 5-15 8-24 8l-242 0c-10 0-18-3-25-8 1 12 12 22 25 22z m254-216c0-19-16-35-35-35l-199 0c-19 0-35 16-35 35l0 60c0 19 16 35 35 35l23 0c4 0 7 3 7 7 0 5-3 8-7 8l-27 0-13 16 45 0c4 0 7 3 7 7 0 5-3 8-7 8l-48 0c-12 0-22 8-24 19 6-5 15-8 24-8l174 0c4 0 7 3 7 7 0 5-3 8-7 8l-174 0c-9 0-16 4-20 10 4 6 12 10 20 10l242 0c7 0 15-4 19-10-4-6-11-10-19-10l-38 0c-4 0-8-3-8-8 0-4 4-7 8-7l38 0c8 0 17 3 23 8-2-11-12-19-23-19l-164 0c-5 0-8-3-8-8 0-4 3-7 8-7l158 0-13-16-26 0c-5 0-8-3-8-8 0-4 3-7 8-7l22 0c19 0 35-16 35-35z m20 33l-5 0 0 22 5 0c6 0 11-5 11-11 0-6-5-11-11-11z m-178 279c-21 0-37-16-37-37 0-20 16-36 37-36 20 0 36 16 36 36 0 21-16 37-36 37z m0-58c-12 0-22 10-22 21 0 12 10 22 22 22 11 0 21-10 21-22 0-11-10-21-21-21z m107 87c-15 0-26-11-26-26 0-14 11-25 26-25 14 0 25 11 25 25 0 15-11 26-25 26z m0-36c-6 0-11 5-11 10 0 6 5 11 11 11 5 0 10-5 10-11 0-5-5-10-10-10z m-26 157c-27 0-48-21-48-48 0-26 21-47 48-47 26 0 47 21 47 47 0 27-21 48-47 48z m0-80c-18 0-33 15-33 32 0 18 15 33 33 33 17 0 32-15 32-33 0-17-15-32-32-32z m-197-38c-5 0-8-3-8-8l0-8c0-4 3-7 8-7 4 0 7 3 7 7l0 8c0 5-3 8-7 8z m26-27l-8 0c-5 0-8-3-8-8 0-4 3-7 8-7l8 0c4 0 7 3 7 7 0 5-3 8-7 8z m-27-18c-5 0-8-3-8-8l0-8c0-4 3-7 8-7 4 0 7 3 7 7l0 8c0 5-3 8-7 8z m-18 19l-8 0c-5 0-8-3-8-8 0-4 3-7 8-7l8 0c4 0 7 3 7 7 0 5-3 8-7 8z m389-171c-5 0-8-3-8-8l0-8c0-4 3-7 8-7 4 0 7 3 7 7l0 8c0 5-3 8-7 8z m26-27l-8 0c-5 0-8-3-8-8 0-4 3-7 8-7l8 0c4 0 7 3 7 7 0 5-3 8-7 8z m-27-18c-5 0-8-3-8-8l0-8c0-4 3-7 8-7 4 0 7 3 7 7l0 8c0 5-3 8-7 8z m-18 19l-8 0c-5 0-8-3-8-8 0-4 3-7 8-7l8 0c4 0 7 3 7 7 0 5-3 8-7 8z"/>
<glyph glyph-name="helmet" unicode="&#113;" d="M400 175l0 107-47 11 0 34-89 15 0 76 7 15 5 10c53-9 92-55 92-109l0-34 15 0 0 34c0 61-45 113-104 124l-9 54-28 0-9-54c-59-11-104-63-104-124l0-34 15 0 0 34c0 54 39 100 92 109l12-25 0-76-89-15 0-34-47-11 0-107 144-72z m-152 279l7 43 2 0 7-43-8-17z m-73-140l81 14 82-14 0-17-82 20-81-20z m74-190l-122 60 0 86 122 30 0-28 15 0 0 28 121-30 0-86-121-60 0 137-15 0z m-71 267c-11-15-17-33-18-51l14-1c2 16 7 30 16 43z m172-33c-3 12-9 23-17 34l-12-9c7-9 11-19 14-29z m-65 52c5-2 9-4 13-6l7 13c-4 3-9 5-14 7z m30-20l11 10c-3 4-7 7-12 11l-9-12c4-3 7-6 10-9z m37-317c-11-7-23-13-35-17l5-14c13 5 26 11 38 18 5 3 9 7 14 10l-9 12c-5-3-9-6-13-9z m20 15l10-11c4 3 8 7 11 10l-10 11c-4-4-7-7-11-10z m38 19l-12 9c-3-4-6-8-9-11l11-10c4 4 7 8 10 12z m-249 12l-51-15-4 15 51 15z m16-72l7 13c-5 2-9 4-13 7l-8-13c5-3 10-5 14-7z m25-9l4 14c-5 1-9 3-14 5l-5-14c5-2 10-4 15-5z m25-6l2 15c-4 1-9 2-14 3l-3-15c5-1 10-2 15-3z m-11 248l15 0 0-125-15 0z m-35-98l15 0 0-15-15 0z m0 89l15 0 0-54-15 0z m0-64l15 0 0-15-15 0z m-35 56l15 0 0-78-15 0z m136 17l15 0 0-15-15 0z m0-25l15 0 0-15-15 0z m0-25l15 0 0-75-15 0z m34 41l15 0 0-104-15 0z m35-8l15 0 0-78-15 0z m30-106l-4-14 62-18c-35-65-102-107-176-110l0 75-15 0 0-75c-73 3-140 45-175 110l62 18-4 14-80-23 4-8c18-37 46-69 81-91 36-23 77-35 120-35 43 0 84 12 120 35 35 22 63 54 81 91l4 8z"/>
<glyph glyph-name="helping" unicode="&#114;" d="M395 235c-2 7-7 13-13 16-6 4-13 5-20 3-5-1-10-4-13-9-1 1-2 1-2 1-6 4-13 5-20 3-7-2-13-6-16-12-6 3-12 4-18 2-7-2-13-6-17-12l-24-43c-2-3-1-8 3-10 1-1 2-1 4-1 2 0 5 2 6 4l24 42c2 3 4 5 7 5 3 1 5 1 7 0l-33-58-54-15c-5-1-9 1-11 5 0 1-1 3-1 4 0 2 1 5 3 6l24 23c12 11 13 29 2 41-5 6-13 10-22 10-7 0-14-3-19-7l-47-42c-8-7-13-17-13-28l0-35c0-2 0-4-1-6l-6-14c-4 1-8 0-12-1-6-3-10-7-12-12l-13-34c-1-4 1-8 4-9 4-2 9 0 10 4l13 33c1 2 2 3 3 4 2 1 4 1 5 0l96-40c0 0 1 0 1 0 0 0 0 0 0 0l1 0c3-2 4-5 3-9l-13-34c-2-4 0-8 4-10 4-1 8 1 10 5l13 34c3 9 1 18-6 24l9 21c1 4 4 6 7 8l30 15c4 2 5 7 3 10-2 4-6 5-10 4l-29-15c-7-4-12-9-15-16l-8-20-80 33 6 13c2 4 2 8 2 12l0 35c0 6 3 13 8 17l47 41c3 3 6 4 9 4 4 0 8-2 11-5 5-6 5-15-1-20 0 0 0 0 0 0l-24-23c-5-4-8-11-8-17 0-3 1-7 2-10 5-11 17-16 29-13l84 23c9 2 16 7 21 15l34 59c2 3 4 5 7 6 3 0 6 0 9-2 2-1 4-4 5-7 1-3 1-6-1-8l-36-63c-1-2-4-5-7-6l-38-20c-4-2-5-6-3-10 2-3 6-5 10-3l38 19c6 3 10 8 13 13l36 62c4 6 5 13 3 20z m-83-52c-2-4-6-7-11-8 0 0 0 0-1 0l-10-3 34 57c1 3 4 5 7 6 3 0 6 0 8-1 1-1 1-1 2-1z m108 277c-4 2-9 0-10-4l-13-33c-1-2-2-3-3-4-2-1-4-1-5 0l-4 1c0 0 0 0 0 0 0 0 0 0 0 1l-94 38c-3 2-4 5-3 9l13 34c2 4 0 8-4 9-4 2-8 0-10-4l-13-34c-3-9-1-18 6-24l-9-21c-1-4-4-6-7-8l-33-17c-4-2-6-6-4-10 2-3 4-4 7-4 1 0 2 0 3 1l33 16c7 4 12 9 15 16l8 20 79-33-5-13c-2-4-2-8-2-12l0-35c0-6-3-13-8-17l-47-41c-3-3-6-4-9-4-4 0-8 2-11 5-5 6-5 15 1 20 0 0 0 0 0 0l24 23c5 4 8 11 8 17 0 3-1 7-2 10-5 11-17 16-29 13l-84-23c-9-2-16-7-21-15l-34-59c-2-3-4-5-7-6-3 0-6 0-9 2-2 1-4 4-5 7-1 3-1 6 1 8l36 63c1 2 4 5 7 6l35 18c3 2 5 6 3 10-2 4-6 5-10 3l-35-17c-6-3-10-8-13-13l-36-62c-4-6-5-13-3-20 2-7 7-13 13-16 4-3 8-4 13-4 2 0 5 0 7 1 5 1 10 4 13 9 1-1 2-1 2-1 4-3 9-4 13-4 3 0 5 0 7 1 7 2 13 6 16 12 4-2 8-3 12-3 2 0 4 0 6 1 7 2 13 6 17 12l25 44c2 4 1 8-3 10-4 2-8 1-10-2l-25-44c-2-3-4-5-7-5-3-1-5-1-7 0l33 58 54 15c5 1 9-1 11-5 0-1 1-3 1-4 0-2-1-5-3-6l-24-23c-12-11-13-29-2-41 5-6 13-10 22-10 7 0 14 3 19 7l47 42c8 7 13 17 13 28l0 35c0 2 0 4 1 6l5 14c2 0 3 0 5 0 3 0 6 0 8 1 6 3 10 7 12 12l13 34c1 4-1 8-4 9z m-232-177c-1-3-4-5-7-6-3 0-6 0-8 1-1 1-1 1-2 1l29 50c2 4 7 7 11 8 0 0 0 0 1 0l10 3z"/>
<glyph glyph-name="sword" unicode="&#115;" d="M436 81l-41 50c0 1 0 1 0 2 1 2 1 4 1 5l20 17c2 2 4 5 4 8 1 3 0 7-2 9l-22 26c-4 5-12 6-17 2l-13-11-51 63 38 47c3 3 2 8-1 10-3 3-8 2-11-1l-132-162c-1 8-5 16-11 23l252 310-5-43-74-91c-3-3-2-8 1-11 3-2 8-2 11 1l74 92c2 2 3 4 3 6l9 70c0 3-1 5-3 7 0 0 0 0 0 0 0 0 0 0 0 0 0 0-1 1-1 1 0 0 0 0 0 0-2 1-4 1-6 1l-67-23c-2-1-4-2-6-4l-130-160-73 90c-3 3-8 4-11 1-3-2-4-7-1-10l75-93-15-18-158 194 42-14 26-32c3-4 7-4 11-2 3 3 3 8 1 11l-27 33c-2 2-4 3-6 4l-67 23c-2 0-4 0-6-1 0 0 0 0 0 0 0 0-1-1-1-1 0 0 0 0 0 0 0 0 0 0 0 0-2-2-3-4-2-7l8-70c0-2 1-4 3-6l142-175-51-63-13 11c-5 4-13 3-17-2l-22-26c-2-2-3-6-2-9 0-3 2-6 4-8l20-17c0-1 0-3 1-5 0-1 0-1 0-2l-41-50c-9-2-17-7-23-15-15-17-12-43 6-57 7-6 16-9 25-9 2 0 3 0 4 0 11 1 21 7 28 15 6 7 9 16 9 26l41 50c2 0 5 1 7 1l20-16c2-2 5-3 8-3 0 0 1 0 1 0 4 0 7 2 9 5l21 26c2 2 3 5 2 9 0 3-2 6-4 8l-13 11 39 47 39-47-13-11c-2-2-4-5-4-8-1-4 0-7 2-9l21-26c2-3 5-5 9-5 0 0 1 0 1 0 3 0 6 1 8 3l20 16c2 0 5-1 7-1l41-50c0-10 3-19 9-26 7-8 17-14 28-15 1 0 2 0 4 0 9 0 18 3 25 9 18 14 21 40 6 57-6 8-14 13-23 15z m-369 355l-5 43 160-196-15-19z m330 39l42 14-253-311c-7 5-16 7-25 7z m-289-310l18 22 11-10c-4-3-7-6-10-10-3-3-6-8-7-12z m-4-140c-9-12-25-13-36-4-11 9-13 25-4 36 5 6 13 10 20 10 6 0 12-2 16-6 6-5 9-11 10-18 1-6-1-13-6-18z m17 34c-3 5-7 10-11 13-5 4-10 7-15 8l28 35c2-5 6-10 11-13 4-4 9-7 15-9z m45 47c-8-1-16 2-23 7-7 6-11 13-11 22-1 8 1 16 6 23 6 6 13 11 22 11 1 1 2 1 3 1 7 0 14-3 20-8 7-5 11-12 12-21 1-8-2-17-7-23-6-7-13-11-22-12z m52 5l-17-22-12 10c4 2 7 6 10 9 3 4 6 8 8 13z m168 76l18-22-12-10c-1 4-4 9-7 12-3 4-6 7-10 10z m-81 53l46-55c-9 0-18-2-25-7l-36 44z m-39-49l15 19 33-41c-6-7-10-15-11-23z m45-102l-17 22 11 10c2-5 5-9 8-13 3-3 6-7 10-9z m35 17c-9 1-16 5-22 12-5 6-8 15-7 23 1 9 5 16 12 21 6 5 13 8 20 8 1 0 2 0 3-1 9 0 16-5 22-11 5-7 7-15 6-23 0-9-4-16-11-22-7-5-15-8-23-7z m45-47l-28 34c6 2 11 5 15 9 5 3 9 8 11 13l28-35c-5-1-10-4-15-8-4-3-8-8-11-13z m53-38c-11-9-27-8-36 4-5 5-7 12-6 18 1 7 4 13 10 18 4 4 10 6 16 6 7 0 15-4 20-10 9-11 7-27-4-36z"/>
<glyph glyph-name="money" unicode="&#116;" d="M316 394l1 0c0 0-1 2-1 0z m-144 0l0 0c0 2 0 0 0 0z m288-36c-3 5-8 9-14 10l-33 8 15 4c13 3 20 16 17 29-4 12-17 20-29 16l-70-19c-2 3-5 6-8 8 14 26 35 71 35 90 0 5-5 9-9 8-28-6-54-8-79-8-26 0-59 3-79 8-7 1-12-6-8-11 4-9 8-18 9-26-25-1-52 2-72 12-6 3-12-2-11-8 6-38 19-60 32-77l0 0c-13 0-24-11-24-24 0-12 9-22 21-23-9-14-21-28-34-42-27-30-57-64-68-119-4-26-4-51 1-73 5-20 14-39 28-55 18-22 42-39 73-50 27-11 59-16 91-16 32 0 64 5 92 16 30 11 55 28 73 50 13 16 23 35 28 55 5 22 5 47 0 73-10 55-41 89-68 119-9 10-18 20-25 30l91-21c10-2 20 2 25 10 5 8 5 18 0 26z m-176 131c24 0 47 2 72 6-4-19-19-52-33-77-10-1-18-7-21-16l-21 0c0 1-1 2-1 3-7 14-20 43-20 67 0 5-5 9-9 8-9-2-19-4-29-4-1 6-2 12-5 18 21-3 46-5 67-5z m49-95l0-32c0-5-3-8-8-8-5 0-9 3-9 8l0 32c0 5 4 9 9 9 5 0 8-4 8-9z m-191 74c19-7 42-9 67-9l15 1c7 1 14 2 21 3 3-23 13-47 20-61l-90 0c0 0 0 0 0 1-13 15-26 32-33 65z m216-165c26-28 55-61 64-111 9-47 1-86-25-117-31-37-88-60-153-60-64 0-121 23-153 60-25 31-33 70-25 117 10 50 39 83 65 111 15 17 29 33 39 52l18 0c4 0 8 3 8 7 0 4-4 8-8 8l-32 0c-5 0-9 4-9 8 0 5 4 9 9 9l145 0 0-17-77 0c-4 0-7-4-7-8 0-4 3-7 7-7l78 0c4-10 12-17 23-17 1 0 2 1 3 1 9-12 19-24 30-36z m-9 88l71 20c4 1 9-2 10-6 1-5-1-9-6-11l-40-11c-1 0-1 0-1 0l-34 7z m100-48c-1-5-6-7-10-6l-91 20c0 2 1 4 1 5l0 13 93-22c5-1 8-5 7-10z m-156-142c10 0 19 9 19 20l0 12c0 28-21 52-48 56l0 13c0 11-9 19-20 19-11 0-19-8-19-19l0-14c-28-7-49-32-49-61 0-34 28-62 62-62l12 0c13 0 23-10 23-22 0-13-10-23-23-23l-18 0c-9 0-16 7-16 16 0 11-9 20-20 20-11 0-20-9-20-20 0-28 21-51 49-55l0-13c0-11 8-20 19-20 11 0 20 9 20 20l0 14c28 6 48 31 48 61 0 34-28 61-62 61l-12 0c-12 0-22 11-22 23 0 13 10 23 22 23l18 0c10 0 17-8 17-17l0-12c0-11 9-20 20-20z m-37 64l-18 0c-21 0-38-17-38-38 0-21 17-38 38-38l12 0c26 0 47-21 47-46 0-24-18-44-41-47-4 0-7-4-7-8l0-20c0-3-2-5-5-5-2 0-4 2-4 5l0 20c0 4-4 8-8 8-22 0-41 18-41 40 0 3 2 5 5 5 2 0 4-2 4-5 0-17 15-31 32-31l18 0c21 0 38 17 38 38 0 20-17 37-38 37l-12 0c-26 0-47 21-47 47 0 24 18 44 42 47 4 0 7 3 7 7l0 21c0 2 2 4 4 4 3 0 5-2 5-4l0-20c0-5 3-8 7-8 23 0 41-18 41-41l0-12c0-2-2-4-4-4-3 0-5 2-5 4l0 12c0 18-14 32-32 32z"/>
<glyph glyph-name="distance" unicode="&#117;" d="M120 133c3 0 6 1 8 4 0 0 28 36 55 80 37 59 56 102 56 129 0 66-53 120-119 120-66 0-120-54-120-120 0-27 19-70 56-129 28-44 55-80 55-80 2-3 5-4 9-4z m-100 213c0 55 45 100 100 100 54 0 99-45 99-100 0-43-66-140-99-186-34 46-100 143-100 186z m171 0c0 40-32 72-71 72-40 0-72-32-72-72 0-39 32-71 72-71 39 0 71 32 71 71z m-123 0c0 29 23 52 52 52 28 0 51-23 51-52 0-28-23-51-51-51-29 0-52 23-52 51z m62 31c0 6-5 10-10 10-23 0-42-18-42-41 0-5 5-10 11-10 5 0 10 5 10 10 0 12 9 21 21 21 5 0 10 5 10 10z m262 89c-66 0-119-54-119-120 0-27 19-70 56-129 27-44 55-80 55-80 2-3 5-4 8-4 4 0 7 1 9 4 0 0 27 36 55 80 37 59 56 102 56 129 0 66-54 120-120 120z m0-306c-33 46-99 143-99 186 0 55 45 100 99 100 55 0 100-45 100-100 0-43-66-140-100-186z m0 258c-39 0-71-32-71-72 0-39 32-71 71-71 40 0 72 32 72 71 0 40-32 72-72 72z m0-123c-28 0-51 23-51 51 0 29 23 52 51 52 29 0 52-23 52-52 0-28-23-51-52-51z m0-180c-19 0-35-15-35-34 0-19 16-35 35-35 19 0 34 16 34 35 0 19-15 34-34 34z m0-49c-8 0-14 7-14 15 0 8 6 14 14 14 8 0 14-6 14-14 0-8-6-15-14-15z m-62 25l-28 0c-6 0-10-5-10-10 0-6 4-10 10-10l28 0c5 0 10 4 10 10 0 5-5 10-10 10z m-64 0l-113 0c-5 14-18 24-34 24-19 0-34-15-34-34 0-19 15-35 34-35 16 0 29 10 34 25l113 0c6 0 11 4 11 10 0 5-5 10-11 10z m-147-25c-7 0-14 7-14 15 0 8 7 14 14 14 8 0 15-6 15-14 0-8-7-15-15-15z"/>
<glyph glyph-name="bow" unicode="&#118;" d="M339 230c3 20 1 40 0 51 8 2 13 9 13 17l0 6c0 10-8 18-18 18-2 9-5 18-9 25-9 15-23 22-36 30-9 4-17 9-24 15-12 11-17 23-17 41 0 0 0 2 0 6 7 2 12 9 12 17l0 6c0 8-5 15-12 17 0 3 0 6 0 7 0 7-3 13-8 18-5 5-11 8-18 8l-1 0c-14 0-25-11-26-25 0-2 0-5 0-9-5-3-9-9-9-16l0-6c0-1 0-2 1-3-1 0-1 0-1-1 0-1-24-107-26-189 0 0 0 0 0 0l0-19c0 0 0 0 0-1 3-80 26-182 26-183 0-1 0-1 1-1-1-1-1-2-1-3l0-6c0-7 4-13 9-16 0-4 0-7 0-9 1-14 12-25 26-25l1 0c7 0 13 3 18 8 5 5 8 11 8 18 0 1 0 4 0 7 7 2 12 9 12 17l0 6c0 8-5 15-12 17 0 5 0 8 0 8 0 5 0 10 2 15 1 4-2 8-6 9-4 1-8-1-9-6-1-5-2-11-2-18 0 0 0-3 0-7l-23 0c0 3 0 5 0 6 1 18 4 31 9 42 8 15 17 22 32 31 1 0 3 1 5 2 15 8 33 18 42 34l20 0c-1-5-3-10-6-15-7-11-18-17-31-24-5-3-10-6-16-9-3-3-4-7-2-11 2-2 4-3 6-3 2 0 3 0 5 1 4 3 9 6 15 9 13 7 27 15 36 30 4 6 7 14 9 22l0 0c10 0 18 8 18 18l0 6c0 8-5 15-13 17z m-129 256c0 6 5 11 11 11l1 0c3 0 5-1 8-3 2-2 3-5 3-8 0-1 0-3 0-6l-23 0c0 3 0 5 0 6z m-9-24c0 2 2 3 3 3l39 0c1 0 2-1 2-3l0-6c0-2-1-3-2-3l-39 0c-1 0-3 1-3 3z m29-444c-3-2-5-3-8-3l-1 0c-6 0-11 5-11 11 0 1 0 3 0 6l23 0c0-3 0-5 0-6 0-3-1-6-3-8z m13 41c1 0 2-1 2-3l0-6c0-2-1-3-2-3l-39 0c-1 0-3 1-3 3l0 6c0 2 2 3 3 3z m41 171c-8-2-13-9-13-17l0-6c0-7 4-13 10-16-10-12-24-18-37-25-17-10-29-19-38-37-5-11-9-23-10-39-7 36-19 100-21 154l0 19c2 55 13 123 21 160 0-7 1-13 3-18 1-4 5-7 9-6 4 1 6 5 5 9-1 8-3 16-3 26 0 1 0 2 0 4l23 0c0-3 0-5 0-5 0-22 7-38 22-52 5-4 10-8 15-11 15-9 33-15 42-31 3-5 5-11 7-17 0 0-20 0-20 0 0 0-8 12-9 13-4 4-8 8-13 11-8 6-17 10-26 15-8 4-13 8-17 12-3 2-8 2-11-1-2-3-2-8 1-11 8-6 16-11 25-16 12-7 26-14 33-24-7-3-11-9-11-17l0-6c0-8 5-15 13-17-1-11-3-31 0-51z m53-23c0-2-1-3-3-3l-45 0c-2 0-3 1-3 3l0 6c0 2 1 3 3 3l45 0c2 0 3-1 3-3z m-38 73l25 0c1-10 3-30 0-49l-25 0c-3 19-1 39 0 49z m35 15l-4 0c0 0 0 0 0 0l-37 0c0 0 0 0 0 0l-4 0c-2 0-3 2-3 3l0 6c0 2 1 3 3 3l45 0c2 0 3-1 3-3l0-6c0-1-1-3-3-3z"/>
<glyph glyph-name="box" unicode="&#119;" d="M492 399l-233 112c-2 1-4 1-6 0l-233-112c-2-1-4-4-4-7l0-272c0-3 2-6 4-7l233-112c1-1 2-1 3-1 1 0 2 0 3 1l233 112c2 1 4 4 4 7l0 272c0 3-2 6-4 7z m-236 97l215-104-62-30c-1 0-1 1-1 1l-214 103z m-79-38l215-104-44-21-215 103z m220-118l0-79-41-20 0 79z m84-216l-217-105 0 256 51 25c4 2 6 7 4 10-2 4-6 6-10 4l-53-26-21 10c-4 2-8 1-10-3-2-4 0-8 4-10l20-10 0-256-218 105 0 256 166-80c1 0 2 0 3 0 3 0 5 1 7 4 1 4 0 8-4 10l-162 78 74 36 226-109c0 0 0 0 0 0l0-90c0-2 1-5 3-6 1-1 3-1 4-1 1 0 2 0 3 1l57 27c2 1 4 4 4 6l0 91 69 33z m-388 30l-34 16c-4 2-8 0-10-4-2-3 0-8 3-10l34-16c1 0 3-1 4-1 2 0 5 2 6 5 2 3 1 8-3 10z m31 20l-65 32c-4 1-8 0-10-4-2-4 0-8 3-10l66-32c1 0 2 0 3 0 3 0 6 1 7 4 2 4 0 8-4 10z"/>
<glyph glyph-name="dumbbell" unicode="&#120;" d="M492 290l-12 0 0 44c0 17-14 30-31 30l-12 0c-4 0-8 0-11-2-2 15-15 27-31 27l-40 0c-17 0-31-14-31-31l0-68-136 0 0 68c0 17-14 31-31 31l-40 0c-16 0-29-12-31-27-3 2-7 2-11 2l-12 0c-17 0-31-13-31-30l0-44-12 0c-11 0-20-9-20-20l0-28c0-11 9-20 20-20l12 0 0-44c0-17 14-30 31-30l12 0c4 0 8 0 11 2 2-15 15-27 31-27l40 0c17 0 31 14 31 31l0 68 136 0 0-68c0-17 14-31 31-31l40 0c16 0 29 12 31 27 3-2 7-2 11-2l12 0c17 0 31 13 31 30l0 44 12 0c11 0 20 9 20 20l0 28c0 11-9 20-20 20z m-460-48l-12 0 0 28 12 0z m54-64c0-6-5-10-11-10l-12 0c-6 0-11 4-11 10l0 156c0 6 5 10 11 10l12 0c6 0 11-4 11-10z m82-24c0-6-5-11-11-11l-19 0 0 82c0 5-4 10-10 10-6 0-10-5-10-10l0-82-1 0c-6 0-11 5-11 11l0 204c0 6 5 11 11 11l40 0c6 0 11-5 11-11z m156 88l-136 0 0 28 136 0z m82 92l0-180c0-6-5-11-11-11l-40 0c-6 0-11 5-11 11l0 204c0 6 5 11 11 11l19 0 0-82c0-5 4-10 10-10 6 0 10 5 10 10l0 82 1 0c6 0 11-5 11-11z m54-54l0-102c0-6-5-10-11-10l-12 0c-6 0-11 4-11 10l0 156c0 6 5 10 11 10l12 0c6 0 11-4 11-10z m32-38l-12 0 0 28 12 0z m-101 15c-2 2-4 3-7 3-3 0-5-1-7-3-2-2-3-5-3-7 0-3 1-5 3-7 2-2 4-3 7-3 3 0 5 1 7 3 2 2 3 4 3 7 0 2-1 5-3 7z m-256 12c-2 2-4 3-7 3-3 0-5-1-7-3-2-2-3-4-3-7 0-2 1-5 3-7 2-2 4-3 7-3 3 0 5 1 7 3 2 2 3 5 3 7 0 3-1 5-3 7z"/>
<glyph glyph-name="ninja" unicode="&#121;" d="M260 302c-7 0-13-6-13-13 0-7 6-12 13-12 7 0 12 5 12 12 0 7-5 13-12 13z m-100 0c-7 0-13-6-13-13 0-7 6-12 13-12 7 0 12 5 12 12 0 7-5 13-12 13z m18 160c-2 5-8 7-13 5l-1 0c-5-3-7-9-4-14 1-3 5-5 9-5 1 0 3 0 4 1l0 0c5 2 7 8 5 13z m-25-13c-4 4-10 4-14 0-9-8-16-17-22-28-2-5 0-11 4-13 2-1 3-1 5-1 4 0 7 2 9 5 4 8 10 16 17 22 4 4 5 10 1 15z m356-130l0-1c0 0 0 1 0 1z m-60 35l0 0z m60-36c0 0 0 0 0 0z m0 0c0 0 0 0 0 0l0 0c0 0 0 0 0 0l0 1c3 4 4 10 2 15-1 5-4 9-9 12l-26 15c-9 5-22 2-27-7l-66-114c-4 3-9 4-13 4-10 0-19-5-24-14-8-13-3-30 10-37l-12-21c-8 6-17 12-26 18 12 18 20 39 22 62l0 0c22 0 40 18 40 40 0 19-13 34-30 39l0 41c0 77-63 140-140 140-77 0-140-63-140-140l0-41c-17-5-30-20-30-39 0-22 18-40 40-40l0 0c2-23 10-44 22-62-63-38-102-106-102-180 0-6 4-10 10-10l395 0c0 0 0 0-1 0 1 0 1 0 1 0l5 0c6 0 10 4 10 10 0 38-10 74-28 105l24 43 0 0c5-3 9-4 14-4 10 0 19 5 24 14 4 6 5 14 3 21-2 7-7 13-13 16l62 109c-4-8-11-20-11-20l14 24c0 0 0 0 0 0z m-423-46l-6 0c-11 0-20 9-20 20 0 11 9 20 20 20 6 0 10 4 10 10l0 50c0 66 54 120 120 120 66 0 120-54 120-120l0-50c0-6 4-10 10-10 11 0 20-9 20-20 0-11-9-20-20-20l-6 0c1 4 2 8 2 12 0 17-14 32-40 43-23 10-54 15-86 15-32 0-63-5-86-15-26-11-40-26-40-43 0-4 1-8 2-12z m230 12c0-9-11-18-28-26-21-8-48-13-78-13-30 0-57 5-78 13-18 8-28 17-28 26 0 8 10 18 28 25 21 9 48 13 78 13 30 0 57-4 78-13 17-7 28-17 28-25z m-216-30c7-5 15-10 24-14 23-10 54-15 86-15 32 0 63 5 86 15 9 4 17 9 24 14-2-23-10-43-24-60 0-1-1-1-1-2-5-6-11-11-17-16 0-1-1-1-1-2-19-14-42-22-67-22-25 0-48 8-67 22 0 1-1 1-1 2-6 5-12 10-17 16 0 1-1 1-1 2-14 17-22 37-24 60z m-20-234l0 44c0 6-4 10-10 10-6 0-10-4-10-10l0-44-40 0c3 55 30 105 72 139l1-3c11-39 35-94 68-136z m107 0c-36 41-64 100-75 141l-2 10c1 1 3 2 4 3 5-5 9-9 14-13 11-40 42-103 81-141l-22 0z m-32 124c16-8 35-12 55-12 20 0 39 4 55 12-12-31-32-68-55-96-23 28-43 65-55 96z m80-120c-4 3-8 6-11 10 33 37 58 91 68 127 5 4 9 9 14 13 1-1 3-2 4-3l-2-10c-13-45-40-98-70-134-1-1-2-2-3-3z m165-4l-40 0 0 44c0 6-4 10-10 10-6 0-10-4-10-10l0-44-82 0c30 38 57 90 69 136l1 3c4-3 7-6 11-9 0-1 1-1 1-2 12-11 22-24 31-37 0-1 1-2 1-2 16-27 26-57 28-89z m-20 114c-7 8-14 16-21 24l14 25 26-15z m57 44c-2-2-4-4-7-4-1 0-2 0-4 1l-8 5c0 0 0 0 0 0 0 0 0 0 0 0l-43 25c0 0 0 0 0 0 0 0-1 0-1 0l-8 5c-4 2-5 7-3 10 1 3 4 4 7 4 1 0 2 0 3-1l52-30c0 0 0 0 0 0 0 0 0 0 0 0l9-5c2-1 3-3 3-5 1-1 1-3 0-5z m-10 37l-26 15 39 8z m-13 38l20 35 12-29z m47 22l-14 35 0 0 26-15z m31 54l-9-16-26 15 9 16c0 0 0 0 0 0l26-15c0 0 0 0 0 0z m15-14l1 2c0-1 0-1-1-2z"/>
<glyph glyph-name="paper" unicode="&#122;" d="M166 329c0 0-1 1-1 2 0 0 0 1-1 1 0 1-1 1-1 2 0 0-1 1-2 1 0 0-1 1-1 1-1 0-1 0-2 1-1 0-3 0-4 0-1-1-1-1-2-1-1 0-1-1-2-1 0 0-1-1-1-1-1-1-1-1-1-2-1 0-1-1-1-1-1-1-1-2-1-2 0-1 0-2 0-2 0-1 0-2 0-2 0-1 0-2 1-2 0-1 0-1 1-2 0 0 0-1 1-1 0-1 1-1 1-2 1 0 1 0 2-1 1 0 1 0 2 0 1 0 1 0 2 0 1 0 1 0 2 0 1 0 1 0 2 0 0 1 1 1 1 1 1 1 2 1 2 2 0 0 1 1 1 1 1 1 1 1 1 2 0 0 1 1 1 2 0 0 0 1 0 2 0 0 0 1 0 2z m131 8l-101 0c-6 0-10-5-10-10 0-6 4-10 10-10l101 0c5 0 10 4 10 10 0 5-5 10-10 10z m68-233l-149 0c-6 0-10-5-10-10 0-6 4-10 10-10l149 0c6 0 10 4 10 10 0 5-4 10-10 10z m-209 134c-17 0-30-13-30-30 0-17 13-30 30-30 17 0 30 13 30 30 0 17-13 30-30 30z m0-40c-6 0-10 4-10 10 0 6 4 10 10 10 6 0 10-4 10-10 0-6-4-10-10-10z m125 78l-147 0c-6 0-10-4-10-10 0-5 4-10 10-10l147 0c6 0 10 5 10 10 0 6-4 10-10 10z m80-38c3 0 5 0 8 0 11 0 22 4 31 12l99 100c13 12 16 31 10 47l-8 19c-1 2-3 4-6 5l-18 8c-17 7-35 3-47-9l-69-69 0 67c0 9-2 17-6 24-9 16-26 26-44 26l-255 0c-1 0-1 0-1 0 0 0 0 0-1 0 0 0-4 0-4 0-28 0-50-22-50-49l0-65c0-6 4-10 10-10l76 0 0-249c0-27 22-50 49-51 0 0 1 0 1 0l243 0c24 0 45 17 49 40 1 3 1 7 1 10 0 27-22 50-50 50l-18 0z m83 168c6 6 16 8 25 5l15-7 6-15c4-8 2-18-5-25l-38-38-27 0 26 26c4 4 4 11 0 14-4 4-10 4-14 0l-92-92-2 11c-2 8 1 15 6 21z m-358-42l-66 0 0 55c0 16 13 29 30 29 0 0 4 0 4 0l0 0c1 0 1 0 1 0 0 0 0 0 1 0 11 0 21-6 26-15 2-5 4-10 4-15z m14 78c-2 2-3 4-4 6l215 0c11 0 21-6 26-15 3-5 4-10 4-15l0-14-235 0 0 14c0 9-2 17-6 24z m37-378c-17 0-31 14-31 31l0 289 235 0 0-53-11-11c-10-10-15-24-12-39l5-24-39-39-68 0c-6 0-10-4-10-10 0-5 4-10 10-10l69 0c1 0 1 0 2 0 0 0 0 0 1 0 2 0 5 1 7 3l42 42 4-1 0-98-205 0c-5 0-10-5-10-10 0-6 5-10 10-10 17 0 30-14 30-30 0-17-13-30-29-30z m242 60c16 0 30-14 30-30 0-2 0-4-1-6-2-14-15-24-29-24l-203 0c6 8 10 18 10 30 0 11-4 22-10 30z m-25 136l46 46 27 0-42-42c-5-5-13-7-20-6z"/>
<glyph glyph-name="dust" unicode="&#65;" d="M151 392c-4 0-7-3-7-7l0-20c0-4 3-8 7-8 5 0 8 4 8 8l0 20c0 4-3 7-8 7z m0-53c-4 0-7-3-7-8l0-19c0-5 3-8 7-8 5 0 8 3 8 8l0 19c0 5-3 8-8 8z m37 17l-20 0c-4 0-8-4-8-8 0-4 4-8 8-8l20 0c4 0 7 4 7 8 0 4-3 8-7 8z m-53 0l-20 0c-4 0-8-4-8-8 0-4 4-8 8-8l20 0c4 0 7 4 7 8 0 4-3 8-7 8z m-86-249c-5 0-8-4-8-8l0-19c0-5 3-8 8-8 4 0 7 3 7 8l0 19c0 4-3 8-7 8z m0-53c-5 0-8-4-8-8l0-20c0-4 3-7 8-7 4 0 7 3 7 7l0 20c0 4-3 8-7 8z m36 16l-20 0c-4 0-7-3-7-7 0-4 3-8 7-8l20 0c4 0 8 4 8 8 0 4-4 7-8 7z m-53 0l-20 0c-4 0-8-3-8-7 0-4 4-8 8-8l20 0c4 0 7 4 7 8 0 4-3 7-7 7z m231 55l-16 4c-13 2-23 12-25 25l-4 16c-1 7-7 12-14 12-7 0-13-5-14-12l-4-16c-2-13-12-23-25-25l-16-4c-7-1-12-7-12-14 0-7 5-13 12-14l16-4c13-2 23-12 25-25l4-16c1-7 7-12 14-12 7 0 13 5 14 12l4 16c2 13 12 23 25 25l16 4c7 1 12 7 12 14 0 7-5 13-12 14z m-19-17c-19-3-33-18-37-37l-3-13-3 13c-4 19-18 34-37 37l-13 3 13 3c19 4 33 18 37 37l3 14 3-14c4-19 18-33 37-37l13-3z m-89 120l-19 4c-16 3-29 16-32 32l-4 19c-2 8-8 13-16 13-8 0-14-5-16-13l-4-19c-3-16-15-29-32-32l-19-4c-8-2-13-8-13-16 0-8 5-14 13-16l19-4c17-3 29-16 32-32l4-19c2-8 8-13 16-13 8 0 14 5 16 13l4 19c3 16 16 29 32 32l19 4c8 2 13 8 13 16 0 8-5 14-13 16z m-3-17l-19-4c-22-4-39-22-44-44l-4-19c0-1 0-1-1-1-1 0-1 0-1 1l-4 19c-4 22-21 40-44 44l-19 4c0 0-1 0-1 1 0 1 1 1 1 1l19 4c23 4 40 22 44 44l4 19c0 0 0 1 1 1 1 0 1-1 1-1l4-19c5-22 22-40 44-44l19-4c1 0 1 0 1-1 0-1 0-1-1-1z m353 206c-4 1-8-2-8-7-3-27-15-52-34-71l-97-97c-5-5-13-5-18 0-5 5-5 13 0 18l62 62c2 1 2 3 2 5 0 2 0 4-2 6-3 3-8 3-10 0l-92-92c-2-2-5-3-9-3-3 0-6 1-9 3-2 3-3 6-3 9 0 4 1 7 3 9l86 86c3 2 3 7 0 10-3 3-8 3-11 0l-108-107c-2-3-5-4-8-4-4 0-7 1-9 4-5 5-5 13 0 17l18 18c0 0 0 0 0 0l94 95c1 1 2 3 2 5 0 2-1 4-2 5-3 3-8 3-11 0l-94-94c-5-5-13-5-18 0-5 5-5 13 0 18l118 118c14-28 42-44 72-44 10 0 20 1 30 5 3 2 5 6 4 10-2 4-6 6-10 4-34-13-73 4-86 38 0 2-1 3-2 4-2 2-4 3-6 3l-56 0c-8 0-14 6-14 14 0 8 6 14 14 14 0 0 0 0 0 0l133 0c0 0 0 0 0 0 4 0 8 3 8 8 0 4-4 7-8 7l-133 0c0 0 0 0 0 0-16 0-30-13-30-29 0-16 13-29 30-29l37 0-112-112c-10-11-10-29 0-40 4-3 7-5 11-6l0-1c-5-5-8-12-8-19 0-8 3-15 8-20 5-5 12-8 20-8 7 0 14 3 19 8l5 5c1-4 4-8 7-11 5-6 12-8 19-8 7 0 15 2 20 8l11 11c2-4 4-8 7-11 11-11 29-11 39 0l98 97c21 22 35 50 38 81 0 4-3 8-7 8z m-253-239c-3-2-4-7-2-10 4-6 13-3 14 3 1 7-7 11-12 7z m-113-128c-1 3-4 5-7 5-3 0-6-2-7-5-1-3-1-6 2-8 2-3 6-3 9-1 3 2 4 6 3 9z m54 209c-5 4-13-1-11-8 1-3 3-6 7-6 3 0 6 2 7 5 2 3 0 7-3 9z m-50-86c-2 3-5 4-8 4-4-1-6-4-6-7-1-7 7-11 12-6 3 2 4 6 2 9z"/>
<glyph glyph-name="brain" unicode="&#66;" d="M306 429c-6 0-10-4-10-10 0-6 4-10 10-10 6 0 10 4 10 10 0 6-4 10-10 10z m-100 0c-6 0-10-4-10-10 0-6 4-10 10-10 6 0 10 4 10 10 0 6-4 10-10 10z m267-216c9 13 13 29 13 43 0 21-9 41-25 54 3 8 5 17 5 26 0 28-16 54-40 66 3 30-17 58-46 65-11 27-37 45-64 45-25 0-48-15-60-36-12 21-35 36-60 36-27 0-53-18-64-45-30-7-49-35-46-65-24-12-40-38-40-66 0-9 2-18 5-26-16-13-25-33-25-54 0-14 4-30 13-43-8-12-13-26-13-40 0-19 8-36 21-50-7-41 26-83 69-83 0 0 1 0 1 0 14-25 41-40 69-40 30 0 56 18 70 43 14-25 40-43 70-43 28 0 55 15 69 40 0 0 1 0 1 0 38 0 70 33 70 73 0 3 0 7-1 10 13 14 21 31 21 50 0 14-5 28-13 40z m-227 148c-6 3-13 5-20 5-6 0-10-4-10-10 0-6 4-10 10-10 11 0 20-9 20-20l0-190c-15 16-36 27-60 27-6 0-10-4-10-10 0-6 4-10 10-10 33 0 60-27 60-60 0-34-27-63-60-63-23 0-44 14-54 35-2 4-6 6-10 6-1 0-2-1-3-1-28-4-60 29-51 65 0 3-1 7-4 10-11 9-18 23-18 38 0 9 3 18 7 26 12-10 27-16 43-16 6 0 10 4 10 10 0 6-4 10-10 10-27 0-50 25-50 53 0 17 9 33 23 42 5 3 6 9 4 14-5 7-7 16-7 24 0 27 22 53 50 53 27 0 50-25 50-53 0-6 4-10 10-10 6 0 10 4 10 10 0 40-32 73-70 73-3 0-7 0-10-1 0 0 0 1 0 1 0 22 18 40 40 40 11 0 21-4 28-12 4-4 11-4 14 0 4 4 4 11 0 14-9 10-20 15-33 17 9 13 24 24 41 24 27 0 50-25 50-53z m170-178c16 0 31 6 43 16 4-8 7-17 7-26 0-15-7-29-18-38-3-3-4-7-4-10 2-5 2-8 2-12 0-31-28-56-53-53-1 0-2 1-2 1-5 0-9-2-11-6-10-21-31-35-54-35-33 0-60 29-60 63 0 33 27 60 60 60 6 0 10 4 10 10 0 6-4 10-10 10-24 0-45-11-60-27l0 190c0 11 9 20 20 20 6 0 10 4 10 10 0 6-4 10-10 10-7 0-14-2-20-5l0 78c0 28 23 53 50 53 17 0 32-11 41-24-13-2-24-7-33-17-4-3-4-10 0-14 3-4 10-4 14 0 7 8 17 12 28 12 22 0 40-18 40-40 0 0 0-1 0-1-3 1-7 1-10 1-38 0-70-33-70-73 0-6 4-10 10-10 6 0 10 4 10 10 0 28 23 53 50 53 28 0 50-26 50-53 0-8-2-17-7-24-2-5-1-11 4-14 14-9 23-25 23-42 0-28-23-53-50-53-6 0-10-4-10-10 0-6 4-10 10-10z m-193 115c-3 4-10 4-14 1-32-29-83-6-83 37 0 6-4 10-10 10-6 0-10-4-10-10 0-35 25-64 59-69-4-12-16-21-29-21-6 0-10-4-10-10 0-6 4-10 10-10 24 0 45 18 49 41 14 1 27 7 38 17 4 4 4 10 0 14z m-107-175c-6 0-10-4-10-10 0-6 4-10 10-10 27 0 50-25 50-53 0-6 4-10 10-10 6 0 10 4 10 10 0 40-32 73-70 73z m80 80c-34 0-63-19-78-46-3-4-1-11 3-13 5-3 11-1 14 4 12 21 35 35 61 35 6 0 10 4 10 10 0 6-4 10-10 10z m180 43c-13 0-25 9-29 21 34 5 59 34 59 69 0 6-4 10-10 10-6 0-10-4-10-10 0-28-22-50-50-50-12 0-24 5-33 13-4 3-11 3-14-1-4-4-4-10 0-14 11-10 24-16 38-17 4-23 25-41 49-41 6 0 10 4 10 10 0 6-4 10-10 10z m20-123c-38 0-70-33-70-73 0-6 4-10 10-10 6 0 10 4 10 10 0 28 23 53 50 53 6 0 10 4 10 10 0 6-4 10-10 10z m-2 34c-15 27-44 46-78 46-6 0-10-4-10-10 0-6 4-10 10-10 26 0 49-14 61-35 3-5 9-7 14-4 4 2 6 9 3 13z"/>
<glyph glyph-name="castle" unicode="&#67;" d="M250 323l-21 0c-4 0-8-3-8-7 0-5 4-8 8-8l21 0c4 0 8 3 8 8 0 4-4 7-8 7z m85 16l-14 0c-4 0-8-3-8-7 0-5 4-8 8-8l14 0c4 0 8 3 8 8 0 4-4 7-8 7z m-147 11l-14 0c-4 0-8-3-8-7 0-4 4-8 8-8l14 0c4 0 8 4 8 8 0 4-4 7-8 7z m123-139l-8 0c-4 0-7-3-7-7 0-4 3-8 7-8l8 0c4 0 8 4 8 8 0 4-4 7-8 7z m17-61l-20 0c-4 0-8-3-8-7 0-4 4-8 8-8l20 0c4 0 7 4 7 8 0 4-3 7-7 7z m-134 66l-8 0c-4 0-8-4-8-8 0-4 4-7 8-7l8 0c4 0 7 3 7 7 0 4-3 8-7 8z m62 3c-16 0-28-12-28-28l0-21c0-7 6-13 12-13l31 0c7 0 13 6 13 13l0 21c0 16-13 28-28 28z m13-47l-26 0 0 19c0 7 6 13 13 13 7 0 13-6 13-13z m230-61l-24 0c-7 0-13-5-13-12l0-6-33 0 0 6c0 7-6 12-13 12l-24 0c-7 0-12-5-12-12l0-6-18 0 0 54c0 4-4 7-8 7-4 0-7-3-7-7l0-132-31 0 0 59c0 33-27 61-60 61-16 0-31-6-42-18-12-11-18-25-19-41 0-4 4-8 8-8 4 0 7 3 7 7 1 12 6 23 14 32 9 8 20 13 32 13 25 0 45-21 45-46l0-59-91 0 0 15c0 4-3 7-7 7-4 0-8-3-8-7l0-15-30 0 0 140 9 0c4 0 7 3 7 8 0 4-3 7-7 7l-9 0 0 69 182 0 0-46c0-4 3-7 7-7 4 0 8 3 8 7l0 51c0 0 0 0 0 0 2 4 3 8 5 12 3 7 5 13 8 20 1 2 2 5 3 7 0 1 0 2 1 2 1 2 0 4 0 6 0 10 0 20 0 30 0 13 0 27 0 41 0 7 0 14 0 20 0 7-5 13-12 13l-30 0c-7 0-12-6-12-13l0-6-14 0 0 43c0 7-6 13-12 13l-36 0 0 25 39 0c4 0 8 3 9 6 2 3 1 7-2 10l-10 12 10 11c3 3 4 7 2 10-1 4-5 6-9 6l-46 0c-4 0-8-3-8-8l0-39c0 0 0 0 0 0l0-33-35 0c-7 0-12-6-12-13l0-43-14 0 0 6c0 7-6 13-13 13l-29 0c-7 0-13-6-13-13 0-6 0-13 0-19 0-14 0-27 0-40 0-11 0-21 0-31 0-2 0-4 1-6 0 0 0 0 0 0l0 0c0 0 0 0 0 0l17-42c0 0 0 0 0 0l0-151-18 0 0 6c0 7-5 12-12 12l-24 0c-7 0-13-5-13-12l0-6-33 0 0 6c0 7-6 12-13 12l-24 0c-7 0-13-5-13-12l0-91c0-5 4-8 8-8l496 0c4 0 8 3 8 8l0 91c0 7-6 12-13 12z m-236 386l27 0-5-6c-4-4-4-9 0-13l5-6-27 0z m-47-80l80 0 0-41-13 0 0 6c0 7-6 13-12 13l-30 0c-7 0-12-6-12-13l0-6-13 0z m-69-121l0 84 25 0 0-7c0-7 6-12 13-12l46 0c7 0 13 5 13 12l0 7 24 0 0-7c0-7 6-12 13-12l46 0c7 0 13 5 13 12l0 7 24 0 0-84z m3-281l-135 0 0 31 14 0c5 0 8 4 8 8 0 4-3 7-8 7l-14 0 0 35 20 0 0-6c0-7 5-12 12-12l39 0c7 0 12 5 12 12l0 6 19 0 0-6c0-7 6-12 13-12l20 0z m1 266l210 0-11-27-188 0z m346-266l-135 0 0 63 20 0c7 0 13 5 13 12l0 6 19 0 0-6c0-7 5-12 12-12l39 0c7 0 12 5 12 12l0 6 20 0z m-17 26l-14 0c-4 0-7-3-7-7 0-5 3-8 7-8l14 0c5 0 8 3 8 8 0 4-3 7-8 7z m-342 27l-20 0c-4 0-8-3-8-7 0-5 4-8 8-8l20 0c4 0 7 3 7 8 0 4-3 7-7 7z m286-5l-20 0c-4 0-7-3-7-7 0-4 3-8 7-8l20 0c4 0 8 4 8 8 0 4-4 7-8 7z m-338-17l-8 0c-4 0-7-3-7-7 0-5 3-8 7-8l8 0c4 0 8 3 8 8 0 4-4 7-8 7z"/>
<glyph glyph-name="exchange" unicode="&#68;" d="M142 512c-78 0-142-64-142-142 0-78 64-142 142-142 78 0 142 64 142 142 0 78-64 142-142 142z m0-263c-67 0-122 54-122 121 0 67 55 122 122 122 67 0 121-55 121-122 0-67-54-121-121-121z m6 136l0 41c14-1 19-8 24-8 6 0 9 8 9 12 0 10-19 14-33 14l0 6c0 2-3 4-6 4-4 0-6-2-6-4l0-6c-19-2-38-12-38-38 0-26 20-33 38-39l0-48c-21 2-26 16-33 16-5 0-9-7-9-12 0-10 17-23 42-24l0-6c0-2 2-5 6-5 3 0 6 3 6 5l0 7c22 3 37 17 37 42 0 27-19 36-37 43z m-11 3c-10 5-19 9-19 20 0 11 8 16 19 17z m10-69l0 43c10-4 18-10 18-23 0-11-7-18-18-20z m223-35c-78 0-142-64-142-142 0-78 64-142 142-142 78 0 142 64 142 142 0 78-64 142-142 142z m0-264c-67 0-121 55-121 122 0 67 54 121 121 121 67 0 122-54 122-121 0-67-55-122-122-122z m35 95c-7 0-10-2-10-7-1-12-7-23-24-23-18 0-24 13-24 24l0 6 24 0c4 0 8 3 8 8 0 4-4 8-8 8l-24 0 0 16 24 0c4 0 8 3 8 7 0 5-4 8-8 8l-24 0 0 8c0 18 8 26 24 26 17 0 24-11 24-22 0-4 3-6 10-6 7 0 11 2 11 10 0 22-19 37-46 37-25 0-44-13-44-45l0-8-11 0c-4 0-7-3-7-8 0-4 3-7 7-7l11 0 0-16-11 0c-4 0-7-4-7-8 0-5 3-8 7-8l11 0 0-6c0-27 16-42 44-42 27 0 46 15 46 38 0 8-3 10-11 10z m55 214c-2 3-3 6-4 9-2 6-8 8-13 6-6-2-8-8-6-13 1-3 2-6 3-9 2-4 6-7 10-7 1 0 2 0 3 1 6 1 8 7 7 13z m-27 51c-24 35-59 62-99 77l21 12c5 2 7 9 4 13-3 5-9 7-14 4l-44-24c-2-1-4-4-5-6 0-3 0-6 1-8l25-44c2-3 5-5 9-5 1 0 3 0 5 1 4 3 6 9 3 14l-13 24c36-13 68-38 90-70 2-2 5-4 9-4 2 0 4 1 6 2 4 3 5 10 2 14z m-217-310l-24 44c-3 5-9 6-14 4-5-3-7-9-4-14l14-25c-52 21-94 64-112 117-2 5-7 8-13 6-5-2-8-8-6-13 10-30 28-58 50-81 21-20 45-37 71-47l-20-12c-4-2-6-9-4-13 2-4 6-6 9-6 2 0 4 1 5 2l44 24c2 1 4 4 5 6 1 3 0 6-1 8z"/>
<glyph glyph-name="papyrus" unicode="&#69;" d="M481 161l0 103c0 4-3 7-7 7-4 0-8-3-8-7l0-103-58 0 0 190 58 0 0-41c0-4 4-7 8-7 4 0 7 3 7 7l0 41c5 2 9 7 9 12l0 21c0 7-6 13-13 13l-8 0 0 24c0 4-2 7-6 7l6 47c2 11-2 21-10 28-12 12-32 12-44 0-8-7-12-17-10-28l6-47c-3 0-6-3-6-7l0-24-8 0c-7 0-12-6-12-13l0-18-258 0 0 18c0 7-5 13-12 13l-8 0 0 24c0 4-3 7-6 7l6 47c2 11-2 21-10 28-12 12-32 12-44 0-8-7-12-17-10-28l6-47c-4 0-6-3-6-7l0-24-8 0c-7 0-13-6-13-13l0-21c0-5 4-10 9-12l0-190c-5-2-9-7-9-12l0-21c0-7 6-13 13-13l8 0 0-24c0-4 2-7 6-7l-6-47c-2-11 2-21 10-28 0 0 0 0 0 0 6-6 14-9 22-9 8 0 16 3 22 9 8 7 12 17 10 28l-6 47c3 0 6 3 6 7l0 24 8 0c7 0 12 6 12 13l0 18 143 0c4 0 7 4 7 8 0 4-3 7-7 7l-151 0 0 190 274 0 0-190-77 0c-4 0-8-3-8-7 0-4 4-8 8-8l69 0 0-18c0-7 5-13 12-13l8 0 0-24c0-4 3-7 6-7l-6-47c-2-11 2-21 10-28 6-6 14-9 22-9 8 0 16 3 22 9 8 7 12 17 10 28l-6 47c4 0 6 3 6 7l0 24 8 0c7 0 13 6 13 13l0 21c0 5-4 10-9 12z m-418 331c7 7 17 7 24 0 4-3 6-9 5-15l-6-48-22 0-7 48c0 6 2 12 6 15z m29-79l0-16-34 0 0 16z m-5-393c-7-7-17-7-24 0-4 3-6 9-6 15l7 48 22 0 6-48c1-6-1-12-5-15z m-29 79l0 16 34 0 0-16z m54 31l-75 0 0 16 75 0z m-66 31l0 190 58 0 0-190z m66 205l-75 0 0 16 75 0z m313 126c7 7 17 7 24 0 4-3 6-9 6-15l-7-48-22 0-6 48c-1 6 1 12 5 15z m29-79l0-16-34 0 0 16z m-54-31l75 0 0-16-75 0z m49-362c-7-7-17-7-24 0-4 3-6 9-5 15l6 48 22 0 7-48c0-6-2-12-6-15z m-29 79l0 16 34 0 0-16z m55 31l-75 0 0 16 75 0z m-215 176c-18 0-33-15-33-32 0-5 4-8 8-8l49 0c5 0 8 3 8 8 0 17-15 32-32 32z m-16-25c3 6 9 10 16 10 6 0 12-4 15-10z m112-37l-32 0c-4 0-7-3-7-7l0-32c0-4 3-7 7-7l32 0c4 0 7 3 7 7l0 32c0 4-3 7-7 7z m-8-31l-16 0 0 16 16 0z m-144 91c-4 2-9 0-10-4l-6-13-5 5c-3 2-7 2-10 0l-5-5-5 13c-2 4-6 6-10 4-4-1-6-6-4-10l8-22c1-2 3-4 6-4 2-1 4 0 6 1l9 7 8-7c1-1 3-2 5-2 0 0 1 0 2 1 2 0 4 2 5 4l10 22c1 4-1 8-4 10z m-6-58c-4 0-7-4-7-8l0-25-24 0 0 18 3 0 0-3c0-4 3-7 7-7 4 0 8 3 8 7l0 10c0 4-4 8-8 8l-17 0c-4 0-8-4-8-8l0-33c0-4 4-7 8-7l38 0c4 0 8 3 8 7l0 33c0 4-4 8-8 8z m157 68l-30 0c-4 0-7-3-7-7 0-4 3-8 7-8l22 0 0-19-14 0 0 1 1 0c4 0 8 3 8 7 0 4-4 8-8 8l-9 0c-4 0-7-4-7-8l0-15c0-5 3-8 7-8l30 0c4 0 7 3 7 8l0 34c0 4-3 7-7 7z m-70-105l-19 33c-1 2-4 4-6 4-3 0-6-2-7-4l-19-33c-1-2-1-5 0-8 1-2 4-3 7-3l38 0c2 0 5 1 6 3 1 3 1 6 0 8z m-31 4l6 10 6-10z"/>
<glyph glyph-name="poison" unicode="&#70;" d="M306 374l0 55-17 0 0-68 7-1c87-17 150-89 150-170 0-96-85-173-190-173-105 0-190 77-190 173 0 81 63 153 150 170l7 1 0 68-17 0 0-55c-91-20-156-97-156-184 0-105 92-190 206-190 114 0 206 85 206 190 0 87-65 164-156 184z m33 138l-166 0 0-66 166 0z m-17-50l-132 0 0 33 132 0z m-149-256c0-19 9-39 25-53l0-37 116 0 0 37c16 14 25 34 25 53 0 41-37 75-83 75-46 0-83-34-83-75z m149 0c0-16-8-31-22-42l-3-3 0-29-16 0 0 17-17 0 0-17-16 0 0 17-17 0 0-17-16 0 0 29-3 3c-14 11-22 26-22 42 0 32 30 58 66 58 36 0 66-26 66-58z m-99 25c-14 0-25-11-25-25 0-13 11-24 25-24 14 0 25 11 25 24 0 14-11 25-25 25z m0-33c-5 0-8 4-8 8 0 5 3 9 8 9 5 0 8-4 8-9 0-4-3-8-8-8z m66-16c14 0 25 11 25 24 0 14-11 25-25 25-14 0-25-11-25-25 0-13 11-24 25-24z m0 33c5 0 8-4 8-9 0-4-3-8-8-8-5 0-8 4-8 8 0 5 3 9 8 9z m50 115c-14 0-25-11-25-24l0-22-6-6 12-11 10 10 0 29c0 4 4 8 9 8 4 0 8-4 8-8l0-25 25 0c4 0 8-4 8-8 0-5-4-9-8-9l-29 0-10-10 11-12 6 6 22 0c13 0 24 11 24 25 0 13-11 24-24 24l-9 0 0 9c0 13-11 24-24 24z m-166 0c-13 0-24-11-24-24l0-9-9 0c-13 0-24-11-24-24 0-14 11-25 24-25l22 0 6-6 11 12-10 10-29 0c-4 0-8 4-8 9 0 4 4 8 8 8l25 0 0 25c0 4 4 8 8 8 5 0 9-4 9-8l0-29 10-10 12 11-6 6 0 22c0 13-11 24-25 24z m166-280c13 0 24 11 24 24l0 9 9 0c13 0 24 11 24 24 0 14-11 25-24 25l-22 0-14 14-12-11 19-19 29 0c4 0 8-4 8-9 0-4-4-8-8-8l-25 0 0-25c0-4-4-8-8-8-5 0-9 4-9 8l0 29-10 10-12-11 6-6 0-22c0-13 11-24 25-24z m-166 0c14 0 25 11 25 24l0 22 6 6-12 11-10-10 0-29c0-4-4-8-9-8-4 0-8 4-8 8l0 25-25 0c-4 0-8 4-8 8 0 5 4 9 8 9l29 0 19 19-12 11-14-14-22 0c-13 0-24-11-24-25 0-13 11-24 24-24l9 0 0-9c0-13 11-24 24-24z"/>
<glyph glyph-name="feather" unicode="&#71;" d="M399 429c-1 0-1 1-1 2 0 0-1 1-1 1 0 1-1 1-1 2-1 0-1 1-2 1 0 0-1 1-1 1-1 0-2 0-2 0-2 1-3 1-4 0-1 0-1 0-2 0-1 0-1-1-2-1 0 0-1-1-1-1-1-1-1-1-2-2 0 0 0-1-1-1 0-1 0-2 0-2 0-1 0-2 0-2 0-1 0-2 0-2 0-1 0-2 0-2 1-1 1-1 1-2 1 0 1-1 2-1 0-1 1-1 1-2 1 0 1 0 2-1 1 0 1 0 2 0 0 0 1 0 2 0 0 0 1 0 2 0 0 0 1 0 2 0 0 1 1 1 1 1 1 1 1 1 2 2 0 0 1 1 1 1 0 1 1 1 1 2 0 0 0 1 1 2 0 0 0 1 0 2 0 0 0 1 0 2z m-164-261l-157 0c-6 0-10-5-10-10l0-109c0-5 4-10 10-10l157 0c6 0 10 5 10 10l0 109c0 5-4 10-10 10z m-10-109l-137 0 0 89 137 0z m221 422l-52 30c-4 2-8 1-11-1l-52-29c-24-14-38-41-37-69l3-47c0-2 0-4 1-5l24-40-14-2c-5-1-9-5-8-10l3-52c0-2 0-3 1-5l18-30-8-1c-6-1-9-6-9-11l2-47c2-23 14-45 34-58l38-25 0-14-10 10c-4 4-11 4-15 0-3-4-3-10 0-14l25-24c0 0 0 0 0 0l0-27c0-6 4-10 10-10 5 0 10 4 10 10l0 27c0 0 0 0 0 0l24 24c4 4 4 10 0 14-4 4-10 4-14 0l-10-10 0 14 37 25c20 13 33 35 34 58l2 36c0 4-3 9-8 10l-7 2 15 18c1 2 2 4 2 6l9 178c2 28-12 55-37 69z m8-243l-22-28c-2-3-2-7-1-10 1-3 4-5 7-6l13-4-1-27c-1-17-10-33-24-42l-27-18 0 109 57 57z m3 61l-58-59 0 65 0 0 62 62z m6 114l-1-16-63-64 0 48c0 5-5 10-10 10-6 0-10-5-10-10l0-278-27 18c-14 9-24 25-25 42l-2 38 14 2c4 1 7 3 8 6 1 3 1 6 0 9l-25 41-2 41 19 2c4 1 7 3 8 6 1 3 1 6 0 9l-30 51-3 45c-1 21 9 40 27 50l48 27 47-27c18-10 28-29 27-50z m-218-206l-26 0c-5 0-9 4-9 9l0 3 7 0c15 0 27 12 27 27 0 15-12 28-27 28l-120 0c-15 0-27-13-27-28 0-15 12-27 27-27l8 0 0-3c0-5-4-9-9-9l-28 0c-22 0-39-17-39-39l0-129c0-22 17-39 39-39l177 0c22 0 39 17 39 39l0 129c0 22-17 39-39 39z m19-168c0-11-8-19-19-19l-177 0c-11 0-19 8-19 19l0 129c0 11 8 19 19 19l28 0c16 0 29 13 29 29l0 3 38 0c6 0 10 4 10 10 0 5-4 10-10 10l-66 0c-4 0-7 3-7 7 0 4 3 8 7 8l120 0c4 0 7-4 7-8 0-4-3-7-7-7l-17 0c-6 0-10-5-10-10l0-13c0-16 13-29 29-29l26 0c11 0 19-8 19-19z m-108 98c-18 0-33-15-33-33 0-19 15-34 33-34 19 0 34 15 34 34 0 18-15 33-34 33z m0-47c-7 0-13 6-13 14 0 7 6 13 13 13 8 0 14-6 14-13 0-8-6-14-14-14z"/>
<glyph glyph-name="chest" unicode="&#72;" d="M104 354l-19 28c-3 4-7 5-11 2-3-2-4-7-2-10l20-29c1-2 4-3 6-3 2 0 3 1 4 1 4 3 5 7 2 11z m333 30c-3 3-8 2-10-2l-20-28c-2-4-1-8 2-11 2 0 3-1 5-1 2 0 4 1 6 3l19 29c3 3 2 8-2 10z m-181-160c-12 0-22-9-22-21 0-5 2-9 5-13l0-3c0-9 8-17 17-17 9 0 17 8 17 17l0 3c3 4 4 8 4 13 0 12-9 21-21 21z m4-26c-1-1-2-3-2-5l0-6c0-1-1-2-2-2-1 0-2 1-2 2l0 6c0 2-1 4-2 5-2 2-3 3-3 5 0 4 3 6 7 6 3 0 6-2 6-6 0-2 0-3-2-5z m252 43l0 43c0 4-4 7-8 7-4 0-7-3-7-7l0-37-40 0c0 5 0 11 1 17 1 13 2 27-8 37-9 11-26 14-41 17-11 2-21 4-28 8-7 4-13 11-18 18-9 10-18 22-33 26-14 3-29-1-44-6-10-3-21-6-30-6-9 0-20 3-30 6-15 5-30 9-44 6-15-4-24-16-33-26-6-7-11-14-18-18-7-4-18-6-28-8-16-3-32-6-41-17-10-10-9-24-8-37 1-6 1-12 0-17l-39 0 0 82c0 39 32 71 71 71l70 0 4-11c1-3 4-5 7-5 1 0 2 0 3 1 4 1 6 6 4 9l-2 6 77 0c0-4 3-6 7-6 4 0 7 2 7 6l77 0-2-6c-2-3 0-8 4-9 1-1 2-1 3-1 3 0 5 2 7 5l4 11 70 0c39 0 71-32 71-71 0-4 3-8 7-8 4 0 8 4 8 8 0 47-39 86-86 86l-64 0 17 40c1 4-1 8-5 10-3 1-8-1-9-4l-19-46-83 0 0 33c0 4-3 7-7 7-4 0-8-3-8-7l0-33-82 0-19 46c-1 3-6 5-10 4-3-2-5-6-4-10l17-40-64 0c-47 0-86-39-86-86l0-270c0-7 6-12 13-12l486 0c7 0 13 5 13 12l0 180c0 1 0 1 0 2z m-57-9l0-27-140 0 0 26z m-382 59c6 7 20 9 33 12 12 2 24 5 33 10 9 5 15 13 22 21 7 10 15 19 25 21 2 1 4 1 7 1 8 0 18-3 28-6 12-4 23-7 35-7 11 0 23 3 34 7 14 4 26 8 36 5 10-2 17-11 25-21 6-8 13-16 22-21 9-5 21-8 33-10 13-3 27-5 33-12 5-5 4-15 4-26-1-6-1-12-1-18l-372 0c0 6 0 12-1 18-1 11-1 21 4 26z m227-60l0-42c0-14-12-26-26-26l-36 0c-14 0-26 12-26 26l0 42z m-285 1l27 0 0-107c-11 5-21 7-27 9z m0-170l0 56c6-1 15-4 24-9 20-11 31-27 35-47z m408 0l-334 0c-3 22-14 41-32 54l0 74 51 0c4 0 8 3 8 7 0 5-4 8-8 8l-51 0 0 27 140-1 0-26-42 0c-5 0-8-3-8-8 0-4 3-7 8-7l42 0 0-1c0-22 19-41 41-41l36 0c22 0 41 19 41 41l0 1 140 0 0-74c-18-13-29-32-32-54z m74 0l-59 0c4 20 15 36 34 47 9 5 18 8 25 9z m0 72c-6-2-16-4-27-9l0 107 27 0z"/>
<glyph glyph-name="clock" unicode="&#73;" d="M256 469c-162 0-268-176-183-321 83-139 284-140 367 0 20 35 30 73 30 108 0 117-95 213-214 213z m175-305l-18 10c-3 2-8 1-10-3-2-3-1-8 3-10l18-10c-16-25-37-47-62-62l-11 17c-2 4-6 5-10 3-3-2-5-6-3-10l11-18c-26-13-55-22-85-23l0 21c0 4-4 8-8 8-4 0-7-4-7-8l0-21c-31 1-60 10-85 23l10 18c2 4 1 8-2 10-4 2-9 1-11-3l-10-17c-25 15-46 37-62 62l18 10c3 2 5 7 2 10-2 4-6 5-10 3l-18-10c-13 25-21 54-23 85l21 0c4 0 8 3 8 7 0 4-4 8-8 8l-21 0c1 30 10 59 23 85l18-11c1-1 3-1 4-1 3 0 5 1 6 4 3 3 1 8-2 10l-18 11c15 25 37 46 62 62l10-18c2-3 4-4 7-4 1 0 2 0 4 1 3 2 4 7 2 10l-10 18c25 14 54 22 85 23l0-21c0-4 3-7 7-7 4 0 8 3 8 7l0 21c30-1 59-9 85-23l-11-18c-2-3 0-8 3-10 1-1 3-1 4-1 2 0 5 1 6 4l11 18c25-16 46-37 62-62l-18-11c-4-2-5-7-3-10 2-3 4-4 7-4 1 0 2 0 3 1l19 11c13-26 21-55 22-85l-21 0c-4 0-7-4-7-8 0-4 3-7 7-7l21 0c-1-31-9-60-23-85z m-63 97l-23 24c-3 3-8 3-11 0-3-3-3-8 0-11l11-10-53 0 0 9c0 10-9 19-19 19l-9 0 0 90 11-10c1-2 3-3 5-3 2 0 4 1 5 3 3 3 3 7 0 10l-23 24c-2 1-4 2-6 2-2 0-3-1-5-2l-23-24c-3-3-3-7 0-10 3-3 7-3 10 0l11 10 0-90-9 0c-11 0-19-9-19-19l0-33c0-11 8-19 19-19l33 0c10 0 19 8 19 19l0 8 53 0-11-10c-3-3-3-8 0-11 2-1 3-2 5-2 2 0 4 1 6 2l23 24c2 1 2 3 2 5 0 2 0 4-2 5z m-91-21c0-2-2-4-4-4l-33 0c-2 0-4 2-4 4l0 33c0 2 2 4 4 4l33 0c2 0 4-2 4-4z m235 34c-9 127-111 229-238 238-4 0-7-3-8-7 0-4 3-8 7-8 120-8 216-105 224-224 0-4 4-7 7-7 1 0 1 0 1 0 4 1 7 4 7 8z m-7-28c-4 1-8-3-8-7-9-125-115-224-241-224-133 0-241 108-241 241 0 126 99 232 224 241 4 0 8 4 7 8 0 4-4 7-8 7-133-9-238-121-238-256 0-141 115-256 256-256 135 0 247 105 256 238 0 4-3 8-7 8z"/>
<glyph glyph-name="fire" unicode="&#74;" d="M381 332c-35 43-71 88-70 169 0 5-2 8-5 10-4 1-8 1-11-1-58-41-109-131-94-241-20 12-33 31-46 52-5 7-9 14-14 20-2 3-5 5-8 4-4 0-7-2-9-5-27-42-55-94-55-150 0-110 77-190 184-190 109 0 190 82 190 190 0 64-31 103-62 142z m-128-311c-95 0-163 71-163 169 0 45 20 88 44 126 1-3 2-4 3-6 15-22 29-45 53-59 7-4 15-4 22 0 7 4 11 12 10 21-13 90 23 166 69 207 5-76 41-121 73-161 31-38 58-72 58-128 0-96-73-169-169-169z m143 201c-6 0-11-5-11-11 0-35-9-66-27-94-3-5-2-12 3-15 2-1 4-2 6-2 4 0 7 2 9 5 20 32 30 67 30 106 0 6-4 11-10 11z m-43-130c-5 4-12 4-15-1-3-3-7-6-10-9-4-4-5-11-1-15 2-3 5-4 8-4 2 0 4 1 6 3 5 4 9 7 13 12 3 4 3 11-1 14z"/>
<glyph glyph-name="settings" unicode="&#75;" d="M256 389c-73 0-133-60-133-133 0-73 60-133 133-133 73 0 133 60 133 133 0 73-60 133-133 133z m0-247c-63 0-114 51-114 114 0 63 51 114 114 114 63 0 114-51 114-114 0-63-51-114-114-114z m230 171l-19 0c-5 18-13 35-22 52l14 13c5 5 7 12 7 19 0 7-2 13-7 18l-44 44c-10 10-27 10-37 0l-13-14c-17 9-34 17-52 22l0 19c0 14-12 26-26 26l-62 0c-14 0-26-12-26-26l0-19c-18-5-35-13-52-22l-13 14c-10 10-27 10-37 0l-44-44c-5-5-7-11-7-18 0-7 2-14 7-19l14-13c-9-17-17-34-22-52l-19 0c-14 0-26-12-26-26l0-62c0-14 12-26 26-26l19 0c5-18 13-35 22-52l-14-13c-5-5-7-12-7-19 0-7 2-13 7-18l44-44c10-10 27-10 37 0l13 14c17-9 34-17 52-22l0-19c0-14 12-26 26-26l62 0c14 0 26 12 26 26l0 19c18 5 35 13 52 22l13-14c10-10 27-10 37 0l44 44c5 5 7 11 7 18 0 7-2 14-7 19l-14 13c9 17 17 34 22 52l19 0c14 0 26 12 26 26l0 62c0 14-12 26-26 26z m7-88c0-4-3-7-7-7l-34 0-2-7c-5-21-13-42-25-60l-4-6 24-25c3-2 3-7 0-10l-43-43c-3-3-8-3-10 0l-25 24-6-4c-18-12-39-20-60-25l-7-2 0-34c0-4-3-7-7-7l-62 0c-4 0-7 3-7 7l0 34-7 2c-21 5-42 13-60 25l-6 4-25-24c-2-3-7-3-10 0l-43 43c-3 3-3 8 0 10l24 25-4 6c-12 18-20 39-25 60l-2 7-34 0c-4 0-7 3-7 7l0 62c0 4 3 7 7 7l34 0 2 7c5 21 13 42 25 60l4 6-24 25c-3 2-3 7 0 10l43 43c3 3 8 3 10 0l25-24 6 4c18 12 39 20 60 25l7 2 0 34c0 4 3 7 7 7l62 0c4 0 7-3 7-7l0-34 7-2c21-5 42-13 60-25l6-4 25 24c2 3 7 3 10 0l43-43c3-3 3-8 0-10l-24-25 4-6c12-18 20-39 25-60l2-7 34 0c4 0 7-3 7-7z m-237 126c-52 0-95-43-95-95 0-52 43-95 95-95 52 0 95 43 95 95 0 52-43 95-95 95z m0-171c-42 0-76 34-76 76 0 42 34 76 76 76 42 0 76-34 76-76 0-42-34-76-76-76z"/>
<glyph glyph-name="shield" unicode="&#76;" d="M165 246l15 0 0-15-15 0z m25 0l15 0 0-15-15 0z m25 0l15 0 0-15-15 0z m41 266l-198-95 0-145c0-59 18-116 53-164 35-49 83-86 140-106l5-2 5 2c57 20 105 57 140 106 35 48 53 105 53 164l0 145z m8-493l0 15-15 0 0-15c-106 42-176 142-176 253l0 135 175 85 0-15 16 0 0 15 175-85 0-135c0-111-70-211-175-253z m121 407l14-6-7-14-13 7z m-22 11l13-6-6-14-14 7z m-69 34l60-29-7-14-59 29z m-157-339l-13-8c21-31 48-57 80-77l8 13c-30 19-56 43-75 72z m54 272l7-13-60-30-7 13z m167-199l14-5c1 5 3 9 4 14l-14 5c-1-5-3-10-4-14z m-24-45c-14-20-31-38-52-51l8-13c22 15 41 33 57 56 8 12 15 25 21 38l-14 6c-5-13-12-25-20-36z m30 68l15-3c1 5 2 10 3 15l-15 2c-1-5-2-9-3-14z m-266 160l0-117c0-49 15-96 43-137 27-40 66-70 112-87l3-1 3 1c46 17 85 47 112 87 28 41 43 88 43 137l0 117-158 78z m301-117c0-92-57-176-143-209-86 33-143 117-143 209l0 108 143 71 143-71z m-120 41l15 0 0-15-15 0z m0 103l15 0 0-68-15 0z m0-78l15 0 0-15-15 0z m-30 101l15 0 0-364-15 0z m27-160l111 0 0-15-111 0z m-151 0l111 0 0-15-111 0z"/>
<glyph glyph-name="meele" unicode="&#77;" d="M293 15l-147 0c-15 0-27 12-27 27l0 53c0 17-5 35-15 48-17 23-27 50-29 78 0 5-3 8-8 8-4-1-7-4-7-8 2-32 13-62 32-87 8-11 12-25 12-39l0-53c0-23 19-42 42-42l147 0c4 0 7 3 7 7 0 5-3 8-7 8z m106 353l0 32c0 5-4 8-8 8-4 0-7-3-7-8l0-29c-28 4-52 11-66 16l0 65c0 19 16 34 35 32 17-1 31-16 31-33l0-16c0-4 3-7 7-7 4 0 8 3 8 7l0 16c0 45-56 66-85 31-16 39-70 40-88 2-23 29-68 21-81-12-29 34-85 14-85-31 0-8 0-178 0-185 0-4 4-7 8-7 4 0 7 3 7 7l0 34c22-21 57-17 74 9 19-30 62-29 80 0 16-24 48-29 70-12 21-8 48-17 51-17 9 0 11 13 2 15-28 8-56 19-71 27-28 15-33 38-25 56 10 19 16 18 50 7 31-11 63-18 84-20 29-6 49-32 47-61-1-4-2-34-12-86-3-11-5-21-15-38-7-12-16-23-26-33-2-2-14-11-35-17-4-1-7-5-6-9 1-4 5-6 9-5 4 1 8 2 11 3l0-67c0-15-12-27-27-27l-8 0c-4 0-8-3-8-8 0-4 4-7 8-7l8 0c23 0 42 19 42 42l0 71c2 2 49 31 61 92 11 52 12 86 13 88 2 34-20 66-53 75z m-291-76c-18 0-33 15-33 33 0 121 0 117 1 123 3 15 17 28 36 26 15-2 27-14 29-28 0-128 0-121 0-125-2-16-16-29-33-29z m114 33c0-18-15-33-33-33-17 0-31 13-33 29 0 4 0 117 0 133 0 18 15 33 33 33 18 0 33-15 33-33z m81 67c-27 8-45 11-59-15-15-28-7-61 39-83-22-9-46 7-46 31 0 21 0 123 0 139 0 18 15 33 33 33 18 0 33-15 33-33 0-23 0-49 0-72z"/>
<glyph glyph-name="coin" unicode="&#78;" d="M437 437c-48 48-113 75-181 75-68 0-133-27-181-75-48-48-75-113-75-181 0-68 27-133 75-181 48-48 113-75 181-75 68 0 133 27 181 75 48 48 75 113 75 181 0 68-27 133-75 181z m-181-417c-130 0-236 106-236 236 0 130 106 236 236 236 130 0 236-106 236-236 0-130-106-236-236-236z m0 443c-114 0-207-93-207-207 0-114 93-207 207-207 114 0 207 93 207 207 0 114-93 207-207 207z m0-394c-103 0-187 84-187 187 0 103 84 187 187 187 103 0 187-84 187-187 0-103-84-187-187-187z m8 203l0 75c22-1 32-11 37-11 5 0 9 7 9 11 0 10-24 18-46 19l0 9c0 3-4 5-7 5-4 0-7-2-7-5l0-10c-27-2-55-14-55-52 0-39 28-48 55-57l0-88c-38 1-44 25-52 25-4 0-9-7-9-12 0-10 23-32 61-32l0-11c0-3 3-6 7-6 3 0 7 3 7 6l0 12c30 4 51 22 51 59 0 42-26 54-51 63z m-14 5c-19 7-36 14-36 38 0 22 17 31 36 32z m13-109l0 83c18-7 33-17 33-44 0-22-12-35-33-39z m154 55c-5 1-11-2-12-7-6-23-18-45-34-62-4-5-3-11 1-15 2-1 4-2 7-2 3 0 5 1 7 3 18 20 31 45 38 71 2 5-1 11-7 12z m3 43c-5 0-10-4-10-10 0-2 0-3 0-5 0-5 4-10 10-10 0 0 0 0 0 0 6 0 10 4 10 10 0 1 0 3 0 5 0 6-4 10-10 10z"/>
<glyph glyph-name="coins" unicode="&#79;" d="M358 358c-39 40-92 62-148 62-56 0-109-22-149-62-2-3-2-7 0-10 3-3 8-3 11 0 37 36 86 57 138 57 52 0 101-21 138-57 36-37 57-86 57-138 0-52-21-101-57-138-76-76-200-76-276 0-32 32-52 75-56 120-4 44 7 89 32 126 2 3 1 8-2 11-4 2-8 1-11-3-26-39-39-88-34-136 4-48 26-94 60-129 41-40 95-61 149-61 54 0 108 21 148 61 40 40 62 93 62 149 0 56-22 109-62 148z m-28-28c-66 67-174 67-240 0-67-66-67-174 0-240 33-34 76-50 120-50 44 0 87 16 120 50 67 66 67 174 0 240z m-10-230c-61-60-159-60-220 0-60 61-60 159 0 220 31 30 70 45 110 45 40 0 79-15 110-45 60-61 60-159 0-220z m131 351c-82 81-215 81-297 0-5-5-10-11-14-16-3-3-3-8 1-11 3-3 8-2 10 1 4 5 9 10 13 15 76 76 200 76 276 0 76-76 76-200 0-276-5-4-10-9-15-13-3-2-3-7-1-10 2-2 4-3 6-3 2 0 4 0 5 1 5 5 11 10 16 15 81 81 81 215 0 297z m15-102c-1 4-6 7-10 5-4-1-6-5-5-9 12-43 6-89-18-126-2-4-1-9 2-11 1-1 3-1 4-1 3 0 5 1 7 4 26 41 33 91 20 138z m-12 31c-9 16-19 30-31 42-28 28-65 45-103 49-39 4-77-5-109-25-4-3-5-7-3-11 3-3 7-4 11-2 29 19 64 27 99 23 35-3 69-19 94-44 11-12 21-25 28-39 1-3 4-4 7-4 1 0 2 0 3 1 4 2 5 6 4 10z m-236-163l0 63c18-2 32-15 32-31 0-4 3-7 7-7 4 0 8 3 8 7 0 24-21 44-47 47l0 8c0 5-4 8-8 8-4 0-8-3-8-8l0-8c-26-3-47-23-47-47 0-23 21-43 47-46l0-64c-18 3-32 16-32 32 0 4-3 7-7 7-4 0-8-3-8-7 0-24 21-44 47-47l0-9c0-4 4-7 8-7 4 0 8 3 8 7l0 9c26 3 47 23 47 47 0 23-21 43-47 46z m-16 1c-18 3-32 16-32 31 0 16 14 29 32 31z m16-79l0 63c18-3 32-16 32-31 0-16-14-29-32-32z"/>
<glyph glyph-name="hammer" unicode="&#80;" d="M423 468l-23 0 0 9c0 4-4 7-8 7l-88 0 0 4c0 13-11 24-24 24l-43 0c-13 0-24-11-24-24l0-4-70 0c-2 0-4-1-6-2l-48-52c-10-10-10-26 0-36l48-52c2-1 4-2 6-2l67 0-6-271c0-7-1-13-1-20 0-1 1-2 1-3l-1-22c0-6 3-12 7-17 5-4 11-7 17-7l48 0c0 0 0 0 0 0 0 0 0 0 0 0l15 0c6 0 12 3 17 7 4 5 7 11 7 17l-6 282c0 0 0 0 0 0l-1 34 85 0c4 0 8 3 8 7l0 19 23 0c4 0 7 3 7 8l0 86c0 4-3 8-7 8z m-195 20c0 5 4 9 9 9l43 0c5 0 9-4 9-9l0-4-61 0z m-82-133l-46 49c-4 5-4 12 0 16l46 49 84 0-69-114z m72 0c0 0 0 0 0 0l-39 0 69 114 87 0-70-114-47 0c0 0 0 0 0 0z m5-114l1 60c5-4 11-6 17-6 16 0 29 13 29 29 0 6-2 11-5 16l27 0 1-34c-8-41-51-59-70-65z m70 29l1-36c-19-17-53-51-73-100l2 90c7 3 21 7 35 15 15 9 27 19 35 31z m-65 54c0 7 6 13 13 13 8 0 14-6 14-13 0-8-6-14-14-14-7 0-13 6-13 14z m36-309l-37 0c-2 0-4 1-6 3-2 2-2 4-2 6l0 44c7 69 49 120 75 145l1-11c-4-6-17-30-27-63-13-45-15-88-4-124z m32 3c-2-2-4-3-6-3l-10 0c-14 42-7 88 3 120 4 13 8 24 12 34l3-145c0-2-1-4-2-6z m88 442l0-105-101 0 69 114 32 0z m31-79l-15 0 0 71 15 0z"/>
<glyph glyph-name="spell-book" unicode="&#81;" d="M136 60c-6 0-10-4-10-10 0-6 4-10 10-10 6 0 10 4 10 10 0 6-4 10-10 10z m240 0l-200 0c-6 0-10-4-10-10 0-6 4-10 10-10l200 0c6 0 10 4 10 10 0 6-4 10-10 10z m-129 266l-51 0c-6 0-10-4-10-10l0-140c0-6 4-10 10-10l140 0c6 0 10 4 10 10l0 51c45 5 80 43 80 89 0 50-40 90-90 90-46 0-84-35-89-80z m79-79c-31 4-55 28-59 59l59 0z m-120-61l0 120 41 0c4-42 37-75 79-79l0-41z m130 200c39 0 70-31 70-70 0-35-26-64-60-69l0 69c0 6-4 10-10 10l-69 0c5 34 34 60 69 60z m120-306c6 0 10 4 10 10l0 412c0 6-4 10-10 10l-360 0c-28 0-50-22-50-50l0-412c0-28 22-50 50-50l360 0c6 0 10 4 10 10 0 6-4 10-10 10 0 0-3 1-5 6-3 6-5 15-5 24 0 9 2 18 5 24 2 5 5 6 5 6z m-10 20l-340 0 0 392 40 0 0-96c0-9 11-13 17-7l33 33 33-33c6-6 17-2 17 7l0 96 200 0z m-280 392l60 0 0-72-23 23c-4 4-10 4-14 0l-23-23z m-80-2l0-391c-7-1-14-5-20-9l0 372c0 13 8 24 20 28z m10-470c-17 0-30 13-30 30 0 17 13 30 30 30l336 0c-4-8-6-19-6-30 0-11 2-22 6-30z"/>
<glyph glyph-name="martial-arts" unicode="&#82;" d="M504 268c-3 3-7 6-11 7-1 1-1 2-2 2l-72 98c-3 4-7 8-11 10 5 6 8 15 8 24l0 5c0 23-19 41-42 41-22 0-41-18-41-41l0-5c0-12 5-22 12-29-5-5-9-12-10-19l-6-49-91 84 5 5c1 0 2 0 3 0 7 0 15 3 21 9l6 6c11 12 11 30 0 41l-12 12c-11 11-29 11-41 0l-6-6c-6-6-9-13-9-21 0-1 0-2 0-3l-18 18c-5 5-12 8-20 8-7 0-14-3-20-9-5-5-8-12-8-20 1-7 4-14 9-19l9-9-41 0c4 6 6 14 6 22l0 6c0 23-19 42-42 42-23 0-42-19-42-42l0-6c0-10 4-19 9-27-6-3-12-8-16-15l-25-44c-4-7-6-15-6-22 0-17 9-32 24-40l19-10-5-15c0-3 0-6 2-9 2-2 5-4 8-4l2 0-25-148c0-3 1-6 3-8 2-2 4-4 7-4l2 0 0-15c0-2 0-3 1-5l-12 0c-6 0-10-4-10-10 0-5 4-10 10-10l161 0c5 0 10 5 10 10 0 6-5 10-10 10l-38 0c-2 13-10 25-21 32l0 148 16 0c3 0 6 2 8 4 2 3 2 6 1 9l-15 51 0 31 28 0c10 0 20 4 27 11l9 10 29-33c4-5 10-5 14-1 4 3 5 10 1 14l-30 34 8 8 148-137-38-57c-7-10-8-23-5-34l16-52-21-7-32 62c-5 10-4 23 2 33l32 47c3 4 3 9 0 12l-31 34c-3 5-10 5-14 1-4-3-4-10-1-14l25-28-27-41c-11-16-12-37-4-54l32-60c-5-4-9-10-11-17-3-8-3-19 0-29 1-2 3-4 5-5 1-1 3-2 5-2 1 0 2 0 3 1l52 15c11 3 17 15 14 26l-8 26c0 1 0 2-1 3l-17 55c-1 6-1 12 3 16l43 65c0 0 0 0 0 1 0 0 0 0 0 0l20 37 41-33c0-7 3-14 8-19 5-5 12-8 19-8 7 0 14 3 19 8l3 3c5 5 8 12 8 19 0 7-3 14-8 19z m-342 174c1 2 3 3 5 3 3 0 5-1 6-2l17-17-14-9-14 14c-2 2-2 4-2 6-1 2 0 4 2 5z m-104-6c0 12 10 22 22 22 12 0 22-10 22-22l0-6c0-12-10-22-22-22-12 0-22 10-22 22z m12-192l38 0 0-140-61 0z m59-180l-67 0c-2 0-5 2-5 5l0 15 43 0c13 0 24-8 29-20z m-11 200l-57 0 3 10c0 0 0 0 0 0l7 22 50 0 9-32z m61 100c-3-3-8-5-13-5l-28 0 0 2c0 6-4 10-10 10-5 0-10-4-10-10l0-45-50 0-11 11c-4 4-10 4-14 0-4-4-4-11 0-14l9-9-3-13-16 9c-8 4-13 13-13 22 0 4 1 8 3 12l25 44c4 6 10 10 17 10l101 0c2 0 4 0 5 1l44 31 10-9z m46 78c0 2 1 5 3 6l6 7c2 2 5 3 7 3 2 0 4-1 6-3l12-12c4-3 4-9 0-13l-7-6c-3-4-9-4-12 0l-12 12c-2 1-3 4-3 6z m126-359l4-13c0 0 0 0 0-1l-42-12c0 3 0 5 1 7 2 5 4 8 8 9 0 0 0 0 0 0 0 0 0 0 0 0z m2 331c0 12 10 21 21 21 12 0 22-9 22-21l0-5c0-12-10-22-22-22-11 0-21 10-21 22z m114-144c0-1-1-1-1-2l-3-3c0 0 0 0 0 0l-46 37c0 0-1 0-1 1l-29 23c-4 4-11 3-14-1-4-5-3-11 1-14l24-19-16-30-35 33c0 1 0 1 0 1l8 62c1 5 5 9 10 9l31 0c3 0 6-1 7-4l67-91z m23-26l-3-3c-3-2-7-2-10 0-1 2-2 3-2 5 0 2 1 3 2 5l4 4c1 1 2 1 4 1 2 0 4-1 5-2 1-1 2-3 2-5 0-2-1-4-2-5z m-219 68c-2 1-5 2-7 2-3 0-5-1-7-2-2-2-3-5-3-8 0-2 1-5 3-7 2-1 4-3 7-3 2 0 5 2 7 3 2 2 3 5 3 7 0 3-1 6-3 8z m-42-251c-1 2-4 3-7 3-2 0-5-1-7-3-2-2-3-4-3-7 0-2 1-5 3-7 2-2 5-3 7-3 3 0 6 1 7 3 2 2 3 5 3 7 0 3-1 5-3 7z"/>
<glyph glyph-name="hourglass" unicode="&#83;" d="M263 229c-1 2-4 4-7 4-3 0-6-2-7-4-7-15-19-26-34-31-21-9-39-23-51-41-11-15-17-32-20-51 0-2 1-4 2-6 2-2 4-3 7-3l206 0c3 0 5 1 7 3 1 2 2 4 2 6-3 19-9 36-20 51-12 18-30 32-51 41-15 5-27 16-34 31z m72-82c7-10 12-21 15-33l-188 0c3 12 8 23 15 33 11 16 26 28 44 35 14 6 26 15 35 27 9-12 21-21 35-27 18-7 33-19 44-35z m-171 208c12-18 30-32 51-41 15-5 27-16 34-31 1-2 4-4 7-4 3 0 6 2 7 4 7 15 19 26 34 31 21 9 39 23 51 41 11 15 17 32 20 51 0 2-1 4-2 6-2 2-4 3-7 3l-206 0c-3 0-5-1-7-3-1-2-2-4-2-6 3-19 9-36 20-51z m186 43c-3-12-8-23-15-33-11-16-26-28-44-35-14-6-26-15-35-27-9 12-21 21-35 27-18 7-33 19-44 35-7 10-12 21-15 33z m63 114l-314 0c-5 0-8-4-8-8l0-63c0-4 3-8 8-8l10 0 0-14c0-30 9-59 26-84 17-24 40-42 67-53 11-4 18-14 18-26l0 0c0-12-7-22-18-26-27-11-50-29-67-53-17-25-26-54-26-84l0-14-10 0c-5 0-8-4-8-8l0-63c0-4 3-8 8-8l314 0c5 0 8 4 8 8l0 63c0 4-3 8-8 8l-10 0 0 14c0 30-9 59-26 84-17 24-40 42-67 53-11 4-18 14-18 26l0 0c0 12 7 22 18 26 27 11 50 29 67 53 17 25 26 54 26 84l0 14 10 0c5 0 8 4 8 8l0 63c0 4-3 8-8 8z m-8-495l-298 0 0 46 298 0z m-18 402c0-27-8-52-24-74-14-22-35-38-59-48-17-6-28-22-28-41l0 0c0-19 11-35 28-41 24-10 45-26 59-48 16-22 24-47 24-74l0-14-262 0 0 14c0 27 8 52 24 74 14 22 35 38 59 48 17 6 28 22 28 41l0 0c0 19-11 35-28 41-24 10-45 26-59 48-16 22-24 47-24 74l0 14 262 0z m-280 30l0 15 226 0c5 0 8 4 8 8 0 5-3 9-8 9l-226 0 0 14 298 0 0-14-16 0c-5 0-8-4-8-9 0-4 3-8 8-8l16 0 0-15z m259 30c-6 4-14-1-13-8 1-6 9-9 14-4 4 3 3 10-1 12-1 1 0 0 0 0z"/>
<glyph glyph-name="star" unicode="&#84;" d="M493 322l-161 15-64 148c-5 11-19 11-24 0l-64-148-161-15c-11-1-16-15-7-23l121-106-35-158c-3-11 9-20 19-14l139 82 139-82c10-6 22 3 19 14l-35 158 121 106c9 8 4 22-7 23z m-225 163c-5 11-19 11-24 0l-64-148-161-15c-11-1-16-15-7-23l121-106-35-158c-3-11 9-20 19-14l31 18c4 177 86 302 151 373z m243-170c-3 8-9 13-18 14l-156 15-31 72c-2 4-6 5-10 4-4-2-6-6-4-10l33-76c1-3 3-5 6-5l161-15c3 0 4-2 5-3 0-1 1-4-2-6l-121-107c-2-2-3-4-3-7l36-158c1-3-1-5-2-5-1-1-3-2-6-1l-139 83c-3 1-5 1-8 0l-139-83c-3-1-5 0-6 1-1 0-3 2-2 5l18 82c1 4-1 8-5 9-4 0-8-2-9-6l-18-82c-2-8 1-16 7-21 7-4 16-5 23-1l135 81 135-81c3-1 7-2 11-2 4 0 8 1 12 3 6 5 9 13 7 21l-34 154 118 104c6 5 9 13 6 21z m-395-165c-1-4 2-8 6-9 0 0 1 0 1 0 4 0 7 2 8 6l10 44c0 3-1 5-3 7l-121 107c-3 2-2 5-2 6 1 1 2 3 5 3l161 15c3 0 5 2 6 5l64 148c1 3 4 3 5 3 1 0 4 0 5-3l17-40c2-4 6-6 10-4 4 2 6 6 4 10l-17 40c-4 8-11 12-19 12-8 0-15-4-19-12l-62-144-156-15c-9-1-15-6-18-14-3-8 0-16 6-21l118-104z"/>
<glyph glyph-name="star-border" unicode="&#85;" d="M511 315c-3 8-9 13-18 14l-156 15-31 72c-2 4-6 5-10 4-4-2-6-6-4-10l33-76c1-3 3-5 6-5l161-15c3 0 4-2 5-3 0-1 1-4-2-6l-121-107c-2-2-3-4-3-7l36-158c1-3-1-5-2-5-1-1-3-2-6-1l-139 83c-3 1-5 1-8 0l-139-83c-3-1-5 0-6 1-1 0-3 2-2 5l18 82c1 4-1 8-5 9-4 0-8-2-9-6l-18-82c-2-8 1-16 7-21 7-4 16-5 23-1l135 81 135-81c3-1 7-2 11-2 4 0 8 1 12 3 6 5 9 13 7 21l-34 154 118 104c6 5 9 13 6 21z m-219 133l-17 40c-4 8-11 12-19 12-8 0-15-4-19-12l-62-144-156-15c-9-1-15-6-18-14-3-8 0-16 6-21l118-104-9-40c-1-4 2-8 6-9 0 0 1 0 1 0 4 0 7 2 8 6l10 44c0 3-1 5-3 7l-121 107c-3 2-2 5-2 6 1 1 2 3 5 3l161 15c3 0 5 2 6 5l64 148c1 3 4 3 5 3 1 0 4 0 5-3l17-40c2-4 6-6 10-4 4 2 6 6 4 10z"/>
<glyph glyph-name="helmet-heavy" unicode="&#86;" d="M183 212c0-4-4-7-8-7-4 0-7 3-7 7 0 5 3 8 7 8 4 0 8-3 8-8z m0-75c0-4-4-8-8-8-4 0-7 4-7 8 0 4 3 7 7 7 4 0 8-3 8-7z m-25 40c0-4-3-7-7-7-4 0-8 3-8 7 0 5 4 8 8 8 4 0 7-3 7-8z m49 0c0-4-4-7-8-7-4 0-7 3-7 7 0 5 3 8 7 8 4 0 8-3 8-8z m137 38c0-4-3-7-7-7-4 0-8 3-8 7 0 4 4 8 8 8 4 0 7-4 7-8z m0-76c0-4-3-7-7-7-4 0-8 3-8 7 0 5 4 8 8 8 4 0 7-3 7-8z m-24 41c0-4-3-7-7-7-4 0-8 3-8 7 0 4 4 8 8 8 4 0 7-4 7-8z m49 0c0-4-4-7-8-7-4 0-7 3-7 7 0 4 3 8 7 8 4 0 8-4 8-8z m50-56l-14 25c0 9 0 45 0 81 0 24 0 43 0 57 0 16 0 23 0 27 0 41-10 79-29 110-2 4-7 5-10 3-4-2-5-7-3-10 14-24 23-51 26-81l-86 0 1 10c1 10-3 20-10 27l-23 24c-2 2-5 4-7 5l0 94c3 0 7-1 10-3 20-8 48-24 72-53 3-3 8-3 11 0 3 2 3 7 1 10-26 30-57 48-78 57-15 7-33 7-48 0-21-9-52-27-78-57-31-37-47-82-47-136 0-4 0-11 0-27 0-14 0-33 0-57 0-36 0-72 0-81l-14-25c-8-13-3-31 11-39l54-33c6-3 9 0 11 2 2 4 1 8-3 10l-55 34c-6 4-9 12-5 19l15 27c1 1 1 2 1 4 0 31 0 72 0 105l93 0 7-109c1-8 4-16 9-21l9-11c3-2 5-4 9-5l0-91c-3 1-6 2-8 3l-47 29c-4 2-8 1-10-3-2-3-1-8 2-10l47-29c7-4 15-6 23-6 8 0 16 2 23 6l129 79c14 8 19 26 11 39z m-118 177l52 0c4 0 7-3 7-7 0-4-3-7-7-7l-53 0z m-2-29l54 0c12 0 22 10 22 22 0 12-10 22-22 22l-51 0 0 5 88 0c0-3 0-30 0-53l-92 0z m-177-4c0 23 0 50 0 53l88 0 0-5-51 0c-12 0-22-10-22-22 0-12 10-22 22-22l54 0 1-4z m89 33l1-14-53 0c-4 0-7 3-7 7 0 4 3 7 7 7z m7 72c-7-7-11-17-10-27l1-10-86 0c9 97 75 140 115 157 3 2 7 3 11 3l0-94c-3-1-6-3-8-5z m38-253c-1 0-3 0-4 2l-10 10c-3 4-4 8-5 13l-14 202c0 6 2 12 6 16l23 23c1 1 2 2 4 2 2 0 3-1 4-2l23-23c4-4 6-10 6-16l-14-202c-1-5-2-9-5-13l-10-10c-1-2-3-2-4-2z m145-22l-130-79c-2-1-5-2-7-3l0 91c3 1 5 3 8 5l9 11c5 5 8 13 9 21l7 109 93 0c0-33 0-74 0-105 0-2 0-3 1-4l15-27c4-7 1-15-5-19z"/>
<glyph glyph-name="helmet-light" unicode="&#87;" d="M496 341c11 28 16 61 16 98 0 10-7 19-17 22-10 2-20-2-25-10-29-47-65-73-90-87-21-11-39-16-45-17-11 5-22 9-34 12 0 25-20 45-45 45-25 0-45-20-45-45-12-3-23-7-34-12-6 1-24 6-45 17-25 14-61 40-90 87-5 8-15 12-25 10-10-3-17-12-17-22 0-37 5-70 16-98 15-36 38-64 70-81-14-25-23-54-25-84-21-4-37-22-37-44 0-25 20-45 45-45l143 0c4-21 22-36 44-36 22 0 40 15 44 36l60 0c4 0 8 4 8 8 0 4-4 7-8 7l-59 0 0 60 142 0c17 0 30-13 30-30 0-16-13-30-30-30l-53 0c-4 0-7-3-7-7 0-4 3-8 7-8l53 0c25 0 45 20 45 45 0 22-16 40-37 44-2 30-11 59-25 84 32 17 55 45 70 81z m-466 5c-10 27-15 58-15 92 0 6 4 8 6 8 0 0 1 0 2 0 2 0 5 0 7-3 31-50 69-78 95-92 13-7 24-11 33-14-8-5-16-11-23-17 0 0 0 0 0 0-3-2-6-5-8-7-1 0-1-1-1-1-1-1-2-2-3-3 0 0-1 0-1 0-1-2-2-3-3-4-1 0-1-1-2-1 0-1-1-2-2-3 0 0-1-1-1-1-1-1-2-2-3-4-1 0-1 0-1 0-1-1-2-3-3-4 0 0 0 0-1-1-1-1-2-2-2-3-1-1-1-1-1-1-1-1-2-3-3-4 0 0 0-1 0-1-1-1-2-2-3-4 0 0 0 0-1 0-1-2-2-3-3-5-29 16-50 40-63 73z m181-169l-56 0c-4 0-8-3-8-7 0-5 4-8 8-8l56 0 0-60-142 0c-17 0-30 14-30 30 0 17 13 30 30 30l56 0c4 0 8 3 8 8 0 4-4 7-8 7l-49 0c3 30 12 58 26 82 0 0 0 0 1 0 18 32 46 58 78 73 0 0 0 0 0 0 10 5 20 9 30 11z m225 0l-135 0 0 67c0 4-3 7-8 7-4 0-7-3-7-7l0-149 0 0c0 0 0 0 0 0 0-16-14-30-30-30-16 0-30 14-30 30 0 0 0 0 0 0l0 75 0 189c0 16 14 30 30 30 16 0 30-14 30-30l0-85c0-4 3-8 7-8 5 0 8 4 8 8l0 69c10-2 20-6 30-11 0 0 0 0 0 0 32-15 60-41 78-73 1 0 1 0 1 0 14-24 23-52 26-82z m-17 96c-1 2-2 3-3 5-1 0-1 0-1 0-1 2-2 3-3 4 0 0 0 1 0 1-1 1-2 3-3 4 0 0 0 0-1 1 0 1-1 2-2 3-1 1-1 1-1 1-1 1-2 3-3 4 0 0 0 0-1 0-1 2-2 3-3 4 0 0-1 1-1 1-1 1-2 2-2 3-1 0-1 1-2 1-1 1-2 2-3 4 0 0-1 0-1 0-1 1-2 2-3 3 0 0 0 1-1 1-2 2-5 5-8 7 0 0 0 0 0 0-7 6-15 12-23 17 9 3 20 7 33 14 26 14 64 42 95 92 3 4 8 4 9 3 2 0 6-2 6-8 0-34-5-65-15-92-13-33-34-57-63-73z"/>
<glyph glyph-name="helmet-medium" unicode="&#88;" d="M417 331c-2 3-7 5-10 3-4-2-5-7-3-11 12-23 19-49 19-76l0-221c0-6-4-11-10-11l-78 0 15 129 31 18c3 1 4 4 4 6l0 63c0 6-5 12-12 12l-77 1c-4 0-7-1-10-4-2-2-3-6-3-9l7-89-34-44-34 44 7 89c0 3-1 7-3 9-3 3-6 4-10 4l-77-1c-7 0-12-6-12-12l0-60c0-4 2-8 6-11l29-16 5-44c0-4 4-7 8-6 4 0 7 4 7 8l-6 45c0 4-2 7-6 9l-28 17 0 55 72 1-7-87c0-3 0-6 2-9l37-46c3-3 6-5 10-5 4 0 7 2 10 5l37 46c2 3 2 6 2 9l-7 87 72-1 0-55-28-17c-4-2-6-5-6-9l-16-133c0-4 1-7 3-10 2-2 6-4 9-4l81 0c14 0 25 11 25 26l0 221c0 29-7 58-21 84z m-29 38c-25 26-57 42-91 49l13 62c3 13-6 25-19 28-4 1-9 2-14 2-14 3-28 3-42 0-5 0-10-1-14-2-13-3-22-15-19-28l13-63c-80-14-141-85-141-170l0-221c0-15 11-26 25-26l81 0c3 0 7 2 9 4 2 3 3 6 3 10l-5 41c0 4-4 7-8 6-4 0-7-4-7-8l5-38-78 0c-6 0-10 5-10 11l0 221c0 78 56 142 130 156l4-21c1-6 7-10 13-10l40 0c6 0 12 4 13 10l4 21c32-6 61-21 84-44 3-3 8-3 11 0 3 3 3 7 0 10z m-93 114l-20-96-38 0-20 96c-1 5 2 9 8 10 3 1 8 2 12 3 13 1 25 1 38 0 4-1 9-2 12-3 6-1 9-5 8-10z"/>
<glyph glyph-name="arrow" unicode="&#89;" d="M328 143l-46 37 0 156c0 4-3 8-7 8-4 0-8-4-8-8l0-288-22 0 0 391 22 0 0-56c0-5 4-8 8-8 4 0 7 3 7 8l0 56 17 0c1 0 1 1 2 1 5 2 6 8 3 11l-42 58c-2 2-4 3-6 3-3 0-5-1-6-3l-43-58c-2-3-1-9 4-11 0 0 1-1 2-1l17 0 0-259-46-37c-3-2-5-6-5-9l0-42c0-4 3-7 8-7 4 0 7 3 7 7l0 40 36 29 0-118-36-26 0 29c0 5-3 8-7 8-5 0-8-3-8-8l0-33c0-5 3-9 7-12 2-1 4-1 6-1 2 0 5 1 7 2l42 31 30 0 42-31c2-1 5-2 7-2 2 0 4 0 6 1 4 3 7 7 7 12l0 121c0 3-2 7-5 9z m-91 311l-9 0 28 38 27-38z m81-437l-36 26 0 118 36-29z"/>
<glyph glyph-name="axes" unicode="&#90;" d="M503 455c-1 2-3 3-5 4-2 1-6 0-7-3-9-14-22-25-38-29-13-4-27-3-39 2l5 9c1 1 1 3 1 5-1 1-2 3-3 4l-9 5 12 20c1 1 1 3 1 5-1 1-2 3-3 4l-29 16c-3 2-7 1-9-2l-11-20-9 4c-3 2-7 1-9-2l-6-11-19 12c-3 2-7 1-9-2l-48-66c-2-2-2-4-1-6 1-2 3-4 5-4l32-3-5-8c-1-1-1-3 0-5 0-2 1-3 3-4l8-5-55-94-55 94 8 5c3 2 4 6 3 9l-5 8 32 3c2 0 4 2 5 4 1 2 1 4-1 6l-48 66c-2 3-6 4-9 2l-19-12-6 11c-1 2-3 3-4 3-2 1-4 0-5-1l-9-4-11 20c-2 3-6 4-9 2l-29-16c-1-1-2-3-3-4 0-2 0-4 1-5l12-20-9-5c-3-2-4-6-2-9l5-9c-12-5-26-6-39-2-16 4-29 15-38 29-1 3-4 4-7 3-2 0-4-2-5-4-15-39-11-83 10-119 21-36 57-61 98-67 1 0 1 0 2 0 1 0 3 0 4 1 2 2 3 6 1 8-15 27-9 61 15 81l5-9c1-2 2-3 4-3 1 0 1 0 2 0 1 0 2 0 3 0l8 5 68-117-112-195c-1-1-1-3-1-5 0-1 1-3 3-4l28-16c1-1 3-1 4-1 2 0 4 1 5 3l100 172 100-172c0-1 2-3 4-3 0 0 1 0 1 0 1 0 3 0 4 1l28 16c3 2 4 6 2 9l-28 50c0 0 0 0 0 0l-84 145 68 117 8-5c1 0 2 0 3 0 3 0 5 1 6 3l5 9c24-20 30-54 15-81-2-2-1-6 1-8 1-1 3-1 4-1 1 0 1 0 2 0 41 6 77 30 98 67 21 36 25 80 10 119z m-115 28l18-10-9-15-17 10z m-75-73l-27 2 38 52 14-10z m-125 54l38-52-27-2-25 44z m-82 9l18 10 8-15-17-10z m1-189c-32 8-60 29-77 58-17 30-21 64-12 96 10-11 23-20 38-24 16-4 33-3 49 4l27-48c-26-20-36-55-25-86z m45 78l-44 77 45 26 44-77z m21-3l17 10 58-102-11-19z m-20-282l17-10-6-10-17 10z m-5-48l-17 10 10 17 17-10z m211 48l6-10-17-10-6 10z m5-48l-10 17 17 10 10-17z m-12 60l-17-10-71 123 11 20z m-175-10l-17 10 162 280 17-10z m183 283l-45 26 44 77 45-26z m122-20c-17-29-45-50-77-58 11 31 1 66-25 86l27 48c16-7 33-8 49-4 15 4 28 13 38 24 9-32 5-66-12-96z"/>
<glyph glyph-name="joker" unicode="&#48;" d="M429 441l-44 61c-1 2-2 3-4 3l0 0-42 7c-2 0-4-1-6-3l-35-47-13 44 0 0c0 1 0 1 0 2-2 1-4 2-5 2l-47 0c-2 0-4-1-6-2 0-1 0-1 0-2l0 0-13-44-35 47c-2 2-4 3-6 3l-42-7 0 0c-2 0-3-1-4-3l-44-61c-2-2-2-5 0-7 2-3 5-3 7-2l56 25c4-9 6-19 6-28l0-76c-19-3-33-19-33-39 0-20 15-37 36-39 4-18 13-34 25-47l-61-22c-2-1-4-3-4-6 0-2 2-4 4-5l58-21c-34-4-61-33-61-68l0-100c0-3 3-6 7-6l266 0c4 0 7 3 7 6l0 103c0 17-7 34-20 47-11 11-25 17-41 18l58 21c2 1 4 3 4 5 0 3-2 5-4 6l-61 22c12 13 21 29 25 47 21 2 36 19 36 39 0 20-14 36-33 39l0 76c0 9 2 19 6 28l56-25c2-1 5-1 7 2 2 2 2 5 0 7z m-158 57l-15-41-15 41z m-165-46l25 35 10-19z m242-89c-11 12-27 18-43 18-20 0-38-9-49-25-11 16-29 25-49 25-16 0-32-6-43-18l0 17c13 9 27 14 43 14 17 0 32-6 45-16 1-1 3-1 4-1 1 0 3 0 4 1 13 10 28 16 45 16 16 0 30-5 43-14z m-217-49c0 13 9 24 21 27l0-43c0-3 0-7 0-10-12 2-21 13-21 26z m-2-208c0 30 23 54 52 56l-26-54c-1-3-1-5 1-7 2-2 5-3 7-1l64 30 23-65 0-53-121 0z m254 3l0-97-121 0 0 53 23 65 64-30c2-2 5-1 7 1 2 2 2 4 1 7l-26 54c14 0 27-5 36-15 11-10 16-24 16-38z m-67 71c-1 0-3-1-3-3-1-2-1-3 0-5l25-54-54 26c-1 0-3 0-5 0-1-1-2-2-3-4l-20-56-20 56c-1 2-2 3-3 4-2 0-4 0-5 0l-54-26 25 54c1 2 1 3 0 5 0 2-2 3-3 3l-57 20 51 18c4-3 8-6 12-9 5-25 28-44 54-44 26 0 49 19 54 44 4 3 8 6 12 9l51-18z m-98 22c11-5 24-8 38-8 14 0 27 3 38 8-6-15-21-25-38-25-17 0-32 10-38 25z m38 5c-51 0-92 41-92 91l0 45c9 16 25 26 43 26 19 0 35-10 44-27 1-2 3-3 5-3 2 0 4 1 5 3 9 17 25 27 44 27 18 0 34-10 43-26l0-45c0-50-41-91-92-91z m125 107c0-13-9-24-21-26 0 3 0 7 0 10l0 43c12-3 21-14 21-27z m-23 154c0 0 0 0 0 0-7-12-10-26-10-39l0-35c-13 8-28 12-43 12-18 0-35-5-49-15-14 10-31 15-49 15-15 0-30-4-43-12l0 35c0 13-3 27-10 39l-13 26 30 5 58-81c2-2 4-3 5-3 2 0 3 1 4 2 3 2 3 5 1 8l-16 24 10 36 17-48c1-2 3-4 6-4 3 0 5 2 6 4l17 48 10-36-16-24c-2-3-2-6 1-8 1-1 2-2 4-2 1 0 3 1 5 3l58 81 30-5z m13 0l10 19 25-35z m-69-182l-92 0c-4 0-7-3-7-6 0-29 24-53 53-53 29 0 53 24 53 53 0 3-3 6-7 6z m-46-47c-20 0-37 15-40 35l80 0c-3-20-20-35-40-35z m-24 72c1 2 0 4-1 6l-17 19c-2 2-6 2-8 0-3-2-3-6-1-8l8-9-16 0c-4 0-6-3-6-6 0-3 2-6 6-6l29 0c3 0 5 1 6 4z m83 8l-16 0 8 9c2 2 2 6-1 8-2 2-6 2-8 0l-17-19c-1-2-2-4-1-6 1-3 3-4 6-4l29 0c4 0 7 3 7 6 0 3-3 6-7 6z"/>
<glyph glyph-name="windmill" unicode="&#49;" d="M511 259c-1 3-4 5-7 5l-124 0 0 123c0 2-1 5-2 6l-116 116c-2 3-6 4-9 2-3-1-5-4-5-7l0-124-123 0c-2 0-5-1-6-2l-51-51c-4-4-4-9 0-12 3-4 8-4 12 0l45 45 86-87c-1-3-2-5-2-9l-180 0 28 29c4 3 4 8 0 12-3 3-8 3-12 0l-42-43c-3-2-4-6-2-9 1-3 4-5 7-5l124 0 0-123c0-2 1-5 2-6l116-116c2-2 4-3 6-3 1 0 2 0 3 1 3 1 5 4 5 7l0 59c0 5-3 8-8 8-5 0-8-3-8-8l0-38-96 96 87 86c3-1 5-2 9-2l0-112c0-4 3-8 8-8 5 0 8 4 8 8l0 35 123 0c2 0 5 1 6 2l116 116c3 2 4 6 2 9z m-247 113l0 111 96-96-87-86c-3 1-5 2-9 2z m-119-9l103 0 0-60c-11-2-20-7-28-15z m4-218l0 103 60 0c2-11 7-20 15-28z m107 80c-5 0-10 1-15 4-10 5-16 16-16 27 0 5 1 10 4 15 5 10 16 16 27 16 5 0 10-1 15-4 10-5 16-16 16-27 0-5-1-10-4-15-5-10-16-16-27-16z m8-76l0 60 0 0c11 2 20 7 28 15l75-75z m123 3l-86 87c2 5 3 11 3 17 0 14-6 27-16 36l75 75 0-103-41 0c-5 0-9-3-9-8 0-5 4-8 9-8l161 0z"/>
</font>
</defs>
</svg>
