<?xml version="1.0" encoding="iso-8859-1"?>
<!-- Generator: Adobe Illustrator 21.0.0, SVG Export Plug-In . SVG Version: 6.00 Build 0)  -->
<svg version="1.1" id="Capa_1" xmlns="http://www.w3.org/2000/svg" xmlns:xlink="http://www.w3.org/1999/xlink" x="0px" y="0px"
	 viewBox="0 0 512 512" style="enable-background:new 0 0 512 512;" xml:space="preserve">
<g>
	<g>
		<path d="M272.965,451.578l-14.781-24.098l13.292-22.848c1.35-2.32,1.357-5.185,0.019-7.511s-3.817-3.761-6.501-3.761h-27.739
			l-13.362-21.782c-1.363-2.223-3.784-3.578-6.393-3.578s-5.029,1.355-6.393,3.578l-13.362,21.782h-27.737
			c-2.684,0-5.163,1.435-6.501,3.761c-1.339,2.326-1.331,5.19,0.019,7.511l13.291,22.847l-14.783,24.099
			c-1.42,2.314-1.479,5.216-0.152,7.585c1.327,2.369,3.83,3.837,6.545,3.837h29.053l13.538,23.272
			c1.343,2.309,3.812,3.729,6.482,3.729c2.67,0,5.14-1.42,6.482-3.729L237.52,463h29.052c2.715,0,5.219-1.468,6.545-3.837
			C274.443,456.794,274.385,453.892,272.965,451.578z M251.953,408.36l-2.676,4.6l-2.822-4.6H251.953z M217.5,389.844l2.157,3.517
			h-4.314L217.5,389.844z M188.545,408.36l-2.821,4.598l-2.675-4.598H188.545z M181.826,447.999l3.556-5.797l3.372,5.797H181.826z
			 M217.501,467.585l-2.668-4.586h5.335L217.501,467.585z M228.894,447.999h-22.787l-11.819-20.316l11.853-19.322h22.717
			l11.854,19.323L228.894,447.999z M246.248,447.999l3.371-5.795l3.555,5.795H246.248z"/>
	</g>
</g>
<g>
	<g>
		<path d="M450.5,469H418c-3.309,0-6-2.691-6-6v-2c0-3.309,2.691-6,6-6c11.579,0,21-9.421,21-21v-3c0-11.579-9.421-21-21-21h-24.265
			c-3.383-10.434-13.189-18-24.735-18h-5.981c-3.25-16.166-14.341-29.53-29.126-35.929l19.815-24.022
			C366.89,325.642,376,312.116,376,296.5v-26c0-21.78-17.72-39.5-39.5-39.5h-242C72.72,231,55,248.72,55,270.5v26
			c0,14.621,7.992,27.403,19.83,34.232l20.389,25.291c-14.842,6.379-25.981,19.77-29.239,35.978H60c-14.337,0-26,11.663-26,26
			c0,14.337,11.663,26,26,26h5v18.166C65,489.645,87.355,512,114.834,512h199.332C341.645,512,364,489.645,364,462.166V444h5
			c11.912,0,21.97-8.054,25.035-19H418c3.309,0,6,2.691,6,6v3c0,3.309-2.691,6-6,6c-11.579,0-21,9.421-21,21v2
			c0,11.579,9.421,21,21,21h32.5c4.143,0,7.5-3.357,7.5-7.5S454.643,469,450.5,469z M65,429h-5c-6.065,0-11-4.935-11-11
			s4.935-11,11-11h5V429z M94.5,246h242c12.815,0,23.356,9.891,24.407,22.439C354.083,263.064,345.563,260,336.5,260h-242
			c-9.063,0-17.583,3.064-24.407,8.439C71.144,255.891,81.685,246,94.5,246z M349,462.166C349,481.374,333.373,497,314.166,497
			H114.834C95.627,497,80,481.374,80,462.166v-60.332C80,382.626,95.627,367,114.834,367H137.5c4.143,0,7.5-3.357,7.5-7.5
			s-3.357-7.5-7.5-7.5h-26.256l-12.899-16H142.5c4.143,0,7.5-3.357,7.5-7.5s-3.357-7.5-7.5-7.5h-48
			c-11.643,0-21.407-8.165-23.885-19.067C77.253,306.989,85.53,310,94.5,310h174.25c4.143,0,7.5-3.357,7.5-7.5s-3.357-7.5-7.5-7.5
			H94.5c-8.087,0-15.268-3.94-19.732-10c4.574-6.245,11.824-10,19.732-10h242c7.909,0,15.158,3.755,19.732,10
			c-4.464,6.059-11.646,10-19.732,10h-37.75c-4.143,0-7.5,3.357-7.5,7.5s3.357,7.5,7.5,7.5h37.75c8.97,0,17.247-3.011,23.885-8.067
			C357.907,312.835,348.143,321,336.5,321h-164c-4.143,0-7.5,3.357-7.5,7.5s3.357,7.5,7.5,7.5h158.503l-13.197,16H291.5
			c-4.143,0-7.5,3.357-7.5,7.5s3.357,7.5,7.5,7.5h22.666C333.373,367,349,382.626,349,401.834V462.166z M369,429h-5v-22h5
			c6.065,0,11,4.935,11,11S375.065,429,369,429z"/>
	</g>
</g>
<g>
	<g>
		<path d="M190.5,150c-20.126,0-36.5,16.374-36.5,36.5c0,20.126,16.374,36.5,36.5,36.5c20.126,0,36.5-16.374,36.5-36.5
			C227,166.374,210.626,150,190.5,150z M190.5,208c-11.855,0-21.5-9.645-21.5-21.5s9.645-21.5,21.5-21.5s21.5,9.645,21.5,21.5
			S202.355,208,190.5,208z"/>
	</g>
</g>
<g>
	<g>
		<path d="M297.5,121c-14.061,0-25.5,11.439-25.5,25.5c0,14.061,11.439,25.5,25.5,25.5c14.061,0,25.5-11.439,25.5-25.5
			C323,132.439,311.561,121,297.5,121z M297.5,157c-5.79,0-10.5-4.71-10.5-10.5s4.71-10.5,10.5-10.5c5.79,0,10.5,4.71,10.5,10.5
			S303.29,157,297.5,157z"/>
	</g>
</g>
<g>
	<g>
		<path d="M271.5,0C245.309,0,224,21.309,224,47.5S245.309,95,271.5,95c26.191,0,47.5-21.309,47.5-47.5S297.691,0,271.5,0z
			 M271.5,80C253.579,80,239,65.421,239,47.5S253.579,15,271.5,15S304,29.579,304,47.5S289.421,80,271.5,80z"/>
	</g>
</g>
<g>
	<g>
		<path d="M74.5,118c-4.143,0-7.5,3.357-7.5,7.5v8c0,4.143,3.357,7.5,7.5,7.5s7.5-3.357,7.5-7.5v-8C82,121.357,78.643,118,74.5,118z
			"/>
	</g>
</g>
<g>
	<g>
		<path d="M100.5,145h-8c-4.143,0-7.5,3.357-7.5,7.5s3.357,7.5,7.5,7.5h8c4.143,0,7.5-3.357,7.5-7.5S104.643,145,100.5,145z"/>
	</g>
</g>
<g>
	<g>
		<path d="M73.5,163c-4.143,0-7.5,3.357-7.5,7.5v8c0,4.143,3.357,7.5,7.5,7.5s7.5-3.357,7.5-7.5v-8C81,166.357,77.643,163,73.5,163z
			"/>
	</g>
</g>
<g>
	<g>
		<path d="M55.5,144h-8c-4.143,0-7.5,3.357-7.5,7.5s3.357,7.5,7.5,7.5h8c4.143,0,7.5-3.357,7.5-7.5S59.643,144,55.5,144z"/>
	</g>
</g>
<g>
	<g>
		<path d="M444.5,315c-4.143,0-7.5,3.357-7.5,7.5v8c0,4.143,3.357,7.5,7.5,7.5s7.5-3.357,7.5-7.5v-8
			C452,318.357,448.643,315,444.5,315z"/>
	</g>
</g>
<g>
	<g>
		<path d="M470.5,342h-8c-4.143,0-7.5,3.357-7.5,7.5s3.357,7.5,7.5,7.5h8c4.143,0,7.5-3.357,7.5-7.5S474.643,342,470.5,342z"/>
	</g>
</g>
<g>
	<g>
		<path d="M443.5,360c-4.143,0-7.5,3.357-7.5,7.5v8c0,4.143,3.357,7.5,7.5,7.5s7.5-3.357,7.5-7.5v-8
			C451,363.357,447.643,360,443.5,360z"/>
	</g>
</g>
<g>
	<g>
		<path d="M425.5,341h-8c-4.143,0-7.5,3.357-7.5,7.5s3.357,7.5,7.5,7.5h8c4.143,0,7.5-3.357,7.5-7.5S429.643,341,425.5,341z"/>
	</g>
</g>
<g>
</g>
<g>
</g>
<g>
</g>
<g>
</g>
<g>
</g>
<g>
</g>
<g>
</g>
<g>
</g>
<g>
</g>
<g>
</g>
<g>
</g>
<g>
</g>
<g>
</g>
<g>
</g>
<g>
</g>
</svg>
