<?xml version="1.0" encoding="iso-8859-1"?>
<!-- Generator: Adobe Illustrator 19.0.0, SVG Export Plug-In . SVG Version: 6.00 Build 0)  -->
<svg version="1.1" id="Capa_1" xmlns="http://www.w3.org/2000/svg" xmlns:xlink="http://www.w3.org/1999/xlink" x="0px" y="0px"
	 viewBox="0 0 511.999 511.999" style="enable-background:new 0 0 511.999 511.999;" xml:space="preserve">
<g>
	<g>
		<path d="M495.687,171.103c11.069-28.051,16.554-60.91,16.304-97.665c-0.071-10.363-6.821-19.203-16.796-21.996
			c-10.099-2.827-20.183,1.115-25.691,10.043c-28.926,46.888-64.417,72.717-89.097,86.128
			c-21.728,11.807-39.144,16.348-45.076,17.664c-10.977-5.124-22.505-9.223-34.487-12.18c-0.012-24.717-20.124-44.823-44.844-44.823
			c-24.72,0-44.833,20.105-44.844,44.823c-11.981,2.957-23.509,7.057-34.486,12.18c-5.945-1.319-23.356-5.861-45.076-17.664
			c-24.68-13.411-60.172-39.239-89.097-86.128C36.988,52.557,26.9,48.617,16.803,51.444C6.828,54.237,0.079,63.076,0.008,73.439
			c-0.25,36.754,5.235,69.614,16.304,97.665c14.313,36.272,37.658,63.404,69.446,80.766c-13.687,25.221-22.47,53.695-25.095,83.894
			c-20.82,3.868-36.638,22.155-36.638,44.078c0,24.727,20.117,44.844,44.845,44.844h143.026
			c3.814,20.886,22.132,36.773,44.103,36.773s40.289-15.887,44.103-36.773h60.214c4.127,0,7.471-3.345,7.471-7.471
			s-3.344-7.471-7.471-7.471h-59.472v-59.807h142.285c16.49,0,29.904,13.414,29.904,29.904c0,16.488-13.415,29.903-29.904,29.903
			h-52.93c-4.126,0-7.471,3.345-7.471,7.471s3.345,7.471,7.471,7.471h52.93c24.727,0,44.846-20.117,44.846-44.844
			c0-21.923-15.818-40.211-36.639-44.079c-2.625-30.199-11.407-58.672-25.096-83.894
			C458.029,234.506,481.374,207.376,495.687,171.103z M30.212,165.619c-10.363-26.265-15.499-57.244-15.261-92.079
			c0.038-5.635,4.512-7.325,5.883-7.709c0.465-0.129,1.316-0.318,2.353-0.318c1.992,0,4.668,0.692,6.594,3.816
			c30.832,49.981,68.854,77.487,95.321,91.76c12.683,6.839,23.949,11.379,32.676,14.334c-7.968,4.873-15.568,10.317-22.757,16.274
			c-0.114,0.095-0.228,0.188-0.343,0.283c-2.698,2.247-5.339,4.566-7.918,6.956c-0.334,0.309-0.665,0.62-0.997,0.93
			c-0.991,0.93-1.973,1.872-2.945,2.823c-0.275,0.269-0.554,0.534-0.828,0.805c-1.159,1.146-2.304,2.309-3.436,3.484
			c-0.361,0.374-0.715,0.753-1.073,1.131c-0.836,0.882-1.664,1.77-2.485,2.668c-0.369,0.403-0.739,0.806-1.105,1.212
			c-1.101,1.223-2.191,2.456-3.263,3.706c-0.166,0.194-0.329,0.393-0.495,0.589c-0.958,1.127-1.904,2.265-2.839,3.414
			c-0.293,0.36-0.585,0.721-0.876,1.084c-0.977,1.216-1.942,2.442-2.893,3.683c-0.094,0.122-0.189,0.242-0.283,0.365
			c-1.093,1.432-2.165,2.883-3.22,4.345c-0.142,0.198-0.284,0.397-0.425,0.596c-0.961,1.341-1.907,2.693-2.837,4.058
			c-0.108,0.158-0.217,0.316-0.325,0.475c-1.049,1.548-2.08,3.111-3.089,4.69C64.481,223.337,43.259,198.684,30.212,165.619z
			 M211.154,334.997h-56.202h-0.001c-4.127,0-7.471,3.345-7.471,7.471c0,4.126,3.344,7.471,7.471,7.471h0.001h56.202v59.807H68.871
			c-16.489-0.001-29.903-13.415-29.903-29.904s13.414-29.904,29.904-29.904h56.198h0.001c4.127,0,7.471-3.345,7.471-7.471
			s-3.344-7.471-7.471-7.471h-0.001H75.728c2.903-29.883,12.283-57.89,26.711-82.29c0.023-0.038,0.052-0.071,0.075-0.109
			c18.965-31.97,46.072-57.135,78.391-72.776c0.099-0.048,0.183-0.113,0.278-0.163c9.555-4.591,19.57-8.338,29.971-11.142V334.997z
			 M436.272,334.996H300.845v-66.799c0-4.126-3.345-7.471-7.471-7.471c-4.127,0-7.471,3.345-7.471,7.471v74.269v74.124l-0.014,0.516
			c0,0.006,0.001,0.012,0.001,0.019c-0.275,16.252-13.573,29.392-29.891,29.392c-16.312,0-29.607-13.131-29.89-29.376
			c0-0.012,0.001-0.023,0.001-0.035l-0.015-74.64V159.033v-5.914c0-16.488,13.414-29.904,29.904-29.904
			c16.489,0,29.904,13.414,29.904,29.904v5.914v79.283v0.001c0,4.126,3.344,7.471,7.471,7.471c4.126,0,7.471-3.345,7.471-7.471
			v-0.001v-69.8c10.402,2.805,20.419,6.552,29.976,11.145c0.094,0.051,0.177,0.115,0.274,0.16
			c32.318,15.641,59.425,40.806,78.39,72.776c0.023,0.039,0.052,0.072,0.076,0.111C423.989,277.108,433.369,305.114,436.272,334.996
			z M418.652,238.993c-1.011-1.583-2.045-3.148-3.096-4.7c-0.102-0.149-0.204-0.297-0.305-0.446
			c-0.938-1.378-1.893-2.741-2.862-4.094c-0.136-0.19-0.271-0.382-0.407-0.571c-1.06-1.468-2.136-2.924-3.232-4.361
			c-0.085-0.112-0.172-0.221-0.258-0.333c-0.959-1.252-1.933-2.49-2.921-3.718c-0.286-0.356-0.572-0.71-0.86-1.064
			c-0.941-1.155-1.893-2.302-2.857-3.436c-0.161-0.19-0.32-0.383-0.482-0.573c-1.074-1.253-2.167-2.488-3.269-3.714
			c-0.363-0.403-0.729-0.802-1.095-1.201c-0.825-0.901-1.657-1.795-2.498-2.681c-0.355-0.374-0.706-0.75-1.063-1.121
			c-1.134-1.177-2.279-2.341-3.44-3.489c-0.271-0.269-0.548-0.531-0.821-0.798c-0.974-0.953-1.958-1.896-2.951-2.828
			c-0.332-0.311-0.662-0.622-0.996-0.93c-2.578-2.389-5.218-4.707-7.915-6.953c-0.117-0.098-0.234-0.193-0.352-0.29
			c-7.187-5.956-14.785-11.398-22.751-16.269c8.727-2.954,19.994-7.495,32.677-14.334c26.466-14.273,64.489-41.777,95.321-91.759
			c2.93-4.75,7.589-3.879,8.947-3.499c1.371,0.383,5.845,2.074,5.883,7.709c0.237,34.835-4.898,65.813-15.261,92.079
			C468.741,198.685,447.519,223.337,418.652,238.993z"/>
	</g>
</g>
<g>
</g>
<g>
</g>
<g>
</g>
<g>
</g>
<g>
</g>
<g>
</g>
<g>
</g>
<g>
</g>
<g>
</g>
<g>
</g>
<g>
</g>
<g>
</g>
<g>
</g>
<g>
</g>
<g>
</g>
</svg>
