<?xml version="1.0" encoding="iso-8859-1"?>
<!-- Generator: Adobe Illustrator 19.0.0, SVG Export Plug-In . SVG Version: 6.00 Build 0)  -->
<svg version="1.1" id="Capa_1" xmlns="http://www.w3.org/2000/svg" xmlns:xlink="http://www.w3.org/1999/xlink" x="0px" y="0px"
	 viewBox="0 0 512.004 512.004" style="enable-background:new 0 0 512.004 512.004;" xml:space="preserve">
<g>
	<g>
		<path d="M394.663,276.801c-1.836-6.859-6.235-12.589-12.382-16.134c-6.149-3.55-13.314-4.495-20.172-2.658
			c-5.358,1.435-10.023,4.44-13.502,8.616c-0.572-0.392-1.154-0.771-1.757-1.118c-6.15-3.55-13.313-4.495-20.17-2.659
			c-6.662,1.783-12.255,5.987-15.824,11.86c-5.703-2.721-12.115-3.328-18.282-1.676c-6.859,1.837-12.591,6.239-16.139,12.391
			l-24.34,42.16c-2.071,3.587-0.842,8.174,2.745,10.245c1.182,0.682,2.471,1.006,3.743,1.006c2.592,0,5.113-1.346,6.502-3.751
			l24.342-42.163c1.547-2.682,4.042-4.599,7.027-5.398c2.285-0.612,4.646-0.508,6.833,0.266l-33.576,58.164l-54.03,14.909
			c-4.318,1.19-8.904-1.014-10.679-5.151c-0.492-1.136-0.742-2.326-0.742-3.538c0-2.453,1.025-4.833,2.813-6.529l23.804-22.589
			c11.975-10.713,13.064-29.167,2.41-41.201c-5.544-6.266-13.529-9.86-21.907-9.86c-7.164,0-14.056,2.613-19.401,7.354
			l-46.685,41.334c-8.238,7.307-12.963,17.797-12.963,28.781v34.85c0,2.117-0.405,4.166-1.172,6.01l-5.871,13.673
			c-4.25-0.879-8.658-0.45-12.742,1.301c-5.368,2.302-9.476,6.573-11.569,12.025l-12.822,33.407
			c-1.484,3.867,0.447,8.205,4.314,9.689s8.206-0.447,9.689-4.314l12.822-33.407c0.629-1.638,1.863-2.921,3.477-3.613
			c1.612-0.691,3.395-0.702,5.016-0.027l95.97,39.925c0.041,0.018,0.079,0.041,0.121,0.059c0.061,0.026,0.122,0.043,0.183,0.068
			l0.765,0.318c3.245,1.35,4.801,4.977,3.541,8.259l-13.1,34.13c-1.484,3.867,0.447,8.205,4.314,9.689
			c3.859,1.482,8.203-0.44,9.689-4.314l13.1-34.13c3.363-8.761,0.686-18.255-6.078-23.99l9.065-21.221
			c1.444-3.465,4.087-6.322,7.426-8.036l29.43-15.02c3.689-1.883,5.154-6.4,3.271-10.089c-1.884-3.69-6.401-5.153-10.09-3.271
			l-29.446,15.028c-6.504,3.338-11.631,8.884-14.412,15.556l-8.688,20.34l-79.239-32.964l5.681-13.23
			c1.562-3.759,2.354-7.745,2.354-11.849v-34.85c0-6.697,2.885-13.097,7.911-17.555l46.685-41.334
			c2.603-2.309,5.961-3.581,9.453-3.581c4.084,0,7.975,1.749,10.675,4.801c5.207,5.881,4.655,14.909-1.23,20.126
			c-0.063,0.056-0.126,0.114-0.188,0.172l-23.889,22.67c-4.758,4.516-7.487,10.862-7.487,17.41c0,3.275,0.666,6.473,1.967,9.476
			c4.7,10.962,16.922,16.84,28.438,13.674l84.478-23.311c8.742-1.903,16.309-7.428,20.792-15.188l34.021-58.923
			c1.547-2.683,4.044-4.601,7.031-5.401c2.987-0.799,6.109-0.388,8.795,1.162c2.677,1.543,4.592,4.039,5.393,7.025
			c0.802,2.99,0.39,6.113-1.161,8.798l-35.848,62.098c-1.629,2.819-4.03,5.102-6.925,6.591l-38.17,19.48
			c-3.689,1.883-5.154,6.4-3.271,10.089c1.884,3.69,6.4,5.154,10.09,3.271l38.191-19.491c5.481-2.82,10.002-7.121,13.074-12.44
			l35.848-62.098C395.559,290.831,396.503,283.663,394.663,276.801z M311.949,329.32c-2.394,4.143-6.448,7.081-11.124,8.061
			c-0.153,0.032-0.306,0.069-0.457,0.111l-10.053,2.774l33.214-57.535c1.546-2.679,4.043-4.594,7.03-5.394
			c2.988-0.8,6.111-0.388,8.798,1.163c0.489,0.282,0.947,0.606,1.385,0.952L311.949,329.32z"/>
	</g>
</g>
<g>
	<g>
		<path d="M419.534,51.588c-3.866-1.484-8.205,0.448-9.689,4.314l-12.822,33.407c-0.629,1.638-1.863,2.921-3.477,3.613
			c-1.613,0.692-3.395,0.702-5.016,0.027l-3.29-1.369c-0.041-0.018-0.079-0.04-0.121-0.057c-0.035-0.014-0.07-0.023-0.104-0.037
			L291.49,52.578c-3.245-1.35-4.801-4.977-3.541-8.259l13.1-34.13c1.484-3.867-0.447-8.205-4.314-9.689
			c-3.869-1.485-8.206,0.448-9.689,4.314l-13.1,34.13c-3.322,8.655-0.743,18.021,5.841,23.776l-8.828,21.436
			c-1.444,3.465-4.087,6.322-7.425,8.035l-32.97,16.82c-3.689,1.882-5.155,6.399-3.272,10.089c1.325,2.599,3.957,4.093,6.686,4.093
			c1.146,0,2.311-0.264,3.402-0.821l32.987-16.828c6.504-3.338,11.631-8.884,14.449-15.646l8.384-20.361l79.294,32.988
			l-5.469,13.318c-1.562,3.759-2.354,7.745-2.354,11.849v34.85c0,6.697-2.885,13.097-7.911,17.555l-46.685,41.334
			c-2.604,2.309-5.961,3.581-9.453,3.581c-4.084,0-7.975-1.749-10.675-4.801c-5.207-5.881-4.655-14.909,1.23-20.126
			c0.063-0.056,0.126-0.114,0.188-0.172l23.889-22.67c4.758-4.516,7.487-10.862,7.487-17.41c0-3.275-0.666-6.473-1.967-9.476
			c-4.701-10.963-16.924-16.84-28.438-13.674l-84.479,23.311c-8.741,1.904-16.308,7.428-20.791,15.188l-34.021,58.923
			c-1.547,2.683-4.044,4.601-7.031,5.401c-2.99,0.799-6.111,0.388-8.795-1.162c-2.677-1.543-4.592-4.039-5.393-7.025
			c-0.802-2.989-0.39-6.113,1.161-8.798l35.848-62.098c1.629-2.819,4.03-5.102,6.926-6.591l34.93-17.83
			c3.688-1.883,5.153-6.401,3.27-10.09c-1.883-3.69-6.402-5.153-10.09-3.27l-34.951,17.841c-5.481,2.819-10.002,7.121-13.074,12.44
			l-35.848,62.097c-3.556,6.154-4.5,13.323-2.66,20.184c1.839,6.858,6.238,12.588,12.385,16.133
			c4.098,2.366,8.645,3.574,13.253,3.574c2.308,0,4.631-0.303,6.919-0.917c5.358-1.435,10.023-4.44,13.502-8.616
			c0.572,0.392,1.154,0.771,1.757,1.118c4.099,2.366,8.646,3.574,13.255,3.574c2.307,0,4.628-0.303,6.915-0.915
			c6.663-1.783,12.256-5.988,15.825-11.861c3.588,1.712,7.454,2.593,11.366,2.593c2.307,0,4.629-0.303,6.915-0.916
			c6.859-1.837,12.591-6.239,16.139-12.391l25.26-43.75c2.071-3.587,0.842-8.174-2.745-10.245
			c-3.587-2.072-8.175-0.843-10.245,2.745l-25.262,43.753c-1.546,2.682-4.042,4.599-7.027,5.398
			c-2.284,0.612-4.646,0.508-6.833-0.266l33.576-58.164l54.03-14.909c4.321-1.186,8.905,1.014,10.679,5.151
			c0.492,1.136,0.742,2.326,0.742,3.538c0,2.453-1.025,4.833-2.813,6.529l-23.804,22.589c-11.975,10.714-13.064,29.168-2.41,41.201
			c5.544,6.266,13.529,9.86,21.907,9.86c7.164,0,14.056-2.613,19.401-7.354l46.685-41.334c8.238-7.307,12.963-17.797,12.963-28.781
			v-34.85c0-2.117,0.405-4.166,1.218-6.121l5.592-13.618c1.496,0.327,3.01,0.505,4.526,0.505c2.865,0,5.729-0.583,8.449-1.75
			c5.368-2.302,9.476-6.573,11.569-12.025l12.822-33.407C425.333,57.411,423.401,53.073,419.534,51.588z M188.477,229.273
			c-1.546,2.679-4.043,4.594-7.03,5.394c-2.989,0.8-6.112,0.387-8.798-1.163c-0.489-0.282-0.946-0.606-1.385-0.952l28.793-49.869
			c2.394-4.143,6.448-7.081,11.124-8.06c0.153-0.032,0.306-0.069,0.457-0.111l10.053-2.774L188.477,229.273z"/>
	</g>
</g>
<g>
</g>
<g>
</g>
<g>
</g>
<g>
</g>
<g>
</g>
<g>
</g>
<g>
</g>
<g>
</g>
<g>
</g>
<g>
</g>
<g>
</g>
<g>
</g>
<g>
</g>
<g>
</g>
<g>
</g>
</svg>
