<?xml version="1.0" encoding="iso-8859-1"?>
<!-- Generator: Adobe Illustrator 18.0.0, SVG Export Plug-In . SVG Version: 6.00 Build 0)  -->
<!DOCTYPE svg PUBLIC "-//W3C//DTD SVG 1.1//EN" "http://www.w3.org/Graphics/SVG/1.1/DTD/svg11.dtd">
<svg version="1.1" id="Capa_1" xmlns="http://www.w3.org/2000/svg" xmlns:xlink="http://www.w3.org/1999/xlink" x="0px" y="0px"
	 viewBox="0 0 464.449 464.449" style="enable-background:new 0 0 464.449 464.449;" xml:space="preserve">
<g>
	<path d="M238.982,257.107c-1.251-2.593-3.876-4.24-6.755-4.24s-5.504,1.648-6.755,4.241c-6.179,12.806-17.016,22.778-30.515,28.08
		c-18.872,7.415-34.986,20.179-46.602,36.912c-9.414,13.56-15.432,29.379-17.401,45.745c-0.256,2.13,0.412,4.268,1.835,5.873
		c1.424,1.605,3.466,2.524,5.611,2.524h187.652c2.146,0,4.188-0.919,5.611-2.524s2.091-3.743,1.835-5.873
		c-1.97-16.364-7.988-32.182-17.403-45.745c-11.617-16.732-27.729-29.496-46.596-36.911
		C256.001,279.886,245.162,269.913,238.982,257.107z M303.774,330.655c6.505,9.369,10.999,19.626,13.41,30.586H147.271
		c2.411-10.962,6.904-21.22,13.408-30.588c9.916-14.285,23.666-25.179,39.765-31.504c12.863-5.052,23.82-13.489,31.784-24.306
		c7.965,10.818,18.925,19.255,31.788,24.307C280.108,305.475,293.856,316.369,303.774,330.655z"/>
	<path d="M148.355,142.35c11.616,16.732,27.73,29.492,46.601,36.902c13.5,5.302,24.337,15.277,30.517,28.085
		c1.251,2.593,3.876,4.241,6.755,4.241s5.504-1.648,6.755-4.241c6.181-12.809,17.019-22.784,30.519-28.086
		c18.866-7.41,34.979-20.171,46.595-36.902c9.416-13.561,15.435-29.379,17.404-45.742c0.256-2.13-0.411-4.268-1.835-5.873
		s-3.466-2.524-5.611-2.524H138.401c-2.146,0-4.188,0.919-5.611,2.524c-1.423,1.605-2.091,3.743-1.835,5.873
		C132.925,112.973,138.942,128.791,148.355,142.35z M317.185,103.211c-2.412,10.959-6.905,21.216-13.41,30.584
		c-9.917,14.283-23.665,25.174-39.758,31.495c-12.864,5.053-23.823,13.492-31.789,24.311c-7.964-10.819-18.923-19.258-31.788-24.311
		c-16.097-6.321-29.846-17.211-39.762-31.495c-6.504-9.367-10.996-19.624-13.407-30.585H317.185z"/>
	<path d="M374.69,0H89.759c-4.143,0-7.5,3.358-7.5,7.5v56.706c0,4.142,3.357,7.5,7.5,7.5h8.955v12.558
		c0,27.36,8.217,53.658,23.763,76.051c15.186,21.874,36.267,38.561,60.962,48.259c9.772,3.838,16.087,12.949,16.087,23.21v0.882
		c0,10.255-6.314,19.361-16.088,23.2c-24.696,9.703-45.776,26.394-60.961,48.268c-15.546,22.394-23.763,48.693-23.763,76.052v12.556
		h-8.955c-4.143,0-7.5,3.358-7.5,7.5v56.706c0,4.142,3.357,7.5,7.5,7.5H374.69c4.143,0,7.5-3.358,7.5-7.5v-56.706
		c0-4.142-3.357-7.5-7.5-7.5h-8.949v-12.556c0-27.358-8.219-53.656-23.767-76.052c-15.186-21.873-36.264-38.563-60.957-48.268
		c-9.772-3.838-16.087-12.944-16.087-23.199v-0.882c0-10.261,6.314-19.372,16.087-23.21c24.692-9.699,45.771-26.386,60.957-48.259
		c15.548-22.395,23.767-48.693,23.767-76.051V71.706h8.949c4.143,0,7.5-3.358,7.5-7.5V7.5C382.19,3.358,378.833,0,374.69,0z
		 M367.19,449.449H97.259v-41.706H367.19V449.449z M350.741,84.264c0,24.286-7.292,47.626-21.088,67.497
		c-13.486,19.425-32.201,34.243-54.12,42.852c-15.553,6.109-25.603,20.699-25.603,37.172v0.882c0,16.466,10.05,31.053,25.602,37.161
		c21.92,8.615,40.635,23.436,54.121,42.861c13.796,19.872,21.088,43.213,21.088,67.498v12.556H113.714v-12.556
		c0-24.287,7.291-47.628,21.085-67.499c13.485-19.426,32.201-34.247,54.124-42.861c15.553-6.109,25.603-20.696,25.603-37.161v-0.882
		c0-16.472-10.05-31.063-25.604-37.172c-21.922-8.609-40.638-23.427-54.123-42.852c-13.794-19.869-21.085-43.209-21.085-67.497
		V71.707h237.027V84.264z M97.259,56.706V43.355h204.768c4.143,0,7.5-3.358,7.5-7.5s-3.357-7.5-7.5-7.5H97.259V15H367.19v13.352
		H352.76c-4.143,0-7.5,3.358-7.5,7.5s3.357,7.5,7.5,7.5h14.431v13.355H97.259z"/>
	<path d="M331.917,29.614c-5.294-3.579-12.5,1.082-11.577,7.326c0.873,5.907,8.47,8.591,12.718,4.214
		C336.406,37.897,335.753,32.172,331.917,29.614C331.518,29.344,332.337,29.894,331.917,29.614z"/>
</g>
<g>
</g>
<g>
</g>
<g>
</g>
<g>
</g>
<g>
</g>
<g>
</g>
<g>
</g>
<g>
</g>
<g>
</g>
<g>
</g>
<g>
</g>
<g>
</g>
<g>
</g>
<g>
</g>
<g>
</g>
</svg>
