<?xml version="1.0" encoding="iso-8859-1"?>
<!-- Generator: Adobe Illustrator 18.0.0, SVG Export Plug-In . SVG Version: 6.00 Build 0)  -->
<!DOCTYPE svg PUBLIC "-//W3C//DTD SVG 1.1//EN" "http://www.w3.org/Graphics/SVG/1.1/DTD/svg11.dtd">
<svg version="1.1" id="Capa_1" xmlns="http://www.w3.org/2000/svg" xmlns:xlink="http://www.w3.org/1999/xlink" x="0px" y="0px"
	 viewBox="0 0 460.313 460.313" style="enable-background:new 0 0 460.313 460.313;" xml:space="preserve">
<g>
	<path d="M385.966,63.881L346.493,8.619c-0.858-1.201-2.152-1.986-3.572-2.223l0.001-0.005l-37.894-6.315
		c-2.056-0.342-4.127,0.505-5.353,2.19l-31.33,43.079l-11.787-39.94l-0.008,0.002c-0.167-0.565-0.417-1.109-0.765-1.605
		c-1.03-1.467-2.71-2.341-4.502-2.341h-42.255c-1.792,0-3.473,0.874-4.502,2.341c-0.347,0.495-0.598,1.039-0.765,1.605l-0.008-0.002
		l-11.787,39.94l-31.33-43.079c-1.226-1.685-3.297-2.532-5.353-2.19L117.391,6.39l0.001,0.008c-1.421,0.238-2.715,1.02-3.573,2.221
		L74.347,63.881c-1.445,2.024-1.353,4.766,0.226,6.688c1.578,1.922,4.25,2.544,6.517,1.52l50.241-22.724
		c3.417,8.101,5.207,16.88,5.207,25.677v67.74c-16.957,2.651-29.973,17.355-29.973,35.044c0,18.518,14.266,33.758,32.384,35.33
		c3.74,16.131,11.666,30.673,22.56,42.427l-54.427,19.363c-2.193,0.78-3.657,2.855-3.657,5.182s1.465,4.402,3.657,5.182
		l52.423,18.64c-30.785,3.282-54.846,29.404-54.846,61.045v89.817c0,3.038,2.462,5.5,5.5,5.5h240.006c3.038,0,5.5-2.462,5.5-5.5
		v-92.12c0-15.983-6.249-30.981-17.597-42.23c-10.009-9.922-22.918-15.755-36.687-16.712l51.861-18.44
		c2.192-0.779,3.657-2.854,3.657-5.182s-1.464-4.402-3.657-5.182l-54.426-19.363c10.894-11.754,18.819-26.296,22.56-42.427
		c18.118-1.572,32.384-16.812,32.384-35.33c0-17.689-13.016-32.393-29.973-35.044V75.019c0-8.788,1.786-17.56,5.197-25.654
		l50.239,22.724c2.266,1.025,4.938,0.401,6.517-1.52C387.319,68.647,387.411,65.905,385.966,63.881z M243.445,12.461l-13.289,36.732
		l-13.289-36.732H243.445z M95.177,53.644l22.371-31.319l8.9,17.175L95.177,53.644z M312.788,133.521
		c-10.062-10.025-23.78-15.839-38.563-15.839c-17.695,0-33.865,8.331-44.063,22.24c-10.198-13.91-26.367-22.24-44.063-22.24
		c-14.782,0-28.502,5.816-38.563,15.84v-14.717c11.201-8.097,24.478-12.365,38.568-12.365c14.966,0,29.03,4.819,40.672,13.937
		c0.996,0.78,2.193,1.17,3.391,1.17c1.198,0,2.397-0.391,3.393-1.171c11.63-9.116,25.69-13.935,40.67-13.935
		c14.074,0,27.347,4.269,38.557,12.367V133.521z M117.564,177.826c0-11.603,8.119-21.338,18.973-23.842v38.015
		c0,3.305,0.175,6.569,0.51,9.787C125.937,199.476,117.564,189.611,117.564,177.826z M115.659,364.995
		c0-26.643,20.784-48.51,46.989-50.271l-23.182,48.767c-0.999,2.102-0.567,4.605,1.078,6.25c1.646,1.645,4.148,2.077,6.25,1.078
		l57.028-27.109l20.846,58.598v47.004H115.659V364.995z M344.665,362.693v86.62H235.668v-47.003l20.835-58.598l57.027,27.108
		c2.101,1,4.604,0.567,6.25-1.078c1.646-1.646,2.077-4.149,1.078-6.25l-23.238-48.886c12.243,0.041,23.866,4.907,32.703,13.668
		C339.572,337.442,344.665,349.665,344.665,362.693z M284.325,298.14c-1.466,0.521-2.643,1.64-3.238,3.077
		c-0.596,1.438-0.554,3.061,0.114,4.466l23.084,48.561l-48.561-23.084c-1.406-0.668-3.029-0.71-4.466-0.114
		c-1.438,0.595-2.556,1.772-3.077,3.238l-18.013,50.662l-18.022-50.662c-0.521-1.466-1.64-2.643-3.077-3.238
		c-1.438-0.595-3.06-0.553-4.466,0.114l-48.561,23.084l23.084-48.561c0.668-1.406,0.709-3.028,0.114-4.466
		c-0.595-1.438-1.772-2.556-3.238-3.077l-50.663-18.014l45.13-16.056c3.596,2.984,7.419,5.703,11.437,8.13
		c4.423,22.866,24.704,39.792,48.263,39.792c23.556,0,43.835-16.927,48.254-39.792c4.018-2.427,7.84-5.146,11.435-8.129
		l45.13,16.056L284.325,298.14z M195.613,279.017c10.695,4.261,22.353,6.608,34.549,6.608c12.198,0,23.856-2.347,34.552-6.609
		c-6.15,13.061-19.483,21.978-34.547,21.978C215.101,300.993,201.766,292.077,195.613,279.017z M230.162,274.625
		c-45.56,0-82.625-37.065-82.625-82.625v-40.158c7.707-14.517,22.022-23.16,38.563-23.16c16.949,0,31.581,9.057,39.14,24.228
		c0.93,1.867,2.837,3.047,4.923,3.047s3.993-1.18,4.923-3.047c7.559-15.17,22.19-24.227,39.14-24.228
		c16.541,0,30.856,8.644,38.563,23.16v40.158C312.788,237.559,275.722,274.625,230.162,274.625z M342.761,177.826
		c0,11.785-8.374,21.649-19.483,23.96c0.336-3.218,0.51-6.482,0.51-9.787v-38.015C334.641,156.488,342.761,166.224,342.761,177.826z
		 M321.453,39.546c-0.01,0.02-0.021,0.039-0.031,0.059c-5.648,10.896-8.634,23.142-8.634,35.415v30.7
		c-11.619-6.744-24.761-10.281-38.568-10.281c-16.025,0-31.167,4.745-44.054,13.764c-12.896-9.02-28.04-13.764-44.062-13.764
		c-13.811,0-26.955,3.535-38.568,10.278V75.042c0-12.289-2.993-24.549-8.653-35.452l-12.226-23.592l27.083-4.514l52.539,72.967
		c1.071,1.52,2.772,2.332,4.5,2.332c1.095,0,2.201-0.326,3.164-1.005c2.483-1.75,3.077-5.182,1.327-7.664l-15.159-21.506
		l9.448-32.014l15.425,42.637c0.788,2.178,2.856,3.629,5.172,3.629s4.384-1.451,5.172-3.629l15.425-42.637l9.448,32.014
		l-15.159,21.506c-1.75,2.482-1.156,5.914,1.327,7.664c0.963,0.679,2.068,1.005,3.164,1.005c1.728,0,3.429-0.812,4.5-2.332
		l52.539-72.967l27.083,4.514L321.453,39.546z M333.866,39.5l8.9-17.174l22.371,31.318L333.866,39.5z"/>
	<path d="M271.922,203.356h-83.521c-3.038,0-5.5,2.462-5.5,5.5c0,26.06,21.201,47.26,47.26,47.26s47.26-21.201,47.26-47.26
		C277.422,205.819,274.96,203.356,271.922,203.356z M230.162,245.116c-18.125,0-33.186-13.367-35.844-30.76h71.688
		C263.348,231.749,248.286,245.116,230.162,245.116z"/>
	<path d="M208.49,181.06c0.883-1.984,0.517-4.303-0.937-5.917l-15.017-16.686c-2.031-2.258-5.509-2.442-7.767-0.409
		c-2.258,2.032-2.441,5.509-0.409,7.767l6.755,7.506h-14.347c-3.038,0-5.5,2.462-5.5,5.5s2.462,5.5,5.5,5.5h26.697
		C205.637,184.322,207.606,183.044,208.49,181.06z"/>
	<path d="M283.556,173.322h-14.347l6.755-7.506c2.032-2.258,1.849-5.735-0.409-7.767c-2.257-2.032-5.735-1.849-7.767,0.409
		l-15.017,16.686c-1.453,1.614-1.82,3.933-0.937,5.917c0.884,1.984,2.853,3.262,5.024,3.262h26.697c3.038,0,5.5-2.462,5.5-5.5
		S286.594,173.322,283.556,173.322z"/>
</g>
<g>
</g>
<g>
</g>
<g>
</g>
<g>
</g>
<g>
</g>
<g>
</g>
<g>
</g>
<g>
</g>
<g>
</g>
<g>
</g>
<g>
</g>
<g>
</g>
<g>
</g>
<g>
</g>
<g>
</g>
</svg>
