<?xml version="1.0" encoding="iso-8859-1"?>
<!-- Generator: Adobe Illustrator 19.0.0, SVG Export Plug-In . SVG Version: 6.00 Build 0)  -->
<svg version="1.1" id="Capa_1" xmlns="http://www.w3.org/2000/svg" xmlns:xlink="http://www.w3.org/1999/xlink" x="0px" y="0px"
	 viewBox="0 0 511.999 511.999" style="enable-background:new 0 0 511.999 511.999;" xml:space="preserve">
<g>
	<g>
		<g>
			<path d="M275.639,265.264c0-1.661,0.046-3.347,0.136-5.011c0.224-4.141-2.952-7.68-7.092-7.904
				c-4.117-0.219-7.68,2.951-7.904,7.092c-0.104,1.932-0.157,3.891-0.157,5.823c0.001,10.328,1.492,20.6,4.431,30.531
				c0.965,3.266,3.956,5.38,7.197,5.38c0.705,0,1.423-0.1,2.135-0.31c3.977-1.175,6.246-5.353,5.069-9.33
				C276.922,282.988,275.64,274.148,275.639,265.264z"/>
			<path d="M264.422,225.644c-0.111,4.145,3.159,7.596,7.305,7.707c0.068,0.002,0.137,0.003,0.205,0.003
				c4.054,0,7.393-3.23,7.503-7.309c0.029-1.089,0.044-2.181,0.043-3.264c0-14.192-2.587-25.626-7.689-33.984
				c-2.162-3.539-6.781-4.658-10.322-2.496c-3.539,2.162-4.656,6.782-2.496,10.322c3.641,5.966,5.489,14.767,5.489,26.166
				C264.46,223.741,264.447,224.693,264.422,225.644z"/>
			<path d="M297.472,325.145c-1.424-1.711-2.807-3.496-4.11-5.304c-2.425-3.365-7.116-4.126-10.482-1.702
				c-3.364,2.425-4.127,7.117-1.702,10.482c1.507,2.091,3.105,4.153,4.753,6.132c5.469,6.57,11.748,13.434,18.663,20.403
				c1.468,1.48,3.398,2.22,5.329,2.22c1.912,0,3.825-0.725,5.289-2.181c2.942-2.92,2.961-7.675,0.04-10.619
				C308.643,337.918,302.662,331.38,297.472,325.145z"/>
			<path d="M366.311,391.015c-2.856-3.363-6.145-6.681-9.776-9.865c-0.128-0.113-0.262-0.222-0.399-0.326
				c-0.066-0.05-6.754-5.157-16.231-13.332c-3.141-2.707-7.881-2.36-10.591,0.782c-2.708,3.141-2.359,7.881,0.782,10.591
				c9.001,7.763,15.455,12.767,16.722,13.74c3.007,2.649,5.713,5.385,8.048,8.133c1.486,1.75,3.599,2.648,5.727,2.648
				c1.718,0,3.445-0.587,4.858-1.787C368.611,398.914,368.996,394.174,366.311,391.015z"/>
		</g>
	</g>
</g>
<g>
	<g>
		<path d="M250.366,159.855c-4.612-4.276-9.663-8.142-15.011-11.492c-3.512-2.202-8.149-1.138-10.349,2.377
			c-2.202,3.514-1.138,8.149,2.377,10.349c4.552,2.852,8.851,6.142,12.776,9.781c1.446,1.34,3.276,2.001,5.102,2.001
			c2.017,0,4.03-0.809,5.509-2.405C253.589,167.425,253.407,162.673,250.366,159.855z"/>
	</g>
</g>
<g>
	<g>
		<path d="M504.937,45.518V28.364c0-14.055-11.435-25.489-25.489-25.489c-14.055,0-25.489,11.435-25.489,25.489v17.154
			c-3.939,0.232-7.063,3.489-7.063,7.487V60.8h-94.469H65.104v-7.795c0-3.997-3.125-7.255-7.063-7.487V28.364
			c0-14.055-11.435-25.489-25.489-25.489c-14.055,0-25.488,11.435-25.488,25.489v17.154C3.125,45.749,0,49.007,0,53.004v74.843
			c0,4.148,3.361,7.509,7.509,7.509c4.148,0,7.509-3.361,7.509-7.509V60.513h35.069v7.795v375.474v7.701H15.018V174.569
			c0-4.148-3.361-7.509-7.509-7.509c-4.148,0-7.509,3.361-7.509,7.509v284.519c0,3.997,3.125,7.255,7.063,7.487v17.059
			c0,14.055,11.435,25.489,25.489,25.489c14.055,0,25.489-11.435,25.489-25.489v-17.059c3.939-0.231,7.063-3.489,7.063-7.487v-7.796
			h97.483h35.489c4.148,0,7.509-3.361,7.509-7.509c0-4.148-3.361-7.509-7.509-7.509h-30.685c-0.344-1.545-0.456-3.358-0.131-5.088
			c0.35-1.869,1.026-2.731,1.335-2.924c1.047-0.66,2.328-0.859,4.329-1.131c3.538-0.48,11.823-1.604,13.273-11.622
			c2.187-15.105-13.869-23.623-19.914-26.83c-6.647-3.527-11.114-8.342-10.169-10.961c0.663-1.839,3.89-3.746,6.737-5.429
			l0.151-0.09c8.35-4.936,18.636-12.007,24.118-22.964c7.368-14.726,2.149-29.625-6.504-36.166
			c-9.024-6.823-21.687-6.876-37.638-0.156l-1.757,0.743c-8.174,3.47-16.625,7.055-23.364,4.816
			c-4.747-1.578-8.489-5.867-12.823-10.834c-3.943-4.519-8.412-9.64-14.372-13.079c-7.77-4.484-17.127-5.357-25.558-2.898V75.818
			h24.828c4.284,26.762,3.391,53.721-2.69,80.17l-0.346,1.507c-3.018,13.125-0.312,26.976,7.422,38.003
			c7.001,9.981,17.587,16.86,29.446,19.288c0.274,0.443,0.55,0.89,0.82,1.325c2.586,4.142,5.028,8.054,4.795,11.386
			c-0.118,1.684-0.953,3.814-1.837,6.068c-1.698,4.333-3.812,9.724-2.283,15.876c1.909,7.686,9.169,13.54,18.946,15.278
			c2.308,0.41,4.633,0.61,6.951,0.61c13.443-0.001,26.644-6.699,34.335-17.892c10.157-14.782,9.896-36.439-0.649-53.89
			c-3.796-6.282-8.315-11.21-13.432-14.647c-1.82-1.223-4.217-3.252-6.753-5.401c-8.565-7.253-19.227-16.288-30.517-14.655
			c-5.627,0.808-10.35,4.053-14.037,9.643c-4.539,6.883-4.739,16.127-4.107,22.671c0.163,1.688,0.409,3.377,0.711,5.045
			c-3.95-2.336-7.409-5.499-10.095-9.329c-5.294-7.547-7.146-17.03-5.08-26.014l0.346-1.506c6.336-27.562,7.424-55.638,3.259-83.536
			h242.586l2.936,6.049c3.299,9.34-5.166,20.521-7.863,23.751c-2.065,2.474-4.301,4.854-6.668,7.372
			c-5.851,6.228-11.901,12.667-15.767,21.066c-8.333,18.107-2.868,41.138,12.711,53.572c2.343,1.87,4.775,3.431,7.124,4.941
			c3.849,2.472,7.484,4.806,9.47,7.808c4.263,6.443,1.738,16.077-1.731,27.083c-3.695,11.727-7.347,28.67,3.575,40.366
			c4.53,4.851,10.988,7.644,18.184,7.864c0.317,0.01,0.636,0.015,0.953,0.015c8.508,0,17.207-3.462,23.443-9.367
			c10.189-9.65,14.183-23.319,17.126-35.372l0.487-2.003c2.559-10.554,4.977-20.521,10.901-27.979
			c5.036-6.341,17.093-11.429,24.288-11.004v64.847l-44.202,46.777c-5.823,6.162-10.45,13.247-13.754,21.055
			c-7.309,17.273-7.419,37.133-0.304,54.488l10.232,24.953c4.16,10.148,5.239,21.199,3.123,31.959l-0.437,2.218h-20.581
			c0.459-2.87,0.716-6.218,0.526-9.96c-0.211-4.143-3.742-7.328-7.882-7.115c-4.142,0.212-7.328,3.74-7.115,7.882
			c0.192,3.763-0.285,6.908-0.845,9.194H244.408c-4.148,0-7.509,3.361-7.509,7.509c0,4.148,3.361,7.509,7.509,7.509h126.508
			c0.011,0,0.022,0.002,0.032,0.002c0.01,0,0.019-0.002,0.029-0.002h34.619c0.204,0.058,0.411,0.114,0.623,0.155
			c0.49,0.096,0.978,0.142,1.458,0.142c0.711,0,1.405-0.106,2.067-0.297h37.15v7.796c0,3.997,3.125,7.255,7.063,7.487v17.059
			c0,14.055,11.435,25.489,25.489,25.489s25.489-11.435,25.489-25.489v-17.059c3.939-0.231,7.063-3.489,7.063-7.487V53.004
			C512,49.007,508.875,45.749,504.937,45.518z M43.024,45.495H22.081V28.364c0-5.775,4.697-10.471,10.471-10.471
			s10.471,4.697,10.471,10.471V45.495z M43.024,483.634c0,5.775-4.697,10.471-10.471,10.471s-10.471-4.697-10.471-10.471v-17.037
			h20.943V483.634z M65.581,307.632c5.302-2.944,12.361-3.078,17.577-0.067c3.794,2.191,7.081,5.957,10.563,9.947
			c5.048,5.785,10.77,12.342,19.403,15.211c12.12,4.029,24.233-1.111,33.967-5.241l1.721-0.729
			c10.656-4.489,18.31-5.062,22.749-1.704c4.872,3.683,4.9,11.935,2.132,17.468c-3.705,7.406-11.345,12.626-18.331,16.755
			l-0.15,0.089c-4.526,2.676-10.727,6.341-13.223,13.264c-3.764,10.439,2.849,21.674,17.258,29.321
			c8.831,4.687,11.565,8.042,12.039,10.253c-0.131,0.018-0.258,0.035-0.378,0.052c-2.57,0.348-6.456,0.875-10.312,3.303
			c-4.155,2.616-7.029,7.187-8.095,12.867c-0.481,2.566-0.569,5.243-0.3,7.855h-86.62V307.632z M132.641,176.754
			c1.838-2.788,3.19-2.983,3.633-3.046c0.193-0.028,0.394-0.041,0.603-0.041c4.741,0,13.035,7.023,18.076,11.291
			c2.863,2.426,5.57,4.718,8.085,6.407c3.285,2.206,6.297,5.553,8.952,9.947c7.431,12.299,7.893,27.768,1.124,37.62
			c-5.651,8.223-16.458,12.745-26.28,11.001c-3.565-0.635-6.574-2.402-6.999-4.113c-0.374-1.508,0.629-4.067,1.69-6.775
			c1.198-3.058,2.557-6.523,2.835-10.496c0.576-8.2-3.469-14.677-7.037-20.392c-0.846-1.356-1.645-2.634-2.347-3.881
			C130.941,197.118,129.049,182.2,132.641,176.754z M416.845,436.274c2.509-13.439,1.106-27.209-4.085-39.873l-10.232-24.953
			c-5.608-13.676-5.52-29.327,0.239-42.939c2.604-6.153,6.25-11.737,10.839-16.593l33.288-35.226v159.583H416.845z M446.895,174.948
			c-13.446-0.406-29.088,7.931-36.048,16.692c-7.98,10.047-10.906,22.113-13.736,33.781l-0.481,1.98
			c-2.547,10.431-5.64,21.188-12.864,28.031c-3.519,3.333-8.88,5.395-13.609,5.245c-2.24-0.068-5.388-0.663-7.668-3.105
			c-4.175-4.47-4.249-12.844-0.228-25.6c3.382-10.731,8.493-26.947-0.067-39.885c-3.733-5.643-9.124-9.104-13.879-12.158
			c-2.126-1.364-4.133-2.653-5.872-4.042c-10.17-8.116-13.875-23.734-8.436-35.554c2.842-6.177,7.81-11.465,13.07-17.062
			c2.41-2.566,4.902-5.218,7.25-8.031c10.957-13.121,14.701-27.331,10.272-38.986c-0.056-0.147-0.117-0.294-0.182-0.439h82.48
			V174.948z M468.976,28.364c0-5.775,4.697-10.471,10.471-10.471s10.471,4.697,10.471,10.471v17.131h-20.943V28.364z
			 M489.919,483.634L489.919,483.634c0,5.775-4.697,10.471-10.471,10.471s-10.471-4.697-10.471-10.471v-17.037h20.943V483.634z
			 M496.982,451.484h-35.069v-7.701V184.487V68.309v-7.795h35.069V451.484z"/>
	</g>
</g>
<g>
	<g>
		<path d="M201.5,98.255c-14.317,0-25.965,11.648-25.965,25.966c0,14.317,11.648,25.965,25.965,25.965
			c14.318,0,25.966-11.648,25.966-25.965C227.465,109.901,215.818,98.255,201.5,98.255z M201.5,135.166
			c-6.035,0-10.947-4.911-10.947-10.947s4.911-10.948,10.947-10.948c6.036,0,10.948,4.911,10.948,10.948
			C212.447,130.255,207.536,135.166,201.5,135.166z"/>
	</g>
</g>
<g>
</g>
<g>
</g>
<g>
</g>
<g>
</g>
<g>
</g>
<g>
</g>
<g>
</g>
<g>
</g>
<g>
</g>
<g>
</g>
<g>
</g>
<g>
</g>
<g>
</g>
<g>
</g>
<g>
</g>
</svg>
