<?xml version="1.0" encoding="iso-8859-1"?>
<!-- Generator: Adobe Illustrator 19.0.0, SVG Export Plug-In . SVG Version: 6.00 Build 0)  -->
<svg version="1.1" id="Capa_1" xmlns="http://www.w3.org/2000/svg" xmlns:xlink="http://www.w3.org/1999/xlink" x="0px" y="0px"
	 viewBox="0 0 496 496" style="enable-background:new 0 0 496 496;" xml:space="preserve">
<g>
	<g>
		<g>
			<path d="M296,133.36V80h-16v66.448l6.48,1.256C370.8,164.088,432,233.184,432,312c0,92.64-82.536,168-184,168S64,404.64,64,312
				c0-78.816,61.2-147.912,145.52-164.296l6.48-1.256V80h-16v53.36C111.536,153.432,48,227.592,48,312c0,101.456,89.72,184,200,184
				s200-82.544,200-184C448,227.592,384.464,153.432,296,133.36z"/>
			<path d="M328,0H168v64h160V0z M312,48H184V16h128V48z"/>
			<path d="M168,296c0,19.312,8.704,37.816,24,51.336V384h112v-36.664c15.296-13.52,24-32.024,24-51.336c0-39.696-35.888-72-80-72
				S168,256.304,168,296z M312,296c0,15.648-7.648,30.72-20.984,41.352L288,339.76V368h-16v-16h-16v16h-16v-16h-16v16h-16v-28.24
				l-3.016-2.4C191.648,326.72,184,311.648,184,296c0-30.88,28.712-56,64-56C283.288,240,312,265.12,312,296z"/>
			<path d="M216,272c-13.232,0-24,10.768-24,24s10.768,24,24,24s24-10.768,24-24S229.232,272,216,272z M216,304
				c-4.416,0-8-3.592-8-8c0-4.408,3.584-8,8-8s8,3.592,8,8C224,300.408,220.416,304,216,304z"/>
			<path d="M280,320c13.232,0,24-10.768,24-24s-10.768-24-24-24s-24,10.768-24,24S266.768,320,280,320z M280,288
				c4.416,0,8,3.592,8,8c0,4.408-3.584,8-8,8c-4.416,0-8-3.592-8-8C272,291.592,275.584,288,280,288z"/>
			<path d="M328,176c-13.232,0-24,10.768-24,24v20.688l-5.656,5.656l11.312,11.312L320,227.312V200c0-4.408,3.584-8,8-8
				c4.416,0,8,3.592,8,8v24h24c4.416,0,8,3.592,8,8s-3.584,8-8,8h-27.312l-10.344,10.344l11.312,11.312l5.656-5.656H360
				c13.232,0,24-10.768,24-24s-10.768-24-24-24h-8v-8C352,186.768,341.232,176,328,176z"/>
			<path d="M168,176c-13.232,0-24,10.768-24,24v8h-8c-13.232,0-24,10.768-24,24s10.768,24,24,24h20.688l5.656,5.656l11.312-11.312
				L163.312,240H136c-4.416,0-8-3.592-8-8s3.584-8,8-8h24v-24c0-4.408,3.584-8,8-8s8,3.592,8,8v27.312l10.344,10.344l11.312-11.312
				L192,220.688V200C192,186.768,181.232,176,168,176z"/>
			<path d="M328,448c13.232,0,24-10.768,24-24v-8h8c13.232,0,24-10.768,24-24s-10.768-24-24-24h-20.688l-13.656-13.656
				l-11.312,11.312L332.688,384H360c4.416,0,8,3.592,8,8c0,4.408-3.584,8-8,8h-24v24c0,4.408-3.584,8-8,8c-4.416,0-8-3.592-8-8
				v-27.312l-10.344-10.344l-11.312,11.312l5.656,5.656V424C304,437.232,314.768,448,328,448z"/>
			<path d="M168,448c13.232,0,24-10.768,24-24v-20.688l5.656-5.656l-11.312-11.312L176,396.688V424c0,4.408-3.584,8-8,8
				s-8-3.592-8-8v-24h-24c-4.416,0-8-3.592-8-8c0-4.408,3.584-8,8-8h27.312l18.344-18.344l-11.312-11.312L156.688,368H136
				c-13.232,0-24,10.768-24,24s10.768,24,24,24h8v8C144,437.232,154.768,448,168,448z"/>
		</g>
	</g>
</g>
<g>
</g>
<g>
</g>
<g>
</g>
<g>
</g>
<g>
</g>
<g>
</g>
<g>
</g>
<g>
</g>
<g>
</g>
<g>
</g>
<g>
</g>
<g>
</g>
<g>
</g>
<g>
</g>
<g>
</g>
</svg>
