<?xml version="1.0" encoding="iso-8859-1"?>
<!-- Generator: Adobe Illustrator 19.0.0, SVG Export Plug-In . SVG Version: 6.00 Build 0)  -->
<svg version="1.1" id="Capa_1" xmlns="http://www.w3.org/2000/svg" xmlns:xlink="http://www.w3.org/1999/xlink" x="0px" y="0px"
	 viewBox="0 0 512 512" style="enable-background:new 0 0 512 512;" xml:space="preserve">
<g>
	<g>
		<g>
			<rect x="165.3" y="265.524" width="15.004" height="15.004"/>
			<rect x="190.306" y="265.524" width="15.004" height="15.004"/>
			<rect x="215.312" y="265.524" width="15.004" height="15.004"/>
			<path d="M256,0L57.871,95.34v144.507c0,59.118,18.374,116.042,53.137,164.615c34.731,48.531,83.251,85.129,140.314,105.84
				L256,512l4.677-1.698c57.064-20.711,105.584-57.31,140.315-105.84c34.762-48.574,53.137-105.496,53.137-164.615V95.34L256,0z
				 M263.503,493.166v-14.779h-15.004v14.779c-105.393-41.85-175.624-142.6-175.624-253.32V104.771l175.623-84.51v14.859h15.004
				V20.26l175.623,84.51v135.076h0.001C439.126,350.566,368.895,451.316,263.503,493.166z"/>
			
				<rect x="381.05" y="88.333" transform="matrix(0.8973 0.4414 -0.4414 0.8973 82.2036 -161.6677)" width="15.003" height="15.004"/>
			
				<rect x="358.615" y="77.293" transform="matrix(0.8973 0.4414 -0.4414 0.8973 75.0264 -152.8984)" width="15.003" height="15.003"/>
			
				<rect x="287.521" y="54.919" transform="matrix(0.8973 0.4414 -0.4414 0.8973 60.4831 -135.1367)" width="66.305" height="15.003"/>
			<path d="M136.574,380.061l-12.407,8.437c21.019,30.908,47.823,56.572,79.668,76.274l7.895-12.759
				C181.687,433.425,156.4,409.217,136.574,380.061z"/>
			
				<rect x="156.881" y="96.106" transform="matrix(0.4449 0.8956 -0.8956 0.4449 207.2009 -75.3492)" width="15.004" height="66.727"/>
			<path d="M357.574,307.245l14.107,5.106c1.758-4.86,3.355-9.846,4.745-14.82l-14.45-4.038
				C360.688,298.11,359.207,302.736,357.574,307.245z"/>
			<path d="M334.471,351.909c-14.232,20.531-31.928,37.858-52.596,51.5l8.266,12.522c22.271-14.7,41.335-33.364,56.661-55.474
				c8.369-12.074,15.47-25.007,21.106-38.44l-13.835-5.805C348.84,328.681,342.245,340.692,334.471,351.909z"/>
			<path d="M364.336,284.161l14.635,3.311c1.14-5.04,2.104-10.186,2.865-15.294l-14.84-2.212
				C366.289,274.708,365.395,279.483,364.336,284.161z"/>
			<path d="M97.86,124.152v116.914c0,49.01,14.758,96.205,42.678,136.485s66.936,70.66,112.83,87.858l2.633,0.986l2.633-0.986
				c45.894-17.198,84.909-47.578,112.83-87.858s42.678-87.475,42.678-136.485V124.152L256,45.585L97.86,124.152z M399.137,241.066
				c0,92.172-57.4,175.914-143.137,209.287c-85.738-33.373-143.137-117.115-143.137-209.287V133.45L256,62.337l143.137,71.113
				V241.066z"/>
			<rect x="278.507" y="199.558" width="15.004" height="15.004"/>
			<rect x="278.507" y="96.513" width="15.004" height="68.036"/>
			<rect x="278.507" y="174.552" width="15.004" height="15.004"/>
			<rect x="248.5" y="73.966" width="15.004" height="364.408"/>
			<rect x="276.007" y="233.566" width="110.627" height="15.004"/>
			<rect x="125.371" y="233.566" width="110.627" height="15.004"/>
		</g>
	</g>
</g>
<g>
</g>
<g>
</g>
<g>
</g>
<g>
</g>
<g>
</g>
<g>
</g>
<g>
</g>
<g>
</g>
<g>
</g>
<g>
</g>
<g>
</g>
<g>
</g>
<g>
</g>
<g>
</g>
<g>
</g>
</svg>
