<svg height="512pt" viewBox="-46 0 512 512" width="512pt" xmlns="http://www.w3.org/2000/svg"><path d="m90 452c-5.519531 0-10 4.480469-10 10s4.480469 10 10 10 10-4.480469 10-10-4.480469-10-10-10zm0 0"/><path d="m330 452h-200c-5.523438 0-10 4.476562-10 10s4.476562 10 10 10h200c5.523438 0 10-4.476562 10-10s-4.476562-10-10-10zm0 0"/><path d="m200.558594 186h-50.558594c-5.523438 0-10 4.476562-10 10v140c0 5.523438 4.476562 10 10 10h140c5.523438 0 10-4.476562 10-10v-50.558594c44.9375-4.992187 80-43.195312 80-89.441406 0-49.625-40.375-90-90-90-46.246094 0-84.449219 35.0625-89.441406 80zm79.441406 79.273438c-30.609375-4.398438-54.875-28.664063-59.273438-59.273438h59.273438zm-120 60.726562v-120h40.558594c4.625 41.652344 37.789062 74.816406 79.441406 79.441406v40.558594zm130-200c38.597656 0 70 31.402344 70 70 0 35.203125-26.121094 64.40625-60 69.273438v-69.273438c0-5.523438-4.476562-10-10-10h-69.273438c4.867188-33.875 34.070313-60 69.273438-60zm0 0"/><path d="m410 432c5.523438 0 10-4.476562 10-10v-412c0-5.523438-4.476562-10-10-10h-360c-27.570312 0-50 22.429688-50 50v412c0 27.570312 22.429688 50 50 50h360c5.523438 0 10-4.476562 10-10s-4.476562-10-10-10c-.347656 0-2.644531-1.074219-5.199219-6.1875-3.050781-6.101562-4.800781-14.78125-4.800781-23.8125s1.75-17.710938 4.800781-23.8125c2.554688-5.113281 4.851563-6.1875 5.199219-6.1875zm-10-20h-340v-392h40v96c0 8.878906 10.777344 13.363281 17.070312 7.070312l32.929688-32.929687 32.929688 32.929687c6.257812 6.257813 17.070312 1.867188 17.070312-7.070312v-96h200zm-280-392h60v71.859375l-22.929688-22.929687c-3.90625-3.90625-10.234374-3.90625-14.140624 0l-22.929688 22.929687zm-80 1.71875v391.28125c-7.253906 1.464844-14.058594 4.527344-20 9.003906v-372.003906c0-13.035156 8.359375-24.152344 20-28.28125zm10 470.28125c-16.542969 0-30-13.457031-30-30 0-16.570312 13.429688-30.011719 30-30.011719h335.675781c-3.59375 8.25-5.675781 18.566407-5.675781 30.011719s2.082031 21.753906 5.675781 30zm0 0"/></svg>