<?xml version="1.0" encoding="iso-8859-1"?>
<!-- Generator: Adobe Illustrator 19.0.0, SVG Export Plug-In . SVG Version: 6.00 Build 0)  -->
<svg version="1.1" id="Capa_1" xmlns="http://www.w3.org/2000/svg" xmlns:xlink="http://www.w3.org/1999/xlink" x="0px" y="0px"
	 viewBox="0 0 512.001 512.001" style="enable-background:new 0 0 512.001 512.001;" xml:space="preserve">
<g>
	<g>
		<path d="M408.72,103.484c-14.414-14.412-37.866-14.412-52.281,0l-15.29,15.29c-2.924,2.924-2.924,7.663,0,10.588
			c2.924,2.923,7.663,2.923,10.588,0l15.29-15.29c8.576-8.576,22.529-8.576,31.105,0c8.576,8.575,8.576,22.53,0,31.105
			l-67.647,67.648l-31.106-31.106l31.078-31.078c2.924-2.925,2.924-7.664,0-10.589c-2.924-2.923-7.663-2.923-10.588,0
			L99.416,360.507c-2.924,2.924-2.924,7.663,0,10.588c1.461,1.461,3.377,2.192,5.293,2.192c1.915,0,3.832-0.731,5.293-2.192
			l178.788-178.788l31.106,31.106l-69.583,69.583c-2.924,2.924-2.924,7.663,0,10.588c2.924,2.923,7.663,2.923,10.588,0
			L408.72,155.764C423.133,141.351,423.133,117.897,408.72,103.484z"/>
	</g>
</g>
<g>
	<g>
		<path d="M239.687,314.208c-2.924-2.923-7.664-2.923-10.586-0.001L52.705,490.603c-8.575,8.577-22.531,8.576-31.106,0.001
			c-8.576-8.577-8.576-22.531-0.001-31.106l67.125-67.125c2.924-2.925,2.924-7.664,0-10.588c-2.924-2.923-7.664-2.923-10.587,0
			l-67.124,67.125c-14.412,14.413-14.414,37.866,0,52.281c7.207,7.207,16.673,10.809,26.14,10.809
			c9.467,0,18.933-3.602,26.14-10.809l176.395-176.396C242.611,321.871,242.611,317.132,239.687,314.208z"/>
	</g>
</g>
<g>
	<g>
		<path d="M507.373,44.001l-18.219-8.167c-5.874-2.632-10.56-7.318-13.194-13.193l-8.165-18.217C466.59,1.732,463.915,0,460.965,0
			s-5.626,1.732-6.831,4.425l-8.165,18.217c-2.634,5.875-7.32,10.561-13.195,13.194l-18.218,8.166
			c-2.692,1.207-4.425,3.882-4.425,6.831s1.732,5.626,4.425,6.831l18.218,8.165c5.875,2.634,10.561,7.32,13.195,13.195l8.165,18.217
			c1.206,2.692,3.882,4.425,6.831,4.425s5.626-1.732,6.831-4.425l8.165-18.217c2.634-5.875,7.32-10.561,13.195-13.195l18.218-8.165
			c2.692-1.206,4.425-3.882,4.425-6.831S510.065,45.208,507.373,44.001z M483.032,52.166c-9.232,4.138-16.595,11.501-20.734,20.733
			l-1.333,2.975l-1.334-2.975c-4.137-9.232-11.501-16.595-20.733-20.733l-2.977-1.334l2.975-1.333
			c9.233-4.137,16.596-11.5,20.734-20.734l1.334-2.974l1.333,2.974c4.138,9.233,11.501,16.596,20.734,20.733l2.976,1.335
			L483.032,52.166z"/>
	</g>
</g>
<g>
	<g>
		<path d="M482.727,251.194l-18.217-8.165c-5.875-2.634-10.561-7.32-13.195-13.195l-8.165-18.218
			c-1.206-2.692-3.882-4.425-6.831-4.425c-2.95,0-5.626,1.732-6.831,4.425l-8.165,18.218c-2.634,5.875-7.32,10.561-13.195,13.195
			l-18.217,8.165c-2.692,1.206-4.425,3.882-4.425,6.831s1.732,5.626,4.425,6.831l18.217,8.165
			c5.875,2.634,10.561,7.32,13.195,13.195l8.165,18.218c1.206,2.692,3.882,4.425,6.831,4.425c2.95,0,5.626-1.732,6.831-4.425
			l8.165-18.218c2.634-5.875,7.32-10.561,13.195-13.195l18.217-8.165c2.692-1.206,4.425-3.882,4.425-6.831
			S485.42,252.4,482.727,251.194z M458.387,259.359c-9.232,4.138-16.595,11.501-20.733,20.734l-1.334,2.975l-1.334-2.975
			c-4.138-9.232-11.501-16.595-20.733-20.734l-2.975-1.334l2.975-1.334c9.232-4.137,16.595-11.501,20.733-20.733l1.334-2.974
			l1.334,2.974c4.138,9.232,11.501,16.595,20.733,20.733l2.976,1.334L458.387,259.359z"/>
	</g>
</g>
<g>
	<g>
		<path d="M301.623,69.137L277.758,58.44c-8.217-3.682-14.77-10.236-18.453-18.453L248.61,16.122
			c-1.207-2.692-3.882-4.425-6.831-4.425c-2.95,0-5.625,1.732-6.831,4.425l-10.696,23.865c-3.682,8.217-10.235,14.771-18.452,18.453
			l-23.865,10.696c-2.692,1.206-4.425,3.882-4.425,6.831c0,2.95,1.733,5.626,4.425,6.831l23.865,10.696
			c8.217,3.682,14.77,10.236,18.453,18.453l10.695,23.864c1.207,2.692,3.882,4.425,6.831,4.425c2.951,0,5.625-1.732,6.831-4.425
			l10.695-23.864c3.684-8.217,10.236-14.771,18.453-18.453L301.623,82.8c2.692-1.206,4.425-3.882,4.425-6.831
			C306.048,73.019,304.316,70.343,301.623,69.137z M271.637,79.833c-11.574,5.185-20.805,14.416-25.993,25.992l-3.864,8.622
			l-3.865-8.622c-5.186-11.575-14.417-20.806-25.992-25.992l-8.623-3.865l8.623-3.865c11.575-5.186,20.806-14.417,25.992-25.992
			l3.865-8.623l3.864,8.623c5.187,11.576,14.419,20.807,25.993,25.992l8.623,3.865L271.637,79.833z"/>
	</g>
</g>
<g>
</g>
<g>
</g>
<g>
</g>
<g>
</g>
<g>
</g>
<g>
</g>
<g>
</g>
<g>
</g>
<g>
</g>
<g>
</g>
<g>
</g>
<g>
</g>
<g>
</g>
<g>
</g>
<g>
</g>
</svg>
