<?xml version="1.0" encoding="iso-8859-1"?>
<!-- Generator: Adobe Illustrator 19.0.0, SVG Export Plug-In . SVG Version: 6.00 Build 0)  -->
<svg version="1.1" id="Capa_1" xmlns="http://www.w3.org/2000/svg" xmlns:xlink="http://www.w3.org/1999/xlink" x="0px" y="0px"
	 viewBox="0 0 512 512" style="enable-background:new 0 0 512 512;" xml:space="preserve">
<g>
	<g>
		<path d="M378.455,310.934c-2.124-6.907-4.749-13.515-7.805-19.64c-11.775-23.598-36.739-38.847-63.597-38.847H204.974
			c-27.305,0-52.575,15.856-64.379,40.396c-2.732,5.679-5.102,11.766-7.046,18.092c-10.323,33.602-13.49,99.706,12.498,134.877
			c10.881,14.726,26.078,22.509,43.948,22.509h58.783c4.153,0,7.52-3.367,7.52-7.52c0-4.153-3.367-7.52-7.52-7.52h-58.783
			c-13.275,0-23.694-5.367-31.852-16.408c-9.617-13.016-15.621-34.025-16.905-59.158c-1.113-21.796,1.387-45.11,6.688-62.365
			c1.723-5.608,3.817-10.988,6.222-15.99c9.314-19.364,29.264-31.876,50.826-31.876h102.079c21.207,0,40.888,11.981,50.14,30.522
			c2.688,5.388,5.005,11.223,6.886,17.344c5.301,17.255,7.801,40.569,6.687,62.365c-1.284,25.133-7.288,46.141-16.905,59.157
			c-8.158,11.041-18.577,16.408-31.852,16.408h-27.908c-4.153,0-7.52,3.367-7.52,7.52s3.367,7.52,7.52,7.52h27.908
			c17.87,0,33.066-7.784,43.948-22.509C391.945,410.641,388.778,344.537,378.455,310.934z"/>
	</g>
</g>
<g>
	<g>
		<path d="M430.091,288.463c-7.818-25.446-24.094-60.181-57.241-81.147c-1.815-1.148-3.647-2.275-5.48-3.403
			c-8.225-5.06-16.088-9.915-22.31-16.627c4.783-5.078,7.723-11.91,7.723-19.42v-6.371c0-13.986-10.18-25.631-23.518-27.934
			c-0.035-6.957,0.24-14.011,0.516-20.997c0.163-4.132,0.322-8.35,0.42-12.529c11.374-2.592,19.89-12.781,19.89-24.929V25.573
			C350.092,11.472,338.62,0,324.518,0h-44.616h-47.801h-44.616c-14.101,0-25.573,11.472-25.573,25.573v0.152
			c-4.08-0.548-8.514-0.915-9.766-0.921c-11.319-0.052-24.145-0.117-37.165,5.724c-10.79,4.84-20.032,12.399-26.727,21.86
			c-4.749,6.712-8.342,13.977-10.68,21.594c-5.057,16.477-3.737,33.556,3.717,48.092c11.636,22.691,32.678,37.121,51.727,48.244
			c0.167,0.098,0.339,0.189,0.514,0.274l30.632,14.837c0.684,0.864,1.411,1.693,2.19,2.472
			c-6.127,6.394-13.756,11.108-21.726,16.011c-1.833,1.128-3.665,2.255-5.48,3.403c-33.146,20.966-49.422,55.701-57.24,81.147
			c-14.747,48-19.355,142.315,17.586,192.31C114.806,501.494,135.305,512,160.422,512h191.156c25.117,0,45.616-10.506,60.927-31.227
			C449.447,430.778,444.838,336.463,430.091,288.463z M337.744,161.494v6.371c0,7.343-5.974,13.317-13.317,13.317H186.401
			c-7.343,0-13.316-5.974-13.316-13.317v-6.371c0-7.343,5.974-13.317,13.316-13.317h138.026
			C331.771,148.177,337.744,154.151,337.744,161.494z M287.422,15.039h37.096c5.809,0,10.534,4.726,10.534,10.534v49.532
			c0,5.809-4.725,10.534-10.534,10.534h-37.096V15.039z M286.929,100.68c11.692,0,21.763,0,28.221,0
			c-0.095,3.667-0.243,7.414-0.396,11.289c-0.271,6.867-0.531,13.987-0.502,21.169H197.76c0.029-7.183-0.242-14.301-0.513-21.169
			c-0.153-3.874-0.301-7.622-0.397-11.289c6.458,0,16.533,0,28.225,0c2.517,13.691,14.532,24.101,28.94,24.101h3.975
			C272.397,124.781,284.412,114.372,286.929,100.68z M176.951,67.571h0.001c0.03-0.273,0.047-0.549,0.047-0.826V35.577
			c0-0.228-0.032-0.432-0.047-0.649v-9.355c0-5.808,4.725-10.534,10.534-10.534h37.096v17.277c0,4.153,3.367,7.52,7.52,7.52
			c4.153,0,7.52-3.367,7.52-7.52V15.039h32.762v80.309c0,7.937-6.457,14.394-14.394,14.394h-3.975
			c-7.937,0-14.394-6.457-14.394-14.394V78.035c0-4.153-3.367-7.52-7.52-7.52c-4.153,0-7.52,3.367-7.52,7.52v7.604h-37.096
			c-5.809,0-10.534-4.725-10.534-10.534V67.571z M158.046,161.494v4.261l-17.693-8.57c-17.106-10.007-35.857-22.822-45.678-41.973
			c-5.656-11.03-6.623-24.105-2.722-36.817c1.868-6.087,4.755-11.914,8.58-17.32c5.142-7.267,12.266-13.085,20.604-16.825
			c9.329-4.185,18.703-4.459,30.878-4.408c1.648,0.046,6.384,0.526,9.898,1.075v17.735c-25.135-0.744-40.751,9.375-43.301,28.46
			c-1.826,13.667,4.894,27.252,19.433,39.284c9.403,7.782,19.684,13.086,27.136,16.314
			C160.743,147.715,158.046,154.294,158.046,161.494z M133.519,89.105c0.867-6.494,4.288-10.657,10.764-13.104
			c4.646-1.755,10.663-2.521,17.63-2.286v1.39c0,12.146,8.514,22.334,19.885,24.928c0.098,4.179,0.257,8.397,0.42,12.53
			c0.271,6.855,0.54,13.776,0.517,20.606l-3.622-1.192C158.7,125.259,131.06,107.517,133.519,89.105z M425.543,384.345
			c-1.893,37.045-10.818,68.117-25.133,87.49c-12.319,16.672-28.748,25.126-48.832,25.126H160.422
			c-20.083,0-36.512-8.453-48.831-25.125C79.199,427.998,81.889,339.739,96.285,292.88c7.072-23.021,21.644-54.347,50.903-72.854
			c11.702-7.402,23.499-13.833,32.622-24.586c2.117,0.506,149.764,0.418,152.171-0.247c9.143,10.889,21.035,17.373,32.829,24.833
			c29.26,18.508,43.832,49.834,50.904,72.854C423.5,318.22,427.174,352.412,425.543,384.345z"/>
	</g>
</g>
<g>
</g>
<g>
</g>
<g>
</g>
<g>
</g>
<g>
</g>
<g>
</g>
<g>
</g>
<g>
</g>
<g>
</g>
<g>
</g>
<g>
</g>
<g>
</g>
<g>
</g>
<g>
</g>
<g>
</g>
</svg>
