<?xml version="1.0" encoding="iso-8859-1"?>
<!-- Generator: Adobe Illustrator 19.0.0, SVG Export Plug-In . SVG Version: 6.00 Build 0)  -->
<svg version="1.1" id="Capa_1" xmlns="http://www.w3.org/2000/svg" xmlns:xlink="http://www.w3.org/1999/xlink" x="0px" y="0px"
	 viewBox="0 0 511.999 511.999" style="enable-background:new 0 0 511.999 511.999;" xml:space="preserve">
<g>
	<g>
		<path d="M458.316,102.514L288.605,8.484c-20.416-11.312-44.794-11.312-65.209,0L53.684,102.514
			c-21.387,11.849-34.672,34.398-34.672,58.848v184.036c0,24.449,13.285,46.999,34.672,58.848l187.547,103.911
			c4.625,2.563,9.697,3.843,14.77,3.843c5.07,0,10.14-1.28,14.761-3.841L458.32,404.242c21.384-11.847,34.667-34.396,34.667-58.845
			V161.362C492.988,136.912,479.703,114.362,458.316,102.514z M63.402,120.053l169.71-94.029c7.165-3.97,15.027-5.955,22.888-5.955
			c7.861,0,15.722,1.985,22.888,5.955l169.711,94.029c5.12,2.837,9.559,6.563,13.211,10.902L279.249,232.103
			c-14.247,7.893-31.876,7.821-46.062-0.167l-0.523-0.291L51.995,128.931C55.279,125.456,59.097,122.438,63.402,120.053z
			 M448.603,386.703L266.026,487.861V440.47c0-5.537-4.489-10.026-10.026-10.026c-5.537,0-10.026,4.489-10.026,10.026v47.392
			L63.402,386.706c-15.013-8.318-24.339-24.147-24.339-41.309V161.362c0-5.277,0.888-10.424,2.546-15.268l184.495,104.845
			c12.255,6.799,19.869,19.731,19.869,33.747c0,0.007,0.001,0.013,0.001,0.019v0.363c0,0.01,0,0.019,0,0.029c0,0.003,0,0.006,0,0.01
			v90.955c0,5.537,4.489,10.026,10.026,10.026c5.537,0,10.026-4.488,10.026-10.026v-90.979c0.005-14.01,7.617-26.934,19.868-33.732
			l3.594-1.994c0.016-0.009,181.706-100.678,181.706-100.678c1.138,4.075,1.74,8.336,1.74,12.684v184.035h0.002
			C472.936,362.56,463.612,378.388,448.603,386.703z"/>
	</g>
</g>
<g>
	<g>
		<path d="M256.178,93.306c-19.427,0-35.234,14.392-35.234,32.082s15.806,32.082,35.234,32.082
			c19.428,0,35.234-14.392,35.234-32.082S275.605,93.306,256.178,93.306z M256.178,137.419c-8.372,0-15.182-5.397-15.182-12.031
			c0-6.634,6.811-12.031,15.182-12.031c8.372,0,15.182,5.397,15.182,12.031C271.36,132.022,264.549,137.419,256.178,137.419z"/>
	</g>
</g>
<g>
	<g>
		<path d="M263.088,399.986c-1.865-1.865-4.451-2.938-7.088-2.938c-2.637,0-5.223,1.073-7.088,2.938
			c-1.865,1.865-2.938,4.441-2.938,7.088c0,2.637,1.073,5.223,2.938,7.088c1.865,1.865,4.451,2.938,7.088,2.938
			c2.637,0,5.223-1.073,7.088-2.938c1.865-1.865,2.938-4.451,2.938-7.088S264.953,401.85,263.088,399.986z"/>
	</g>
</g>
<g>
	<g>
		<path d="M217.939,256.111c-13.736-13.736-35.091-14.737-47.599-2.228c-12.509,12.509-11.509,33.862,2.229,47.6
			c7.292,7.291,16.726,10.993,25.846,10.993c8.064,0,15.883-2.895,21.753-8.766C232.677,291.202,231.678,269.849,217.939,256.111z
			 M205.989,289.533c-4.69,4.691-13.323,3.692-19.241-2.228c-5.919-5.919-6.919-14.551-2.229-19.241
			c1.99-1.991,4.691-2.957,7.593-2.957c3.936,0,8.242,1.777,11.65,5.184C209.681,276.21,210.681,284.842,205.989,289.533z"/>
	</g>
</g>
<g>
	<g>
		<path d="M160.392,292.322c-13.738-13.736-35.09-14.736-47.6-2.228c-12.509,12.509-11.509,33.862,2.228,47.6
			c7.292,7.291,16.726,10.993,25.847,10.993c8.064,0,15.883-2.895,21.753-8.766C175.127,327.413,174.128,306.06,160.392,292.322z
			 M148.44,325.744c-4.69,4.69-13.323,3.691-19.241-2.229c-5.919-5.919-6.919-14.551-2.228-19.241
			c1.99-1.991,4.691-2.957,7.593-2.957c3.936,0,8.242,1.777,11.649,5.184C152.131,312.421,153.131,321.053,148.44,325.744z"/>
	</g>
</g>
<g>
	<g>
		<path d="M113.791,349.652c-0.582-8.734-4.471-17.114-10.949-23.594c-13.738-13.737-35.09-14.737-47.6-2.229
			c-12.509,12.509-11.51,33.862,2.228,47.6c7.292,7.291,16.726,10.993,25.846,10.993c8.064,0,15.883-2.895,21.753-8.766
			C111.309,367.418,114.406,358.892,113.791,349.652z M90.891,359.479c-4.691,4.69-13.323,3.693-19.242-2.228
			c-5.919-5.919-6.919-14.551-2.228-19.242c1.99-1.991,4.69-2.957,7.593-2.957c3.936,0,8.242,1.778,11.65,5.185
			c3.044,3.043,4.862,6.861,5.121,10.75C94.01,354.372,92.982,357.388,90.891,359.479z"/>
	</g>
</g>
<g>
	<g>
		<path d="M358.364,272.505c-12.509-12.508-33.862-11.508-47.599,2.229c-13.737,13.737-14.737,35.09-2.229,47.599
			c5.87,5.87,13.688,8.766,21.753,8.766c9.12,0,18.557-3.703,25.847-10.993C369.874,306.368,370.872,285.015,358.364,272.505z
			 M341.959,305.927c-5.919,5.919-14.552,6.919-19.243,2.228c-4.691-4.691-3.69-13.323,2.229-19.242
			c5.92-5.92,14.551-6.919,19.241-2.229C348.877,291.375,347.877,300.008,341.959,305.927z"/>
	</g>
</g>
<g>
	<g>
		<path d="M442.773,311.8c-12.509-12.509-33.862-11.509-47.599,2.228c-6.479,6.479-10.368,14.858-10.95,23.595
			c-0.616,9.24,2.482,17.766,8.722,24.006c5.87,5.87,13.688,8.766,21.753,8.766c9.12,0,18.556-3.703,25.846-10.993
			C454.282,345.662,455.282,324.309,442.773,311.8z M426.367,345.221c-5.92,5.92-14.552,6.918-19.241,2.228
			c-2.091-2.091-3.119-5.107-2.893-8.493c0.259-3.888,2.078-7.707,5.121-10.75c3.408-3.408,7.714-5.185,11.65-5.185
			c2.901,0,5.602,0.966,7.592,2.957C433.285,330.67,432.286,339.302,426.367,345.221z"/>
	</g>
</g>
<g>
</g>
<g>
</g>
<g>
</g>
<g>
</g>
<g>
</g>
<g>
</g>
<g>
</g>
<g>
</g>
<g>
</g>
<g>
</g>
<g>
</g>
<g>
</g>
<g>
</g>
<g>
</g>
<g>
</g>
</svg>
