<?xml version="1.0" encoding="iso-8859-1"?>
<!-- Generator: Adobe Illustrator 19.0.0, SVG Export Plug-In . SVG Version: 6.00 Build 0)  -->
<svg version="1.1" id="Capa_1" xmlns="http://www.w3.org/2000/svg" xmlns:xlink="http://www.w3.org/1999/xlink" x="0px" y="0px"
	 viewBox="0 0 512.002 512.002" style="enable-background:new 0 0 512.002 512.002;" xml:space="preserve">
<g>
	<g>
		<path d="M398.53,83.362c-0.13-0.64-0.32-1.27-0.57-1.87c-0.25-0.6-0.56-1.18-0.92-1.73c-0.36-0.54-0.78-1.06-1.24-1.52
			c-0.46-0.46-0.97-0.88-1.52-1.24c-0.54-0.36-1.13-0.67-1.73-0.92c-0.6-0.25-1.23-0.44-1.87-0.57c-1.29-0.26-2.62-0.26-3.91,0
			c-0.64,0.13-1.27,0.32-1.87,0.57c-0.6,0.25-1.18,0.56-1.73,0.92c-0.54,0.36-1.05,0.78-1.51,1.24c-0.47,0.46-0.88,0.98-1.25,1.52
			c-0.36,0.55-0.67,1.13-0.92,1.73c-0.25,0.6-0.44,1.23-0.57,1.87c-0.13,0.65-0.19,1.3-0.19,1.96c0,0.65,0.06,1.3,0.19,1.95
			c0.13,0.64,0.32,1.27,0.57,1.87c0.25,0.6,0.56,1.18,0.92,1.73c0.37,0.54,0.78,1.05,1.25,1.52c0.46,0.46,0.97,0.87,1.51,1.24
			c0.55,0.36,1.13,0.67,1.73,0.92c0.6,0.25,1.23,0.44,1.87,0.57c0.65,0.13,1.31,0.2,1.96,0.2c0.65,0,1.31-0.07,1.95-0.2
			c0.64-0.13,1.27-0.32,1.87-0.57c0.6-0.25,1.19-0.56,1.73-0.92c0.55-0.37,1.06-0.78,1.52-1.24c0.46-0.47,0.88-0.98,1.24-1.52
			c0.36-0.55,0.67-1.13,0.92-1.73c0.25-0.6,0.44-1.23,0.57-1.87c0.13-0.65,0.2-1.3,0.2-1.95
			C398.73,84.662,398.66,84.012,398.53,83.362z"/>
	</g>
</g>
<g>
	<g>
		<path d="M234.993,344.312H77.954c-5.523,0-10,4.477-10,10v108.339c0,5.523,4.477,10,10,10h157.038c5.523,0,10-4.477,10.001-10
			V354.312C244.993,348.789,240.516,344.312,234.993,344.312z M224.993,452.651H87.954v-88.339h137.039V452.651z"/>
	</g>
</g>
<g>
	<g>
		<path d="M446.145,31.455L393.707,1.331c-3.301-1.897-7.231-1.701-10.255,0.173l-52.146,29.955
			C306.9,45.478,292.671,71.65,294.17,99.761l2.538,47.589c0.085,1.604,0.556,3.163,1.372,4.546l23.67,40.15l-13.393,1.862
			c-5.145,0.715-8.885,5.25-8.608,10.438l2.771,51.963c0.085,1.604,0.556,3.163,1.372,4.546l17.858,30.292l-8.146,1.132
			c-5.145,0.715-8.886,5.25-8.609,10.438l2.503,46.927c1.254,23.513,13.763,45.247,33.46,58.14l37.766,24.719v14.348l-10.107-10.111
			c-3.904-3.907-10.237-3.907-14.142-0.002c-3.906,3.905-3.907,10.236-0.002,14.142l24.238,24.246
			c0.005,0.005,0.009,0.009,0.014,0.013V502c0,5.523,4.477,10,10,10s10-4.477,10-10v-26.861c0.005-0.005,0.009-0.009,0.014-0.013
			l24.238-24.246c3.905-3.906,3.903-10.237-0.002-14.142c-3.905-3.904-10.237-3.903-14.142,0.002l-10.107,10.111v-14.343
			l37.768-24.723c19.695-12.895,32.203-34.628,33.459-58.137l1.874-35.161c0.253-4.752-2.878-9.025-7.486-10.215l-6.896-1.78
			l14.317-18.947c1.203-1.591,1.902-3.505,2.008-5.497l9.511-178.287C484.776,71.651,470.548,45.477,446.145,31.455z M453.96,273.93
			l-21.513,28.469c-2.016,2.666-2.566,6.164-1.465,9.321c1.101,3.157,3.706,5.554,6.943,6.39l13.494,3.483l-1.438,26.99
			c-0.917,17.173-10.055,33.05-24.442,42.47l-26.812,17.551V300.17l56.868-56.886L453.96,273.93z M457.186,213.403l-58.459,58.479
			v-64.776h-0.001l62.111-62.13L457.186,213.403z M463.307,98.696l-0.875,16.393l-63.707,63.727v-47.78c0-5.523-4.477-10-10-10
			s-10,4.477-10,10l-0.001,277.563l-26.812-17.548c-14.388-9.417-23.525-25.294-24.441-42.471l-2.014-37.755l13.9-1.933
			c3.312-0.46,6.173-2.545,7.627-5.555c1.454-3.01,1.308-6.548-0.39-9.428l-24.233-41.105l-2.152-40.35l19.148-2.663
			c3.311-0.46,6.173-2.545,7.627-5.556c1.454-3.01,1.308-6.548-0.39-9.428l-30.044-50.963l-2.408-45.149
			c-1.095-20.536,9.299-39.654,27.126-49.895l47.462-27.264l47.451,27.259C454.007,59.038,464.401,78.16,463.307,98.696z"/>
	</g>
</g>
<g>
	<g>
		<path d="M245.393,304.961h-26.841c-4.861,0-8.815-3.958-8.815-8.822v-2.905h7.295c15.111,0,27.405-12.296,27.405-27.411
			c0-15.114-12.294-27.411-27.405-27.411H96.908c-15.111,0-27.405,12.296-27.405,27.411c0,15.114,12.294,27.411,27.405,27.411h8.29
			v2.905c0,4.864-3.955,8.822-8.816,8.822h-28.83c-21.47,0-38.938,17.471-38.938,38.947v129.147
			c0,21.475,17.467,38.947,38.938,38.947h177.841c21.47,0,38.938-17.472,38.938-38.947V343.908
			C284.331,322.432,266.864,304.961,245.393,304.961z M264.331,473.055c0,10.447-8.495,18.947-18.938,18.947H67.553
			c-10.442,0-18.938-8.5-18.938-18.947V343.908c0-10.447,8.495-18.947,18.938-18.947h28.83c15.889,0,28.816-12.929,28.816-28.822
			v-2.905h38.042c5.523,0,10-4.477,10-10s-4.477-10-10-10H96.908c-4.083,0-7.405-3.325-7.405-7.411s3.322-7.411,7.405-7.411h120.124
			c4.083,0,7.405,3.325,7.405,7.411s-3.322,7.411-7.405,7.411h-17.295c-5.523,0-10,4.477-10,10v12.905
			c0,15.893,12.927,28.822,28.815,28.822h26.841c10.442,0,18.938,8.5,18.938,18.947V473.055z"/>
	</g>
</g>
<g>
	<g>
		<path d="M156.473,375.385c-18.245,0-33.088,14.847-33.088,33.096c0,18.249,14.843,33.096,33.088,33.096
			s33.088-14.847,33.088-33.096C189.561,390.232,174.718,375.385,156.473,375.385z M156.473,421.578
			c-7.216,0-13.088-5.875-13.088-13.096s5.871-13.096,13.088-13.096s13.088,5.875,13.088,13.096S163.689,421.578,156.473,421.578z"
			/>
	</g>
</g>
<g>
</g>
<g>
</g>
<g>
</g>
<g>
</g>
<g>
</g>
<g>
</g>
<g>
</g>
<g>
</g>
<g>
</g>
<g>
</g>
<g>
</g>
<g>
</g>
<g>
</g>
<g>
</g>
<g>
</g>
</svg>
