<?xml version="1.0" encoding="iso-8859-1"?>
<!-- Generator: Adobe Illustrator 19.0.0, SVG Export Plug-In . SVG Version: 6.00 Build 0)  -->
<svg version="1.1" id="Layer_1" xmlns="http://www.w3.org/2000/svg" xmlns:xlink="http://www.w3.org/1999/xlink" x="0px" y="0px"
	 viewBox="0 0 511.999 511.999" style="enable-background:new 0 0 511.999 511.999;" xml:space="preserve">
<g>
	<g>
		<path d="M422.567,44.441h-22.996v-9.083c0-4.205-3.407-7.612-7.612-7.612h-87.84l-0.086-4.233C303.768,10.548,293.003,0,280.035,0
			h-43.179c-12.967,0-23.732,10.548-23.998,23.511l-0.086,4.234h-69.859c-2.101,0-4.11,0.869-5.548,2.401L89.108,81.519
			c-9.715,10.341-9.715,26.543,0,36.885l48.256,51.373c1.438,1.532,3.447,2.4,5.548,2.4h66.909l-5.544,271.317
			c-0.585,6.369-0.904,12.881-0.904,19.545c0,0.901,0.164,1.762,0.453,2.565l-0.448,21.9c-0.133,6.503,2.301,12.643,6.852,17.289
			c4.551,4.646,10.64,7.204,17.144,7.204h47.376c0.009,0,0.017,0.002,0.026,0.002c0.014,0,0.028-0.002,0.043-0.002h14.694
			c6.504,0,12.593-2.559,17.145-7.204c4.552-4.646,6.985-10.785,6.852-17.289l-5.746-281.197c0-0.01,0-0.019-0.001-0.029
			l-0.696-34.101h84.889c4.205,0,7.612-3.407,7.612-7.613v-18.638h22.996c4.205,0,7.612-3.407,7.612-7.613v-86.26
			C430.179,47.849,426.771,44.441,422.567,44.441z M228.08,23.823c0.097-4.741,4.034-8.598,8.776-8.598h43.179
			c4.742,0,8.678,3.857,8.776,8.598l0.08,3.922h-60.89L228.08,23.823z M146.205,156.954l-46.001-48.973
			c-4.223-4.497-4.223-11.541,0-16.038l46.002-48.973h84.025l-69.485,113.984H146.205z M217.588,156.953
			c-0.007,0-0.013,0.001-0.02,0.001h-38.99L248.062,42.97h86.497l-69.484,113.984h-47.408
			C217.641,156.954,217.615,156.953,217.588,156.953z M223.022,271.462l1.231-60.238c4.767,3.534,10.664,5.629,17.041,5.629
			c15.812,0,28.675-12.863,28.675-28.675c0-5.92-1.804-11.427-4.89-16h26.766l0.688,33.741
			C285.209,246.633,242.338,265.119,223.022,271.462z M293.267,241.923l0.743,36.347c-18.621,16.29-52.515,50.652-73.164,99.707
			l1.847-90.455c7.415-2.128,20.867-6.657,35.001-14.711C272.769,264.22,284.72,253.8,293.267,241.923z M227.844,188.178
			c0-7.416,6.033-13.449,13.449-13.449c7.417,0,13.45,6.034,13.45,13.449c0,7.417-6.033,13.45-13.45,13.45
			C233.877,201.628,227.844,195.595,227.844,188.178z M264.082,496.773h-36.704c-2.38,0-4.606-0.936-6.271-2.635
			c-1.665-1.699-2.554-3.944-2.505-6.322l0.888-43.448c6.566-69.43,48.373-120.129,74.937-145.793l0.224,10.965
			c-3.805,6.787-16.58,30.762-26.318,63.141C254.562,418.474,253.142,461.098,264.082,496.773z M295.784,494.138
			c-1.665,1.699-3.891,2.635-6.27,2.635h-9.42c-14.574-42.11-6.715-87.869,2.711-119.357c3.91-13.059,8.393-24.771,12.527-34.419
			l2.959,144.818C298.34,490.194,297.45,492.439,295.784,494.138z M384.345,52.053v86.261v18.639H282.908L352.392,42.97h31.953
			V52.053z M414.954,130.703h-15.383V59.666h15.383V130.703z"/>
	</g>
</g>
<g>
</g>
<g>
</g>
<g>
</g>
<g>
</g>
<g>
</g>
<g>
</g>
<g>
</g>
<g>
</g>
<g>
</g>
<g>
</g>
<g>
</g>
<g>
</g>
<g>
</g>
<g>
</g>
<g>
</g>
</svg>
