<?xml version="1.0" encoding="iso-8859-1"?>
<!-- Generator: Adobe Illustrator 19.0.0, SVG Export Plug-In . SVG Version: 6.00 Build 0)  -->
<svg version="1.1" id="Capa_1" xmlns="http://www.w3.org/2000/svg" xmlns:xlink="http://www.w3.org/1999/xlink" x="0px" y="0px"
	 viewBox="0 0 512.001 512.001" style="enable-background:new 0 0 512.001 512.001;" xml:space="preserve">
<g>
	<g>
		<circle cx="175.009" cy="299.521" r="7.5"/>
	</g>
</g>
<g>
	<g>
		<circle cx="175.009" cy="375.291" r="7.5"/>
	</g>
</g>
<g>
	<g>
		<circle cx="150.989" cy="334.621" r="7.5"/>
	</g>
</g>
<g>
	<g>
		<circle cx="199.039" cy="334.621" r="7.5"/>
	</g>
</g>
<g>
	<g>
		<circle cx="336.989" cy="296.741" r="7.5"/>
	</g>
</g>
<g>
	<g>
		<circle cx="336.989" cy="372.501" r="7.5"/>
	</g>
</g>
<g>
	<g>
		<circle cx="312.959" cy="331.831" r="7.5"/>
	</g>
</g>
<g>
	<g>
		<circle cx="361.009" cy="331.831" r="7.5"/>
	</g>
</g>
<g>
	<g>
		<path d="M418.866,387.535l-13.998-25.025c0.063-8.718,0.31-44.734,0.441-80.459c0.089-23.987,0.109-43.154,0.061-56.97
			c-0.056-15.918-0.081-23.119-0.516-26.803c-0.063-41.724-9.737-78.97-28.754-110.717c-2.128-3.552-6.736-4.71-10.287-2.579
			c-3.554,2.128-4.709,6.734-2.58,10.287c14.243,23.78,22.816,51.014,25.606,81.188h-85.56l0.739-10.471
			c0.718-10.183-2.982-20.189-10.153-27.455l-22.986-23.291c-2.125-2.153-4.64-3.767-7.378-4.819v-94.79
			c3.577,0.6,7.095,1.621,10.466,3.087c19.752,8.584,48.326,24.729,72.281,52.891c2.683,3.154,7.416,3.537,10.572,0.854
			c3.155-2.684,3.537-7.417,0.854-10.572c-25.818-30.353-56.52-47.712-77.728-56.929c-15.219-6.616-32.673-6.616-47.89,0
			c-21.192,9.21-51.871,26.553-77.681,56.873c-31.259,36.722-47.148,82.624-47.229,136.443c-0.435,3.684-0.46,10.884-0.516,26.802
			c-0.049,13.815-0.028,32.982,0.061,56.97c0.132,35.725,0.379,71.741,0.441,80.459l-13.998,25.025
			c-7.781,13.912-3.197,31.281,10.437,39.542l54.906,33.269c5.857,2.814,8.891-0.2,10.301-2.527
			c2.146-3.543,1.015-8.154-2.527-10.301l-54.906-33.269c-6.687-4.052-8.935-12.569-5.118-19.392l14.966-26.757
			c0.635-1.135,0.964-2.416,0.954-3.716c-0.234-31.864-0.458-72.28-0.524-105.112h92.942l7.696,109.092
			c0.551,7.794,3.715,15.297,8.909,21.128l9.221,10.354c2.239,2.515,5.031,4.422,8.11,5.606v90.546
			c-2.617-0.703-5.163-1.772-7.558-3.223l-46.915-28.427c-3.542-2.146-8.154-1.015-10.301,2.527
			c-2.146,3.543-1.015,8.154,2.527,10.301l46.916,28.428c7.041,4.266,14.936,6.398,22.83,6.398s15.79-2.133,22.831-6.399
			l129.599-78.526C422.064,418.817,426.648,401.448,418.866,387.535z M300.875,210.529h51.789c4.045,0,7.336,3.291,7.336,7.337
			c0,4.045-3.291,7.336-7.336,7.336H299.84L300.875,210.529z M298.781,240.201h53.882c12.316,0,22.336-10.02,22.336-22.336
			c0-12.316-10.02-22.337-22.336-22.337h-50.731l0.287-4.07h87.531c0.069,2.396,0.657,29.705,0.647,52.814h-91.903L298.781,240.201z
			 M121.602,244.273L121.602,244.273c-0.01-23.11,0.59-50.428,0.657-52.814h87.52l0.287,4.07h-50.73
			c-12.316,0-22.336,10.021-22.336,22.337c0,12.316,10.02,22.336,22.336,22.336h53.882l0.287,4.071H121.602z M211.125,210.528
			l1.035,14.673h-52.824c-4.045,0-7.336-3.291-7.336-7.336c0-4.046,3.291-7.337,7.336-7.337H211.125z M218.136,138.532
			c-7.171,7.266-10.871,17.272-10.153,27.455l0.739,10.471h-85.578c8.809-97.004,74.57-140.214,114.891-157.739
			c3.37-1.465,6.888-2.486,10.465-3.087v94.79c-2.738,1.052-5.253,2.666-7.378,4.819L218.136,138.532z M256,391.848
			c-0.989,0-2.876-0.257-4.409-1.978l-9.221-10.354c-3.002-3.369-4.829-7.705-5.147-12.207l-14.277-202.376
			c-0.415-5.884,1.724-11.666,5.866-15.863l22.986-23.291c1.118-1.133,2.61-1.757,4.202-1.757s3.084,0.624,4.202,1.757
			l22.986,23.291c4.143,4.197,6.281,9.979,5.866,15.863l-14.277,202.375c-0.318,4.503-2.146,8.839-5.147,12.208l-9.221,10.354
			C258.876,391.591,256.989,391.848,256,391.848z M400.656,414.249l-129.599,78.525c-2.395,1.451-4.941,2.521-7.558,3.223v-90.546
			c3.08-1.184,5.871-3.092,8.11-5.606l9.221-10.353c5.194-5.832,8.358-13.335,8.909-21.13l7.696-109.091h92.942
			c-0.066,32.833-0.29,73.249-0.524,105.112c-0.01,1.3,0.319,2.581,0.954,3.716l14.966,26.757
			C409.591,401.68,407.343,410.198,400.656,414.249z"/>
	</g>
</g>
<g>
</g>
<g>
</g>
<g>
</g>
<g>
</g>
<g>
</g>
<g>
</g>
<g>
</g>
<g>
</g>
<g>
</g>
<g>
</g>
<g>
</g>
<g>
</g>
<g>
</g>
<g>
</g>
<g>
</g>
</svg>
