<?xml version="1.0" encoding="iso-8859-1"?>
<!-- Generator: Adobe Illustrator 19.0.0, SVG Export Plug-In . SVG Version: 6.00 Build 0)  -->
<svg version="1.1" id="Capa_1" xmlns="http://www.w3.org/2000/svg" xmlns:xlink="http://www.w3.org/1999/xlink" x="0px" y="0px"
	 viewBox="0 0 512 512" style="enable-background:new 0 0 512 512;" xml:space="preserve">
<g>
	<g>
		<path d="M259.995,210.114c-6.886,0-12.501,5.615-12.501,12.501c0,6.885,5.615,12.501,12.501,12.501
			c6.885,0,12.501-5.616,12.501-12.501C272.496,215.729,266.88,210.114,259.995,210.114z"/>
	</g>
</g>
<g>
	<g>
		<path d="M159.996,210.114c-6.886,0-12.502,5.615-12.502,12.501c0,6.885,5.616,12.501,12.502,12.501
			c6.885,0,12.5-5.616,12.5-12.501C172.496,215.729,166.881,210.114,159.996,210.114z"/>
	</g>
</g>
<g>
	<g>
		<path d="M178.066,49.903c-2.399-4.974-8.374-7.063-13.351-4.663l-0.414,0.199c-4.975,2.399-7.063,8.376-4.663,13.351
			c1.723,3.574,5.294,5.658,9.014,5.658c1.457,0,2.936-0.319,4.336-0.995l0.414-0.199C178.377,60.855,180.465,54.877,178.066,49.903
			z"/>
	</g>
</g>
<g>
	<g>
		<path d="M152.822,63.465c-3.751-4.053-10.078-4.299-14.131-0.548c-8.678,8.03-15.888,17.381-21.43,27.791
			c-2.596,4.876-0.747,10.932,4.127,13.527c1.498,0.797,3.105,1.175,4.691,1.175c3.577,0,7.037-1.925,8.835-5.303
			c4.488-8.43,10.329-16.003,17.361-22.51C156.328,73.846,156.573,67.519,152.822,63.465z"/>
	</g>
</g>
<g>
	<g>
		<g>
			<path d="M319.664,511.995c-0.674,0-1.347,0-2.019,0C318.317,511.995,318.99,511.995,319.664,511.995z"/>
			<path d="M329.77,511.995c-0.673,0-1.346,0-2.019,0C328.424,511.995,329.097,511.995,329.77,511.995z"/>
			<path d="M286.412,511.995c-0.615,0-1.228,0-1.837,0C285.185,511.995,285.797,511.995,286.412,511.995z"/>
			<path d="M307.613,511.995c-0.664,0-1.326,0-1.988,0C306.286,511.995,306.949,511.995,307.613,511.995z"/>
			<path d="M297.779,511.995c-0.647,0-1.292,0-1.934,0C296.487,511.995,297.132,511.995,297.779,511.995z"/>
			<path d="M254.6,511.995c-0.425,0-0.843,0-1.255,0C253.757,511.995,254.175,511.995,254.6,511.995z"/>
			<path d="M243.164,511.995c-0.263,0-0.519,0-0.765,0C242.645,511.995,242.9,511.995,243.164,511.995z"/>
			<path d="M275.721,511.995c-0.572,0-1.14,0-1.704,0C274.581,511.995,275.149,511.995,275.721,511.995z"/>
			<path d="M264.387,511.995c-0.507,0-1.008,0-1.504,0C263.379,511.995,263.88,511.995,264.387,511.995z"/>
			<path d="M509.296,193.469l-0.085,0.148C509.261,193.53,509.296,193.469,509.296,193.469z"/>
			<polygon points="448.677,158.467 448.676,158.469 448.678,158.465 			"/>
			<path d="M508.921,194.119c0.017-0.029,0.032-0.056,0.048-0.083L508.921,194.119z"/>
			<path d="M509.046,193.903c-0.025,0.044-0.048,0.082-0.077,0.133l0.242-0.419c-0.004,0.007-0.009,0.016-0.013,0.023l0.099-0.171
				c2.69-4.66,3.402-10.098,2.005-15.314c-1.397-5.217-4.733-9.571-9.393-12.261l-25.66-14.814
				c-9.64-5.565-22.009-2.252-27.573,7.388l-65.333,113.16l-0.001-0.001c-4.159-2.401-8.896-3.671-13.699-3.671
				c-9.828,0-18.973,5.264-23.866,13.738c-7.581,13.131-3.065,29.982,10.065,37.563l0.001,0.001L343.696,340.3
				c-8.01-6.616-16.564-12.688-25.618-18.148c12.091-18.052,19.787-39.281,21.535-62.151h0.38c22.056,0,39.999-17.944,39.999-39.999
				c0-18.604-12.768-34.281-29.999-38.733v-41.268c0-77.194-62.803-139.997-139.997-139.997S70,62.806,70,140v41.268
				C52.767,185.72,40,201.398,40,220.002c0,22.056,17.944,39.999,39.999,39.999h0.379c1.748,22.871,9.445,44.102,21.536,62.153
				C38.765,360.241,0,428.124,0,501.995c0,5.522,4.477,10,10,10h395.014c-0.246,0-0.501,0-0.763,0c0.263,0,0.519,0,0.765,0h4.978
				c5.522,0,10-4.478,10-10c0-37.589-10.037-73.628-28.216-104.979l24.687-42.757l0.001,0.001c4.159,2.4,8.897,3.67,13.699,3.67
				c9.829,0,18.974-5.265,23.865-13.737c3.663-6.344,4.632-13.753,2.728-20.861c-1.905-7.109-6.448-13.041-12.793-16.704
				l-0.001-0.001l62.462-108.185c-4.148,7.185-11.327,19.62-11.327,19.62l13.823-23.943c-0.05,0.086-0.108,0.186-0.166,0.288
				L509.046,193.903z M86.301,240.001h-6.303c-11.027,0-19.999-8.972-19.999-20c0-11.028,8.972-20,20-20c5.523,0,10-4.478,10-10V140
				c0-66.167,53.83-119.997,119.996-119.997c66.167,0,119.997,53.83,119.997,119.997v50.002c0,5.522,4.477,10,10,10
				c11.028,0,20,8.972,20,20c0,11.028-8.972,20-20,20h-6.303c1.476-3.753,2.238-7.633,2.238-11.607
				c0-17.285-14.256-32.807-40.141-43.706c-23.139-9.743-53.607-15.108-85.792-15.108c-32.184,0-62.652,5.365-85.791,15.108
				c-25.885,10.899-40.14,26.422-40.14,43.706C84.064,232.369,84.826,236.248,86.301,240.001z M315.927,228.393
				c0,8.469-10.431,17.917-27.902,25.273c-20.739,8.732-48.451,13.542-78.031,13.542c-29.579,0-57.291-4.81-78.03-13.542
				c-17.471-7.356-27.902-16.804-27.902-25.273c0-8.469,10.431-17.917,27.902-25.273c20.739-8.732,48.45-13.542,78.03-13.542
				c29.581,0,57.292,4.81,78.031,13.542C305.497,210.478,315.927,219.926,315.927,228.393z M100.299,258.179
				c6.275,5.18,14.285,9.871,23.906,13.921c23.139,9.743,53.607,15.108,85.79,15.108c32.184,0,62.653-5.365,85.792-15.108
				c9.62-4.051,17.63-8.741,23.903-13.921c-1.661,22.491-10.114,43.122-23.313,59.846c-0.599,0.572-1.129,1.229-1.583,1.961
				c-4.905,5.934-10.423,11.342-16.45,16.135c-0.652,0.396-1.258,0.868-1.808,1.405c-18.49,14.091-41.554,22.472-66.544,22.472
				c-24.982,0-48.04-8.377-66.528-22.462c-0.553-0.542-1.164-1.018-1.822-1.416c-6.02-4.788-11.532-10.19-16.433-16.114
				c-0.461-0.747-1.002-1.416-1.613-1.997C110.407,301.288,101.959,280.663,100.299,258.179z M79.999,491.995v-44.232
				c0-5.522-4.477-10-10-10s-10,4.478-10,10v44.232H20.264c2.88-54.753,29.297-105.072,71.897-138.794l0.86,3.188
				c10.535,39.034,35.004,93.42,67.979,135.606H79.999z M186.997,491.995c-36.366-40.997-63.6-99.811-74.667-140.817l-2.767-10.252
				c1.595-0.998,3.209-1.972,4.84-2.927c4.146,4.5,8.602,8.708,13.338,12.589c11.554,40.087,42.591,103.796,81.269,141.406H186.997z
				 M154.654,367.61c16.801,7.939,35.56,12.387,55.343,12.387c19.81,0,38.594-4.461,55.413-12.421
				c-12.204,31.712-32.172,68.792-55.415,96.111C186.805,436.131,166.794,398.868,154.654,367.61z M235.093,488.212
				c-3.834-2.921-7.631-6.205-11.374-9.792c32.878-37.803,57.982-90.999,68.538-127.837c4.734-3.88,9.19-8.087,13.333-12.586
				c1.631,0.955,3.247,1.93,4.843,2.928l-2.768,10.253c-12.203,45.214-39.651,97.775-69.927,133.906
				C236.752,486.261,235.898,487.273,235.093,488.212z M399.73,491.994h-39.735v-44.232c0-5.522-4.478-10-10-10
				c-5.523,0-10,4.478-10,10v44.232h-82.101c30.06-37.859,56.83-90.224,69.078-135.606l0.86-3.189
				c3.736,2.957,7.35,6.039,10.832,9.243c0.467,0.541,0.994,1.04,1.586,1.48c11.894,11.199,22.237,23.804,30.816,37.484
				c0.326,0.703,0.735,1.368,1.223,1.985C388.426,429.835,398.057,460.164,399.73,491.994z M379.514,378.259
				c-6.253-8.535-13.164-16.617-20.688-24.169l14.337-24.832l25.982,15L379.514,378.259z M436.709,334.193
				c-1.331,2.305-3.839,3.735-6.545,3.735c-1.316,0-2.561-0.333-3.7-0.99l-8.646-4.992c-0.005-0.002-0.01-0.006-0.015-0.009
				s-0.01-0.005-0.016-0.008l-43.277-24.987c-0.003-0.002-0.005-0.003-0.008-0.005s-0.006-0.003-0.009-0.004l-8.652-4.996
				c-3.581-2.067-4.812-6.664-2.744-10.245c1.331-2.305,3.839-3.736,6.545-3.736c1.315,0,2.56,0.334,3.699,0.991l51.955,29.995
				c0.002,0.001,0.004,0.003,0.006,0.004c0.001,0.001,0.003,0.001,0.005,0.002l8.656,4.998c1.719,0.992,2.952,2.611,3.474,4.56
				C437.96,330.455,437.701,332.474,436.709,334.193z M426.644,296.627l-25.303-14.609l38.184-7.703L426.644,296.627z
				 M413.65,259.133l20.334-35.219l11.53,28.791L413.65,259.133z M460.891,237.306l-14.188-35.425l0.092-0.159l25.981,14.999
				L460.891,237.306z M491.975,183.467l-9.199,15.934l-25.981-14.999l9.2-15.935c0.045-0.076,0.179-0.109,0.253-0.067l25.66,14.814
				C491.983,183.258,492.019,183.391,491.975,183.467z M507.197,197.104l1.014-1.757
				C507.92,195.853,507.579,196.442,507.197,197.104z"/>
			<path d="M394.069,511.995c-0.412,0-0.83,0-1.255,0C393.239,511.995,393.657,511.995,394.069,511.995z"/>
			<path d="M341.789,511.995c-0.661,0-1.324,0-1.988,0C340.465,511.995,341.127,511.995,341.789,511.995z"/>
			<path d="M362.838,511.995c-0.609,0-1.221,0-1.837,0C361.617,511.995,362.229,511.995,362.838,511.995z"/>
			<path d="M351.569,511.995c-0.642,0-1.287,0-1.934,0C350.282,511.995,350.926,511.995,351.569,511.995z"/>
			<path d="M383.03,511.995c-0.506,0-1.018,0-1.535,0C382.012,511.995,382.524,511.995,383.03,511.995z"/>
			<path d="M373.396,511.995c-0.564,0-1.132,0-1.704,0C372.265,511.995,372.833,511.995,373.396,511.995z"/>
		</g>
	</g>
</g>
<g>
</g>
<g>
</g>
<g>
</g>
<g>
</g>
<g>
</g>
<g>
</g>
<g>
</g>
<g>
</g>
<g>
</g>
<g>
</g>
<g>
</g>
<g>
</g>
<g>
</g>
<g>
</g>
<g>
</g>
</svg>
