<?xml version="1.0" encoding="iso-8859-1"?>
<!-- Generator: Adobe Illustrator 19.0.0, SVG Export Plug-In . SVG Version: 6.00 Build 0)  -->
<svg version="1.1" id="Capa_1" xmlns="http://www.w3.org/2000/svg" xmlns:xlink="http://www.w3.org/1999/xlink" x="0px" y="0px"
	 viewBox="0 0 512.002 512.002" style="enable-background:new 0 0 512.002 512.002;" xml:space="preserve">
<g>
	<g>
		<path d="M436.322,431.369l-41.143-50.633c0.083-0.588,0.165-1.175,0.226-1.769c0.18-1.74,0.253-3.473,0.242-5.198l20.054-16.296
			c2.591-2.105,4.208-5.094,4.552-8.414c0.343-3.321-0.628-6.576-2.733-9.166l-21.027-25.878
			c-4.345-5.349-12.232-6.166-17.581-1.819l-12.785,10.389l-51.002-62.766l37.828-46.553c2.612-3.214,2.124-7.937-1.091-10.547
			c-3.215-2.612-7.938-2.124-10.547,1.091L209.177,366.423c-1.453-8.729-5.292-16.734-11.113-23.272L450.471,32.526l-5.289,43.456
			l-74.126,91.223c-2.612,3.214-2.124,7.936,1.091,10.547c3.214,2.611,7.935,2.124,10.547-1.091l74.581-91.781
			c1.488-1.831,2.424-4.035,2.707-6.372l8.519-69.997c0.287-2.365-0.58-4.648-2.207-6.246c-0.004-0.004-0.008-0.009-0.013-0.013
			c-0.185-0.181-0.381-0.349-0.586-0.511c-0.192-0.16-0.388-0.311-0.594-0.449c-0.014-0.009-0.029-0.018-0.043-0.027
			c-1.895-1.257-4.301-1.635-6.549-0.874l-66.773,22.661c-2.23,0.757-4.194,2.124-5.681,3.953L256.001,187.057l-73.357-90.276
			c-2.612-3.213-7.335-3.703-10.547-1.091c-3.214,2.611-3.702,7.333-1.091,10.547l75.333,92.709l-15.011,18.474L73.308,22.955
			l41.453,14.068l26.385,32.469c2.611,3.213,7.333,3.703,10.547,1.091c3.214-2.612,3.702-7.333,1.091-10.547l-26.838-33.029
			c-1.487-1.829-3.451-3.196-5.682-3.953L53.493,0.394c-2.251-0.763-4.662-0.384-6.559,0.879c-0.009,0.006-0.018,0.011-0.027,0.017
			c-0.211,0.141-0.411,0.296-0.607,0.459c-0.201,0.159-0.394,0.325-0.576,0.502c-0.007,0.007-0.013,0.014-0.02,0.021
			c-1.625,1.597-2.49,3.879-2.203,6.242l8.519,69.993c0.283,2.34,1.219,4.545,2.707,6.375l142.15,174.938l-51.002,62.766
			l-12.786-10.39c-5.349-4.345-13.235-3.529-17.579,1.819l-21.029,25.878c-2.105,2.591-3.075,5.846-2.733,9.167
			c0.344,3.321,1.96,6.309,4.551,8.413l20.055,16.297c-0.011,1.724,0.062,3.458,0.242,5.198c0.061,0.593,0.144,1.181,0.226,1.769
			L75.679,431.37c-9.08,1.926-17.169,6.848-23.105,14.153c-14.175,17.444-11.516,43.169,5.929,57.346
			c7.337,5.962,16.306,9.133,25.631,9.133c1.417,0,2.842-0.073,4.271-0.221c10.832-1.12,20.577-6.391,27.444-14.841
			c5.936-7.305,9.099-16.23,9.127-25.512l41.163-50.66c2.311-0.152,4.61-0.466,6.876-0.957l20.074,16.312
			c2.249,1.828,4.999,2.8,7.858,2.8c0.434,0,0.871-0.022,1.308-0.067c3.321-0.344,6.309-1.96,8.413-4.551l21.029-25.878
			c2.105-2.591,3.075-5.846,2.733-9.167c-0.344-3.321-1.96-6.309-4.551-8.413l-12.784-10.388l38.904-47.878l38.904,47.878
			l-12.783,10.387c-2.591,2.105-4.208,5.094-4.552,8.414c-0.343,3.321,0.628,6.576,2.733,9.166l21.028,25.878
			c2.105,2.591,5.094,4.208,8.414,4.552c0.438,0.045,0.875,0.067,1.308,0.067c2.859,0,5.609-0.972,7.858-2.8l20.074-16.312
			c2.266,0.49,4.565,0.805,6.876,0.957l41.163,50.659c0.027,9.281,3.191,18.207,9.127,25.511
			c6.867,8.451,16.612,13.722,27.444,14.842c1.428,0.147,2.853,0.221,4.271,0.221c9.324,0,18.295-3.171,25.632-9.133
			c17.444-14.176,20.104-39.901,5.928-57.346C453.492,438.217,445.402,433.294,436.322,431.369z M66.819,75.982L61.53,32.526
			l160.02,196.929l-15.012,18.474L66.819,75.982z M397.239,37.023l41.453-14.068L186.285,333.58
			c-7.59-4.361-16.21-6.482-25.052-6.117L397.239,37.023z M107.695,347.409l17.876-21.999l11.878,9.652
			c-3.966,2.607-7.556,5.83-10.635,9.62c-3.08,3.79-5.5,7.963-7.241,12.379L107.695,347.409z M104.211,487.479
			c-8.96,11.029-25.224,12.709-36.25,3.75c-11.028-8.962-12.709-25.223-3.749-36.25c5.087-6.259,12.524-9.508,20.024-9.508
			c5.712,0,11.458,1.885,16.227,5.759c5.342,4.341,8.674,10.503,9.382,17.349C110.552,475.425,108.552,482.138,104.211,487.479z
			 M120.664,452.953c-2.556-5.103-6.182-9.654-10.744-13.361c-4.562-3.707-9.759-6.325-15.277-7.782l27.913-34.351
			c2.82,4.902,6.535,9.301,11.057,12.975c4.584,3.725,9.669,6.426,14.976,8.152L120.664,452.953z M166.355,405.736
			c-8.438,0.871-16.704-1.593-23.285-6.94c-6.581-5.347-10.685-12.938-11.557-21.371c-0.872-8.435,1.592-16.704,6.94-23.285
			c5.347-6.581,12.938-10.685,21.371-11.557c1.113-0.115,2.221-0.172,3.324-0.172c7.261,0,14.248,2.47,19.96,7.112
			c6.581,5.347,10.685,12.938,11.557,21.371c0.872,8.435-1.592,16.704-6.94,23.285C182.379,400.76,174.789,404.864,166.355,405.736z
			 M218.483,400.909l-17.876,21.999l-11.899-9.669c3.93-2.572,7.541-5.768,10.656-9.603c3.08-3.789,5.5-7.963,7.24-12.379
			L218.483,400.909z M386.429,325.411l17.876,21.999l-11.878,9.652c-1.741-4.416-4.161-8.589-7.241-12.379
			c-3.079-3.79-6.669-7.013-10.635-9.62L386.429,325.411z M305.462,271.708l45.304,55.755c-8.836-0.364-17.459,1.756-25.051,6.117
			l-35.264-43.397L305.462,271.708z M265.662,320.69l15.012-18.474l33.263,40.935c-5.822,6.538-9.66,14.543-11.113,23.272
			L265.662,320.69z M311.393,422.908l-17.876-21.999l11.878-9.652c1.741,4.416,4.161,8.59,7.24,12.379
			c3.116,3.835,6.727,7.031,10.656,9.603L311.393,422.908z M345.646,405.736c-8.434-0.872-16.024-4.976-21.371-11.557
			c-5.348-6.581-7.812-14.85-6.94-23.285c0.872-8.434,4.976-16.024,11.557-21.371c5.714-4.642,12.698-7.112,19.96-7.112
			c1.102,0,2.212,0.057,3.324,0.172c8.434,0.872,16.024,4.976,21.371,11.557c5.347,6.581,7.812,14.85,6.94,23.285
			c-0.872,8.434-4.976,16.024-11.557,21.371C362.349,404.144,354.082,406.609,345.646,405.736z M391.337,452.953l-27.926-34.368
			c5.308-1.726,10.393-4.426,14.977-8.151c4.521-3.674,8.236-8.073,11.057-12.975l27.914,34.351
			c-5.518,1.457-10.715,4.074-15.278,7.782C397.518,443.299,393.893,447.851,391.337,452.953z M444.041,491.229
			c-11.03,8.959-27.29,7.279-36.251-3.749c0,0,0,0,0-0.001c-4.341-5.342-6.341-12.054-5.633-18.9
			c0.708-6.846,4.04-13.008,9.382-17.349c4.768-3.875,10.514-5.759,16.227-5.759c7.498,0,14.938,3.249,20.024,9.508
			C456.749,466.007,455.068,482.268,444.041,491.229z"/>
	</g>
</g>
<g>
</g>
<g>
</g>
<g>
</g>
<g>
</g>
<g>
</g>
<g>
</g>
<g>
</g>
<g>
</g>
<g>
</g>
<g>
</g>
<g>
</g>
<g>
</g>
<g>
</g>
<g>
</g>
<g>
</g>
</svg>
