<?xml version="1.0" encoding="iso-8859-1"?>
<!-- Generator: Adobe Illustrator 19.0.0, SVG Export Plug-In . SVG Version: 6.00 Build 0)  -->
<svg version="1.1" id="Capa_1" xmlns="http://www.w3.org/2000/svg" xmlns:xlink="http://www.w3.org/1999/xlink" x="0px" y="0px"
	 viewBox="0 0 511.998 511.998" style="enable-background:new 0 0 511.998 511.998;" xml:space="preserve">
<g>
	<g>
		<path d="M448.734,117.32c-4.148,0-7.51,3.362-7.51,7.51v38.735H70.773V96.802h54.053c4.148,0,7.51-3.362,7.51-7.51
			s-3.362-7.51-7.51-7.51H70.773V15.02h50.997v19.283c0,6.902,5.615,12.516,12.516,12.516h83.935
			c6.902,0,12.516-5.615,12.516-12.516V15.02h50.521v19.283c0,6.902,5.615,12.516,12.516,12.516h83.934
			c6.902,0,12.516-5.615,12.516-12.516V15.02h50.997v62.749c0.002,4.147,3.364,7.51,7.512,7.51c4.148,0,7.51-3.362,7.51-7.51V12.516
			C456.243,5.615,450.628,0,443.727,0h-56.004c-6.902,0-12.516,5.615-12.516,12.516v19.283h-78.928V12.516
			C296.279,5.615,290.664,0,283.763,0h-55.527c-6.902,0-12.516,5.615-12.516,12.516v19.283h-78.928V12.516
			C136.79,5.615,131.175,0,124.274,0H68.271c-6.902,0-12.517,5.615-12.517,12.516v158.558c0,0.022,0.003,0.044,0.003,0.066
			c0.001,0.082,0.009,0.164,0.012,0.245c0.008,0.206,0.022,0.411,0.047,0.613c0.011,0.089,0.026,0.177,0.04,0.265
			c0.033,0.204,0.073,0.406,0.122,0.604c0.019,0.078,0.038,0.155,0.06,0.233c0.065,0.233,0.141,0.461,0.228,0.684
			c0.013,0.032,0.02,0.066,0.033,0.098l0.035,0.086c0.006,0.014,0.011,0.028,0.017,0.042l27.761,68.839v256.633
			c0,6.902,5.615,12.516,12.516,12.516h100.59h117.561H415.37c6.902,0,12.516-5.615,12.516-12.516v-72.758
			c0-4.148-3.362-7.51-7.51-7.51s-7.51,3.362-7.51,7.51v70.255h-90.577v-66.254c0-36.553-29.737-66.29-66.29-66.29
			c-36.553,0-66.29,29.738-66.29,66.29v66.254H99.13V248.921h313.735v66.068h-23.584c-4.148,0-7.51,3.362-7.51,7.51
			s3.362,7.51,7.51,7.51h23.584v50.156c0,4.148,3.362,7.51,7.51,7.51s7.51-3.362,7.51-7.51V242.85l27.764-68.844
			c0.003-0.008,0.007-0.017,0.01-0.025l0.039-0.097c0.015-0.036,0.023-0.074,0.037-0.11c0.084-0.218,0.159-0.441,0.223-0.669
			c0.022-0.08,0.042-0.16,0.062-0.241c0.048-0.196,0.087-0.394,0.12-0.595c0.015-0.091,0.03-0.182,0.042-0.273
			c0.024-0.197,0.037-0.397,0.046-0.599c0.004-0.087,0.012-0.173,0.013-0.26c0-0.021,0.003-0.042,0.003-0.063V124.83
			C456.245,120.682,452.883,117.32,448.734,117.32z M204.727,430.727c0-28.271,23-51.271,51.271-51.271
			c28.27,0,51.27,23,51.27,51.271v66.254H204.727V430.727z M415.298,233.901H96.697l-22.308-55.317h363.218L415.298,233.901z"/>
	</g>
</g>
<g>
	<g>
		<path d="M177.034,121.71h-30.781c-4.148,0-7.51,3.362-7.51,7.51c0,4.148,3.362,7.51,7.51,7.51h30.781
			c4.148,0,7.51-3.362,7.51-7.51C184.544,125.072,181.182,121.71,177.034,121.71z"/>
	</g>
</g>
<g>
	<g>
		<path d="M385.268,447.462h-30.781c-4.148,0-7.51,3.362-7.51,7.51s3.362,7.51,7.51,7.51h30.781c4.148,0,7.51-3.362,7.51-7.51
			S389.417,447.462,385.268,447.462z"/>
	</g>
</g>
<g>
	<g>
		<path d="M378.271,79.855H347.49c-4.148,0-7.51,3.362-7.51,7.51s3.362,7.51,7.51,7.51h30.781c4.148,0,7.51-3.362,7.51-7.51
			S382.419,79.855,378.271,79.855z"/>
	</g>
</g>
<g>
	<g>
		<path d="M269.911,315.5h-15.391c-4.148,0-7.51,3.362-7.51,7.51s3.362,7.51,7.51,7.51h15.391c4.148,0,7.51-3.362,7.51-7.51
			S274.06,315.5,269.911,315.5z"/>
	</g>
</g>
<g>
	<g>
		<path d="M385.966,374.893h-15.39c-4.148,0-7.51,3.362-7.51,7.51s3.362,7.51,7.51,7.51h15.39c4.148,0,7.51-3.362,7.51-7.51
			S390.113,374.893,385.966,374.893z"/>
	</g>
</g>
<g>
	<g>
		<path d="M140.217,434.181h-15.391c-4.148,0-7.51,3.362-7.51,7.51s3.362,7.51,7.51,7.51h15.391c4.148,0,7.51-3.362,7.51-7.51
			S144.365,434.181,140.217,434.181z"/>
	</g>
</g>
<g>
	<g>
		<path d="M328.084,268.314h-56.392c-4.148,0-7.51,3.362-7.51,7.51s3.362,7.51,7.51,7.51h56.392c4.149-0.001,7.51-3.363,7.51-7.51
			C335.594,271.676,332.232,268.314,328.084,268.314z"/>
	</g>
</g>
<g>
	<g>
		<path d="M205.23,340.839h-56.392c-4.147,0-7.51,3.362-7.51,7.51s3.362,7.51,7.51,7.51h56.392c4.148,0,7.51-3.362,7.51-7.51
			S209.378,340.839,205.23,340.839z"/>
	</g>
</g>
<g>
</g>
<g>
</g>
<g>
</g>
<g>
</g>
<g>
</g>
<g>
</g>
<g>
</g>
<g>
</g>
<g>
</g>
<g>
</g>
<g>
</g>
<g>
</g>
<g>
</g>
<g>
</g>
<g>
</g>
</svg>
