<?xml version="1.0" encoding="iso-8859-1"?>
<!-- Generator: Adobe Illustrator 19.0.0, SVG Export Plug-In . SVG Version: 6.00 Build 0)  -->
<svg version="1.1" id="Capa_1" xmlns="http://www.w3.org/2000/svg" xmlns:xlink="http://www.w3.org/1999/xlink" x="0px" y="0px"
	 viewBox="0 0 512 512" style="enable-background:new 0 0 512 512;" xml:space="preserve">
<g>
	<g>
		<path d="M437.02,74.981C388.667,26.629,324.379,0,255.999,0S123.331,26.629,74.978,74.982
			C31.973,117.988,5.632,175.016,0.81,235.562c-4.768,59.862,11.641,119.656,46.202,168.365c3.195,4.503,9.436,5.565,13.942,2.369
			c4.504-3.196,5.564-9.438,2.368-13.942c-66.719-94.036-55.87-221.561,25.799-303.23c92.017-92.018,241.739-92.018,333.756,0
			C467.452,133.698,492,192.963,492,256.002s-24.548,122.304-69.123,166.878c-81.94,81.94-209.732,92.604-303.859,25.348
			c-4.495-3.212-10.74-2.171-13.95,2.323c-3.211,4.494-2.171,10.739,2.323,13.95c43.319,30.951,95.459,47.5,148.679,47.499
			c6.643,0,13.309-0.258,19.969-0.778c60.7-4.739,117.871-31.09,160.981-74.2C485.372,388.669,512,324.381,512,256.001
			S485.371,123.334,437.02,74.981z"/>
	</g>
</g>
<g>
	<g>
		<path d="M89.785,423.541l-0.657-0.654c-3.901-3.91-10.234-3.916-14.142-0.015c-3.909,3.901-3.916,10.233-0.015,14.143l0.76,0.756
			c1.949,1.925,4.488,2.885,7.027,2.885c2.579,0,5.159-0.993,7.115-2.973C93.754,433.754,93.714,427.422,89.785,423.541z"/>
	</g>
</g>
<g>
	<g>
		<path d="M255.999,62.001c-106.973,0-194.001,87.029-194.001,194.001s87.029,194.001,194.001,194.001S450,362.974,450,256.002
			S362.972,62.001,255.999,62.001z M397.741,155.186c14.488,20.31,24.719,43.852,29.394,69.315h-98.71L397.741,155.186z
			 M285.999,84.597c25.303,4.416,48.74,14.319,69.047,28.43l-69.047,69.048V84.597z M285.999,210.359l84.904-84.905
			c5.006,4.412,9.761,9.101,14.232,14.053l-84.993,84.993h-7.97c-1.878-2.154-3.942-4.14-6.172-5.93V210.359z M245.999,82.295
			c3.311-0.189,6.643-0.294,10-0.294c3.357,0,6.689,0.106,10,0.294v119.78l-6.098,6.098c-1.288-0.104-2.587-0.172-3.902-0.172
			c-1.315,0-2.613,0.068-3.902,0.172l-6.098-6.098V82.295z M225.999,84.598v97.478l-69.047-69.047
			C177.258,98.917,200.696,89.014,225.999,84.598z M141.095,125.455l84.903,84.905v8.212c-2.23,1.791-4.294,3.776-6.172,5.93h-7.97
			l-84.993-84.993C131.334,134.556,136.089,129.867,141.095,125.455z M114.256,155.186l69.315,69.315h-98.71
			C89.537,199.038,99.768,175.496,114.256,155.186z M81.998,256.002c0-3.865,0.14-7.697,0.39-11.5h121.185l4.892,4.892
			c-0.299,2.162-0.466,4.365-0.466,6.608c0,1.315,0.068,2.613,0.172,3.902l-4.598,4.598H82.208
			C82.072,261.685,81.998,258.852,81.998,256.002z M113.025,355.05c-14.39-20.708-24.398-44.672-28.68-70.548h99.228L113.025,355.05
			z M225.999,427.406c-26.038-4.544-50.107-14.891-70.815-29.662l70.815-70.815V427.406z M225.999,298.644l-86.493,86.494
			c-4.952-4.471-9.642-9.225-14.053-14.231l86.404-86.404h5.547c2.469,3.335,5.362,6.335,8.595,8.93V298.644z M265.999,429.708
			c-3.311,0.189-6.643,0.294-10,0.294c-3.357,0.001-6.689-0.105-10-0.293V306.928l3.392-3.392c2.162,0.299,4.365,0.466,6.608,0.466
			c2.243,0,4.446-0.167,6.608-0.466l3.392,3.392V429.708z M255.999,284.002c-15.439,0-28-12.561-28-28c0-15.439,12.561-28,28-28
			c15.439,0,28,12.561,28,28C283.999,271.441,271.438,284.002,255.999,284.002z M285.999,427.406V326.928l70.815,70.815
			C336.106,412.516,312.037,422.862,285.999,427.406z M372.492,385.138l-86.493-86.493v-5.212c3.232-2.596,6.126-5.596,8.595-8.93
			h5.547l86.404,86.404C382.134,375.912,377.444,380.666,372.492,385.138z M398.973,355.05l-70.547-70.548h99.228
			C423.371,310.378,413.363,334.342,398.973,355.05z M308.425,264.502l-4.598-4.598c0.104-1.288,0.172-2.587,0.172-3.902
			c0-2.243-0.167-4.446-0.466-6.608l4.892-4.892H429.61c0.25,3.803,0.39,7.635,0.39,11.5c0,2.85-0.074,5.683-0.21,8.5H308.425z"/>
	</g>
</g>
<g>
	<g>
		<path d="M263.068,248.932c-1.859-1.86-4.439-2.93-7.069-2.93c-2.63,0-5.21,1.07-7.07,2.93c-1.86,1.86-2.93,4.44-2.93,7.07
			c0,2.63,1.069,5.21,2.93,7.07s4.44,2.93,7.07,2.93c2.63,0,5.21-1.07,7.069-2.93c1.86-1.86,2.931-4.44,2.931-7.07
			C265.999,253.372,264.929,250.792,263.068,248.932z"/>
	</g>
</g>
<g>
	<g>
		<path d="M378.281,67.615c-25.113-16.333-52.761-27.305-82.177-32.609c-5.431-0.98-10.636,2.632-11.615,8.066
			c-0.98,5.436,2.631,10.636,8.066,11.616c26.779,4.83,51.953,14.82,74.821,29.693c1.684,1.095,3.573,1.618,5.442,1.618
			c3.271,0,6.477-1.603,8.393-4.549C384.224,76.82,382.911,70.626,378.281,67.615z"/>
	</g>
</g>
<g>
	<g>
		<path d="M256.451,31.433l-0.452-0.001c-5.522,0-10,4.477-10,10c0,5.523,4.478,10,10,10l0.382,0.001c0.012,0,0.023,0,0.036,0
			c5.506,0,9.979-4.454,9.999-9.965C266.436,35.945,261.974,31.452,256.451,31.433z"/>
	</g>
</g>
<g>
</g>
<g>
</g>
<g>
</g>
<g>
</g>
<g>
</g>
<g>
</g>
<g>
</g>
<g>
</g>
<g>
</g>
<g>
</g>
<g>
</g>
<g>
</g>
<g>
</g>
<g>
</g>
<g>
</g>
</svg>
