<?xml version="1.0" encoding="iso-8859-1"?>
<!-- Generator: Adobe Illustrator 19.0.0, SVG Export Plug-In . SVG Version: 6.00 Build 0)  -->
<svg version="1.1" id="Capa_1" xmlns="http://www.w3.org/2000/svg" xmlns:xlink="http://www.w3.org/1999/xlink" x="0px" y="0px"
	 viewBox="0 0 512 512" style="enable-background:new 0 0 512 512;" xml:space="preserve">
<g>
	<g>
		<path d="M455.143,206.023l20.105-30.327c2.333-3.518,2.55-8.019,0.567-11.746c-1.982-3.727-5.837-6.062-10.058-6.094
			l-26.021-0.196C418.216,67.36,336.876,0,240.081,0C126.909,0,34.837,92.072,34.837,205.244c0,55.771,22.37,106.408,58.596,143.437
			L61.151,470.336c-1.557,5.866-0.736,11.987,2.312,17.236c3.048,5.249,7.956,8.997,13.822,10.553l49.384,13.105
			c1.941,0.515,3.909,0.77,5.865,0.77c3.955,0,7.859-1.043,11.371-3.082c5.249-3.047,8.997-7.956,10.553-13.822l24.886-93.783
			c19.202,5.96,39.601,9.175,60.737,9.175c21.136,0,41.536-3.214,60.738-9.175l24.886,93.782
			c1.556,5.866,5.304,10.775,10.553,13.823c3.512,2.039,7.414,3.082,11.37,3.082c1.956,0,3.925-0.255,5.865-0.77l49.384-13.105
			c5.866-1.556,10.775-5.304,13.822-10.553s3.869-11.37,2.312-17.236l-9.857-37.146c-1.061-4.001-5.168-6.385-9.165-5.322
			c-4.001,1.061-6.383,5.165-5.321,9.165l9.857,37.147c0.53,1.997,0.25,4.08-0.787,5.867c-1.037,1.786-2.708,3.062-4.705,3.592
			l-49.384,13.105c-1.996,0.53-4.079,0.251-5.866-0.787c-1.786-1.037-3.062-2.708-3.592-4.705l-25.189-94.923
			c21.842-8.594,41.868-20.827,59.324-35.952l7.95,29.957c1.062,4,5.167,6.382,9.166,5.321c4-1.062,6.383-5.165,5.321-9.166
			l-10.033-37.808c25.281-25.841,43.803-58.313,52.693-94.53l25.609,0.193c0.029,0,0.059,0,0.087,0
			c4.188,0,8.038-2.271,10.062-5.942c2.038-3.697,1.889-8.2-0.391-11.754L455.143,206.023z M459.188,172.795l-16.995,25.636
			l-42.265-0.318l17.175-25.635L459.188,172.795z M139.972,491.252c-0.53,1.996-1.806,3.667-3.592,4.704s-3.871,1.315-5.867,0.787
			l-49.385-13.105c-1.996-0.53-3.667-1.806-4.704-3.592c-1.037-1.787-1.317-3.87-0.787-5.866l30.199-113.804
			c17.456,15.126,37.482,27.358,59.324,35.952L139.972,491.252z M240.081,395.5c-104.908,0-190.256-85.349-190.256-190.256
			S135.173,14.988,240.081,14.988c88.439,0,162.966,60.66,184.188,142.556l-8.936-0.067c-3.871-0.032-7.476,1.875-9.633,5.095
			l-23.569,35.178h-16.167c-3.891-66.062-58.861-118.617-125.883-118.617c-69.538,0-126.112,56.573-126.112,126.111
			s56.573,126.112,126.112,126.112c67.022,0,121.992-52.555,125.883-118.618h15.753l23.336,35.988
			c2.109,3.252,5.681,5.21,9.555,5.239l9.373,0.07C402.382,335.378,328.127,395.5,240.081,395.5z M211.797,163.312
			c1.783,3.735,6.256,5.319,9.992,3.534c5.731-2.736,11.885-4.123,18.293-4.123c20.889,0,38.295,15.145,41.847,35.027h-41.847
			c-4.139,0-7.494,3.355-7.494,7.494c0,4.139,3.355,7.494,7.494,7.494h41.847c-3.552,19.883-20.958,35.028-41.847,35.028
			c-23.446,0-42.521-19.075-42.521-42.522c0-2.503,0.219-5.009,0.649-7.45c0.72-4.075-2.002-7.963-6.078-8.682
			c-4.075-0.721-7.963,2.002-8.682,6.077c-0.582,3.298-0.877,6.681-0.877,10.054c0,31.711,25.799,57.51,57.509,57.51
			c29.17,0,53.32-21.835,57.005-50.016h53.86c-3.868,57.792-52.11,103.63-110.865,103.63c-61.274,0-111.124-49.85-111.124-111.124
			c0-61.273,49.85-111.123,111.124-111.123c58.755,0,106.998,45.838,110.865,103.629h-53.86v0.001
			c-3.686-28.18-27.836-50.015-57.005-50.015c-8.66,0-16.987,1.879-24.751,5.586C211.596,155.104,210.014,159.577,211.797,163.312z
			 M416.604,238.991l-16.788-25.889l42.265,0.318l16.608,25.888L416.604,238.991z"/>
	</g>
</g>
<g>
</g>
<g>
</g>
<g>
</g>
<g>
</g>
<g>
</g>
<g>
</g>
<g>
</g>
<g>
</g>
<g>
</g>
<g>
</g>
<g>
</g>
<g>
</g>
<g>
</g>
<g>
</g>
<g>
</g>
</svg>
