<?xml version="1.0" encoding="iso-8859-1"?>
<!-- Generator: Adobe Illustrator 19.0.0, SVG Export Plug-In . SVG Version: 6.00 Build 0)  -->
<svg version="1.1" id="Capa_1" xmlns="http://www.w3.org/2000/svg" xmlns:xlink="http://www.w3.org/1999/xlink" x="0px" y="0px"
	 viewBox="0 0 511.998 511.998" style="enable-background:new 0 0 511.998 511.998;" xml:space="preserve">
<g>
	<g>
		<path d="M339.105,281.591c2.831-19.184,1.108-39.352-0.286-50.295c7.755-2.13,13.478-9.218,13.478-17.643v-5.526
			c0-10.004-8.058-18.149-18.024-18.316c-1.831-9.118-4.982-17.444-9.446-24.883c-8.929-14.876-22.793-22.428-36.202-29.73
			c-8.535-4.648-16.597-9.04-23.247-15.159c-12.191-11.217-17.421-23.507-17.488-41.093c0-0.096-0.008-2.227-0.019-5.588
			c7.283-2.198,12.604-8.961,12.604-16.951v-6.773c0-8.026-5.371-14.812-12.705-16.977c-0.002-2.889,0.001-5.176,0.008-6.514
			c0.039-6.965-2.646-13.524-7.561-18.467C235.295,2.726,228.739,0,221.757,0h-0.573c-14.054,0-25.475,10.999-26.002,25.04
			c-0.061,1.616-0.124,5.015-0.184,9.354c-5.218,3.084-8.736,8.752-8.736,15.24v6.773c0,0.987,0.091,1.952,0.247,2.895
			c-0.02,0.076-0.046,0.149-0.063,0.227c-0.24,1.068-24.068,107.727-26.742,189.567c-0.003,0.11-0.005,0.22-0.003,0.33l0.21,18.833
			c0.001,0.08,0.003,0.161,0.006,0.242c3.512,80.965,26.299,182.949,26.529,183.969c0.016,0.073,0.048,0.137,0.066,0.208
			c-0.159,0.949-0.25,1.92-0.25,2.913v6.773c0,6.49,3.52,12.16,8.741,15.244c0.059,4.394,0.12,7.798,0.179,9.35
			c0.527,14.042,11.948,25.04,26.002,25.04h0.573c6.982,0,13.537-2.726,18.46-7.677c4.915-4.943,7.6-11.502,7.561-18.467
			c-0.007-1.314-0.01-3.603-0.008-6.514c7.333-2.166,12.705-8.951,12.705-16.977v-6.773c0-7.992-5.324-14.757-12.609-16.952
			c0.014-4.394,0.024-7.279,0.024-7.391c0.022-5.638,0.57-10.618,1.677-15.224c0.972-4.044-1.52-8.111-5.564-9.083
			c-4.04-0.964-8.111,1.52-9.083,5.564c-1.382,5.754-2.067,11.865-2.094,18.686c0,0.106-0.009,2.691-0.022,6.691h-23.053
			c-0.009-2.93-0.009-4.929,0.003-5.477c1.065-18.006,4.139-31.494,9.672-42.446c7.756-15.353,16.677-22.312,31.453-30.485
			c1.576-0.872,3.192-1.75,4.832-2.644c15.197-8.27,33.027-17.986,42.056-33.794h20.372c-1.508,5.233-3.584,10.069-6.228,14.476
			c-6.819,11.36-18.317,17.622-30.489,24.252c-5.338,2.908-10.857,5.914-16.124,9.433c-3.459,2.311-4.389,6.988-2.077,10.446
			c1.451,2.173,3.837,3.348,6.269,3.348c1.439,0,2.892-0.412,4.178-1.271c4.701-3.141,9.683-5.855,14.959-8.728
			c13.408-7.302,27.271-14.853,36.201-29.729c4.026-6.709,6.977-14.146,8.862-22.228h0.277c10.108,0,18.331-8.224,18.331-18.332
			v-5.526C352.298,290.853,346.717,283.82,339.105,281.591z M210.236,25.605c0.222-5.912,5.031-10.542,10.949-10.542h0.573
			c2.942,0,5.704,1.148,7.778,3.234c2.066,2.079,3.196,4.835,3.179,7.761c-0.007,1.242-0.01,3.288-0.009,5.867h-22.612
			C210.139,29.129,210.187,26.913,210.236,25.605z M201.327,49.634c0-1.458,1.187-2.645,2.645-2.645h38.794
			c1.458,0,2.645,1.187,2.645,2.645v6.773c0,1.458-1.187,2.645-2.645,2.645h-38.794c-1.458,0-2.645-1.187-2.645-2.645V49.634z
			 M229.536,493.702c-2.074,2.086-4.837,3.234-7.778,3.234h-0.573c-5.918,0-10.727-4.631-10.949-10.542
			c-0.047-1.264-0.094-3.482-0.138-6.321h22.609c-0.001,2.594,0.002,4.648,0.008,5.867
			C232.731,488.867,231.602,491.623,229.536,493.702z M242.766,452.948c1.458,0,2.645,1.187,2.645,2.645v6.773
			c0,1.458-1.187,2.645-2.645,2.645h-38.794c-1.458,0-2.645-1.187-2.645-2.645v-6.773c0-1.458,1.187-2.645,2.645-2.645H242.766z
			 M283.813,281.595c-7.613,2.228-13.194,9.262-13.194,17.585v5.526c0,7.157,4.132,13.353,10.127,16.37
			c-9.934,11.801-23.985,17.932-37.159,25.219c-16.681,9.227-28.182,18.219-37.606,36.873c-5.418,10.725-8.801,23.211-10.467,38.745
			c-6.959-35.557-18.174-99.639-20.541-153.945l-0.206-18.545c1.84-55.745,13.699-123.397,20.875-159.985
			c0.744,6.528,1.793,12.488,3.18,18.008c1.014,4.034,5.102,6.484,9.14,5.468c4.034-1.013,6.483-5.105,5.469-9.14
			c-1.883-7.494-3.086-15.997-3.677-25.991c-0.009-0.429-0.011-1.74-0.008-3.668h23.062c0.01,2.95,0.016,4.798,0.017,4.887
			c0.083,21.605,7.185,38.167,22.352,52.123c4.536,4.174,9.611,7.698,14.877,10.887c14.546,8.812,32.657,15.34,41.856,30.667
			c3.082,5.135,5.376,10.865,6.913,17.116c0,0-19.661,0-19.667,0c-0.482,0-8.143-11.872-9.384-13.164
			c-3.797-3.952-8.097-7.395-12.587-10.524c-8.356-5.824-17.487-10.501-26.307-15.39c-7.472-4.134-12.712-7.635-16.99-11.353
			c-3.14-2.728-7.897-2.395-10.626,0.744c-2.728,3.14-2.395,7.897,0.743,10.625c7.705,6.698,15.693,11.062,24.505,15.858
			c12.975,7.062,26.226,14.288,33.77,24.478c-6.816,2.675-11.662,9.303-11.662,17.057v5.526c0,8.425,5.724,15.51,13.48,17.643
			C282.705,242.239,280.981,262.409,283.813,281.595z M337.233,304.707c0,1.802-1.466,3.269-3.268,3.269H288.95
			c-1.802,0-3.268-1.466-3.268-3.269v-5.526c0-1.802,1.466-3.268,3.268-3.268h45.015c1.802,0,3.268,1.466,3.268,3.268V304.707z
			 M299.216,231.985h24.485c1.317,9.996,3.259,30.461,0.279,48.861h-25.042C295.957,262.444,297.899,241.979,299.216,231.985z
			 M333.965,216.922h-3.762c-0.007,0-0.015-0.001-0.022-0.001h-37.448c-0.007,0-0.015,0.001-0.022,0.001h-3.762
			c-1.802,0-3.268-1.466-3.268-3.269v-5.526c0-1.802,1.466-3.268,3.268-3.268h45.015c1.802,0,3.268,1.466,3.268,3.268v5.526h0.001
			C337.233,215.455,335.767,216.922,333.965,216.922z"/>
	</g>
</g>
<g>
</g>
<g>
</g>
<g>
</g>
<g>
</g>
<g>
</g>
<g>
</g>
<g>
</g>
<g>
</g>
<g>
</g>
<g>
</g>
<g>
</g>
<g>
</g>
<g>
</g>
<g>
</g>
<g>
</g>
</svg>
