<?xml version="1.0" encoding="iso-8859-1"?>
<!-- Generator: Adobe Illustrator 19.0.0, SVG Export Plug-In . SVG Version: 6.00 Build 0)  -->
<svg version="1.1" id="Capa_1" xmlns="http://www.w3.org/2000/svg" xmlns:xlink="http://www.w3.org/1999/xlink" x="0px" y="0px"
	 viewBox="0 0 512 512" style="enable-background:new 0 0 512 512;" xml:space="preserve">
<g>
	<g>
		<path d="M358.448,153.598c-39.66-39.659-92.39-61.501-148.476-61.501c-56.088,0-108.818,21.842-148.477,61.502
			c-2.986,2.986-2.986,7.829,0,10.814c2.986,2.986,7.829,2.986,10.814,0c36.771-36.771,85.66-57.022,137.662-57.022
			c52.001,0,100.891,20.25,137.662,57.022c36.771,36.771,57.021,85.66,57.021,137.662c0,52.002-20.25,100.891-57.021,137.662
			c-75.907,75.907-199.417,75.908-275.325,0c-32.04-32.04-51.992-74.487-56.18-119.523c-4.136-44.463,7.17-89.27,31.834-126.168
			c2.347-3.512,1.403-8.26-2.108-10.607c-3.513-2.347-8.261-1.403-10.607,2.108C8.639,225.355-3.558,273.684,0.901,321.631
			c4.518,48.58,26.038,94.365,60.594,128.921c40.935,40.935,94.706,61.403,148.476,61.403c53.771,0,107.542-20.468,148.477-61.403
			c39.66-39.66,61.502-92.39,61.502-148.476C419.95,245.988,398.108,193.258,358.448,153.598z"/>
	</g>
</g>
<g>
	<g>
		<path d="M330.39,181.658c-66.399-66.398-174.437-66.399-240.836,0c-66.398,66.399-66.398,174.437,0,240.835
			c33.199,33.199,76.809,49.799,120.418,49.799c43.61,0,87.219-16.6,120.419-49.799C396.789,356.094,396.789,248.056,330.39,181.658
			z M319.576,411.678c-60.434,60.434-158.77,60.435-219.207,0c-60.435-60.435-60.435-158.77,0-219.206
			c30.218-30.217,69.91-45.327,109.604-45.327c39.692,0,79.386,15.109,109.604,45.327
			C380.011,252.907,380.011,351.243,319.576,411.678z"/>
	</g>
</g>
<g>
	<g>
		<path d="M450.598,61.448c-81.87-81.87-215.083-81.87-296.954,0c-4.975,4.975-9.733,10.23-14.144,15.618
			c-2.675,3.268-2.194,8.086,1.074,10.761s8.086,2.194,10.761-1.075c4.091-4.998,8.506-9.873,13.123-14.491
			c75.908-75.907,199.418-75.906,275.325,0c75.907,75.908,75.907,199.418,0,275.325c-4.619,4.619-9.495,9.034-14.491,13.123
			c-3.268,2.674-3.749,7.493-1.074,10.761c1.511,1.848,3.707,2.804,5.922,2.804c1.704,0,3.418-0.567,4.839-1.729
			c5.387-4.409,10.642-9.168,15.617-14.144C532.468,276.531,532.468,143.319,450.598,61.448z"/>
	</g>
</g>
<g>
	<g>
		<path d="M465.806,162.836c-1.164-4.059-5.397-6.408-9.459-5.242c-4.059,1.164-6.406,5.399-5.243,9.459
			c12.284,42.83,5.635,88.831-18.242,126.209c-2.273,3.559-1.231,8.287,2.328,10.561c1.276,0.815,2.701,1.203,4.11,1.203
			c2.522,0,4.992-1.248,6.451-3.531C471.99,260.421,479.299,209.882,465.806,162.836z"/>
	</g>
</g>
<g>
	<g>
		<path d="M453.515,131.861c-8.042-15.587-18.465-29.835-30.98-42.35c-27.591-27.591-64.12-44.984-102.859-48.977
			c-38.184-3.936-76.928,5.212-109.095,25.759c-3.559,2.274-4.602,7.002-2.328,10.561s7.002,4.602,10.561,2.328
			c29.268-18.695,64.531-27.019,99.292-23.435c35.254,3.633,68.499,19.464,93.613,44.577c11.397,11.397,20.886,24.367,28.203,38.548
			c1.358,2.632,4.032,4.143,6.802,4.143c1.181,0,2.379-0.274,3.5-0.852C453.979,140.227,455.451,135.614,453.515,131.861z"/>
	</g>
</g>
<g>
	<g>
		<path d="M217.619,294.895v-63.309c18.185,2.863,31.947,15.726,31.947,31.122c0,4.223,3.424,7.647,7.647,7.647
			s7.647-3.424,7.647-7.647c0-23.701-20.585-43.351-47.242-46.549v-8.567c0-4.223-3.424-7.647-7.647-7.647s-7.647,3.424-7.647,7.647
			v8.567c-26.658,3.199-47.242,22.848-47.242,46.549c0,23.701,20.585,43.351,47.242,46.549v63.31
			c-18.186-2.863-31.948-15.727-31.948-31.123c0-4.223-3.424-7.647-7.647-7.647s-7.647,3.424-7.647,7.647
			c0,23.701,20.585,43.351,47.242,46.549v8.567c0,4.223,3.424,7.647,7.647,7.647s7.647-3.424,7.647-7.647v-8.567
			c26.658-3.199,47.242-22.848,47.242-46.549C264.861,317.743,244.276,298.093,217.619,294.895z M202.325,293.829
			c-18.186-2.863-31.948-15.726-31.948-31.122c0-15.395,13.763-28.259,31.948-31.122V293.829z M217.619,372.566v-62.244
			c18.185,2.863,31.947,15.726,31.947,31.121C249.567,356.839,235.804,369.703,217.619,372.566z"/>
	</g>
</g>
<g>
</g>
<g>
</g>
<g>
</g>
<g>
</g>
<g>
</g>
<g>
</g>
<g>
</g>
<g>
</g>
<g>
</g>
<g>
</g>
<g>
</g>
<g>
</g>
<g>
</g>
<g>
</g>
<g>
</g>
</svg>
