<?xml version="1.0" encoding="iso-8859-1"?>
<!-- Generator: Adobe Illustrator 19.0.0, SVG Export Plug-In . SVG Version: 6.00 Build 0)  -->
<svg version="1.1" id="Capa_1" xmlns="http://www.w3.org/2000/svg" xmlns:xlink="http://www.w3.org/1999/xlink" x="0px" y="0px"
	 viewBox="0 0 512.001 512.001" style="enable-background:new 0 0 512.001 512.001;" xml:space="preserve">
<g>
	<g>
		<path d="M256,344.413c-14.132,0-25.629,11.497-25.629,25.629c0.001,14.132,11.497,25.629,25.629,25.629
			s25.629-11.497,25.629-25.629C281.629,355.91,270.132,344.413,256,344.413z M256,380.713c-5.884,0-10.671-4.787-10.671-10.671
			c0-5.884,4.787-10.671,10.671-10.671c5.884,0,10.671,4.787,10.671,10.671C266.671,375.926,261.884,380.713,256,380.713z"/>
	</g>
</g>
<g>
	<g>
		<path d="M343.712,344.413c-14.132,0-25.629,11.497-25.629,25.629s11.497,25.629,25.629,25.629
			c14.132,0,25.629-11.497,25.629-25.629C369.341,355.91,357.844,344.413,343.712,344.413z M343.712,380.713
			c-5.884,0-10.671-4.787-10.671-10.671c0-5.884,4.787-10.671,10.671-10.671c5.884,0,10.671,4.787,10.671,10.671
			C354.383,375.926,349.596,380.713,343.712,380.713z"/>
	</g>
</g>
<g>
	<g>
		<path d="M168.288,344.413c-14.132,0-25.629,11.497-25.629,25.629c0.001,14.132,11.497,25.629,25.629,25.629
			c14.132,0,25.629-11.497,25.629-25.629C193.917,355.91,182.42,344.413,168.288,344.413z M168.288,380.713
			c-5.884,0-10.671-4.787-10.671-10.671c0-5.884,4.787-10.671,10.671-10.671c5.884,0,10.671,4.787,10.671,10.671
			C178.959,375.926,174.172,380.713,168.288,380.713z"/>
	</g>
</g>
<g>
	<g>
		<path d="M256,198.749c-15.78,0-28.142,17.084-28.142,38.893c0,21.809,12.362,38.892,28.142,38.892
			c15.78,0,28.142-17.083,28.142-38.892C284.142,215.834,271.78,198.749,256,198.749z M256,261.577
			c-6.236,0-13.184-9.83-13.184-23.935c0-14.106,6.949-23.935,13.184-23.935c6.236,0,13.184,9.83,13.184,23.935
			C269.184,251.748,262.236,261.577,256,261.577z"/>
	</g>
</g>
<g>
	<g>
		<path d="M484.974,96.821c-14.902,0-27.025,12.124-27.025,27.026c0,1.635,0.154,3.233,0.433,4.788L356.56,175.246
			c-6.408,2.934-14.12,1.273-18.755-4.037l-59.107-67.744c2.733-4.222,4.327-9.247,4.327-14.641
			c0-14.902-12.124-27.026-27.026-27.026c-14.902,0-27.026,12.124-27.026,27.026c0,5.393,1.594,10.418,4.327,14.64l-59.107,67.744
			c-4.633,5.311-12.345,6.97-18.754,4.037l-18.184-8.324c-3.756-1.721-8.194-0.069-9.913,3.687
			c-1.719,3.755-0.069,8.194,3.687,9.913l18.184,8.324c12.386,5.67,27.294,2.462,36.251-7.804l59.101-67.737
			c3.475,1.63,7.349,2.546,11.434,2.546s7.959-0.916,11.434-2.546l59.101,67.738c8.958,10.266,23.865,13.475,36.252,7.804
			l102.229-46.798c2.113,2.315,4.625,4.258,7.423,5.73l-12.904,51.581c-6.215-0.064-12.614,2.525-18.167,7.49
			c-6.371,5.697-11.268,14.069-13.79,23.575c-2.523,9.506-2.421,19.205,0.287,27.311c2.502,7.491,7.154,13.138,13.054,16.036
			l-4.031,16.113h-96.626c-4.131,0-7.479,3.349-7.479,7.479s3.348,7.479,7.479,7.479h94.985v16.086H76.753v-16.086h218.636
			c4.131,0,7.479-3.348,7.479-7.479c0-4.131-3.348-7.479-7.479-7.479H75.113l-3.886-15.531
			c13.481-5.498,19.873-24.093,14.609-43.929c-2.523-9.506-7.42-17.878-13.79-23.574c-5.971-5.339-12.921-7.933-19.566-7.431
			l-12.919-51.64c2.798-1.471,5.31-3.414,7.424-5.73l41.652,19.067c3.755,1.72,8.193,0.068,9.913-3.687
			c1.719-3.756,0.069-8.194-3.687-9.913l-41.244-18.88c0.279-1.556,0.433-3.154,0.433-4.789c0-14.902-12.124-27.026-27.026-27.026
			S0,108.944,0,123.848c0,14.184,10.985,25.842,24.894,26.934l13.794,55.136c-3.009,3.019-5.405,6.966-6.965,11.633
			c-2.708,8.106-2.81,17.804-0.288,27.311c4.041,15.23,13.687,26.413,24.481,29.925l5.879,23.499v30.122v83.273v26.058
			c0,6.873,5.592,12.465,12.465,12.465h363.48c6.873,0,12.465-5.592,12.465-12.465v-26.058v-83.272v-0.001v-30.124l5.776-23.086
			c4.245-1.093,8.423-3.377,12.208-6.761c6.371-5.697,11.268-14.069,13.79-23.574c2.523-9.506,2.421-19.205-0.287-27.311
			c-1.752-5.244-4.561-9.581-8.109-12.709l13.524-54.059c13.908-1.092,24.894-12.75,24.894-26.934
			C512,108.944,499.876,96.821,484.974,96.821z M256,100.894c-6.655,0-12.068-5.414-12.068-12.068S249.346,76.758,256,76.758
			c6.655,0,12.068,5.414,12.068,12.068C268.069,95.48,262.655,100.894,256,100.894z M27.026,135.915
			c-6.655,0-12.068-5.414-12.068-12.068c0-6.654,5.414-12.068,12.068-12.068s12.068,5.414,12.068,12.068
			C39.095,130.501,33.681,135.915,27.026,135.915z M64.775,260.777c-6.03,1.598-15.265-6.12-18.883-19.753
			c-1.756-6.617-1.749-13.445,0.018-18.734c0.826-2.473,2.78-6.771,6.587-7.782c0.562-0.149,1.125-0.216,1.682-0.216
			c3.215,0,6.241,2.227,7.897,3.708c4.156,3.717,7.547,9.643,9.303,16.261C74.997,247.894,70.802,259.178,64.775,260.777z
			 M435.247,435.243H76.753v-16.086h358.494V435.243z M435.247,404.201H76.753v-68.315h358.494V404.201z M467.521,241.025
			c-1.756,6.617-5.146,12.544-9.303,16.261c-1.945,1.738-5.778,4.499-9.579,3.492c-3.807-1.01-5.761-5.309-6.588-7.782
			c-1.766-5.288-1.772-12.117-0.017-18.734c1.756-6.617,5.147-12.544,9.303-16.26c1.656-1.481,4.683-3.708,7.898-3.708
			c0.557,0,1.12,0.067,1.682,0.216c3.807,1.01,5.761,5.309,6.588,7.782C469.271,227.579,469.277,234.407,467.521,241.025z
			 M484.974,135.915c-6.654,0-12.067-5.414-12.067-12.068c0-6.654,5.413-12.068,12.067-12.068c6.655,0,12.068,5.414,12.068,12.068
			C497.042,130.501,491.629,135.915,484.974,135.915z"/>
	</g>
</g>
<g>
</g>
<g>
</g>
<g>
</g>
<g>
</g>
<g>
</g>
<g>
</g>
<g>
</g>
<g>
</g>
<g>
</g>
<g>
</g>
<g>
</g>
<g>
</g>
<g>
</g>
<g>
</g>
<g>
</g>
</svg>
