<?xml version="1.0" encoding="iso-8859-1"?>
<!-- Generator: Adobe Illustrator 19.0.0, SVG Export Plug-In . SVG Version: 6.00 Build 0)  -->
<svg version="1.1" id="Capa_1" xmlns="http://www.w3.org/2000/svg" xmlns:xlink="http://www.w3.org/1999/xlink" x="0px" y="0px"
	 viewBox="0 0 512 512" style="enable-background:new 0 0 512 512;" xml:space="preserve">
<g>
	<g>
		<g>
			<path d="M399.646,337.393V230.461L352.5,218.804v-33.636l-88.998-15V93.934l7.062-14.496l5.327-10.934
				c52.716,9.469,91.83,55.819,91.83,109.951v33.091h15v-33.091c0-61.312-44.25-113.82-103.927-124.664L270.28,0H241.72
				l-8.514,53.791c-59.676,10.845-103.926,63.352-103.926,124.664v33.089h15v-33.089c0-54.132,39.114-100.482,91.829-109.951
				l12.389,25.43v76.232l-89,15v33.636l-47.151,11.658v106.932l143.653,71.594L399.646,337.393z M247.717,58.075L254.534,15h2.934
				l6.816,43.075l-8.283,17.005L247.717,58.075z M174.501,197.851L256,184.115l81.499,13.736v17.244l-81.498-20.15l-81.5,20.15
				V197.851z M248.501,388.489l-121.151-60.38v-85.904l121.151-29.954v27.292h15v-27.292l121.145,29.953v85.905l-121.145,60.38
				V251.257h-15V388.489z"/>
			<path d="M178.05,121.274c-10.86,14.798-17.27,32.25-18.535,50.47l14.965,1.039c1.067-15.385,6.483-30.127,15.662-42.634
				L178.05,121.274z"/>
			<path d="M349.687,154.443c-3.176-12.347-8.688-23.802-16.387-34.048l-11.992,9.01c6.509,8.664,11.169,18.345,13.852,28.774
				L349.687,154.443z"/>
			<path d="M285.261,102.126c4.257,1.634,8.407,3.647,12.337,5.983l7.664-12.895c-4.657-2.768-9.578-5.154-14.624-7.091
				L285.261,102.126z"/>
			<path d="M315.408,122.398l10.918-10.285c-3.71-3.939-7.772-7.589-12.075-10.849l-9.059,11.956
				C308.831,115.978,312.269,119.065,315.408,122.398z"/>
			<path d="M351.788,439.032c-10.877,6.969-22.535,12.75-34.651,17.18l5.152,14.088c13.144-4.807,25.792-11.077,37.592-18.638
				c4.753-3.045,9.424-6.335,13.884-9.776l-9.164-11.876C360.485,433.185,356.174,436.221,351.788,439.032z"/>
			<path d="M372.037,423.946l9.787,11.366c3.928-3.382,7.764-6.963,11.402-10.646l-10.67-10.543
				C379.2,417.521,375.66,420.825,372.037,423.946z"/>
			<path d="M410.209,404.994l-11.988-9.017c-2.872,3.819-5.937,7.568-9.107,11.143l11.223,9.953
				C403.772,413.198,407.095,409.134,410.209,404.994z"/>
			
				<rect x="106.719" y="385.542" transform="matrix(-0.9599 0.2805 -0.2805 -0.9599 371.3546 732.9387)" width="53.022" height="15.001"/>
			<path d="M177.421,465.318l6.115-13.697c-4.361-1.947-8.697-4.098-12.888-6.394l-7.207,13.155
				C167.986,460.873,172.69,463.206,177.421,465.318z"/>
			<path d="M201.826,474.278l4.203-14.398c-4.588-1.34-9.176-2.884-13.634-4.59l-5.359,14.01
				C191.872,471.15,196.849,472.825,201.826,474.278z"/>
			<path d="M227.214,479.859l2.225-14.834c-4.732-0.709-9.486-1.62-14.132-2.708l-3.418,14.605
				C216.927,478.102,222.083,479.09,227.214,479.859z"/>
			<rect x="215.501" y="232.33" width="15" height="124.19"/>
			<rect x="180.591" y="330.48" width="15" height="15"/>
			<rect x="180.591" y="241.38" width="15" height="54.1"/>
			<rect x="180.591" y="305.48" width="15" height="15"/>
			<rect x="145.691" y="249" width="15" height="77.861"/>
			<rect x="281.501" y="232.33" width="15" height="15"/>
			<rect x="281.501" y="257.33" width="15" height="15"/>
			<rect x="281.501" y="282.33" width="15" height="74.19"/>
			<rect x="316.401" y="241.38" width="15" height="104.1"/>
			<rect x="351.311" y="249" width="15" height="77.861"/>
			<path d="M380.831,354.586l-4.207,14.398l62.645,18.301c-34.783,64.732-102.319,106.876-175.771,109.574V422h-15v74.859
				c-73.446-2.698-140.98-44.836-175.765-109.562l62.651-18.308l-4.207-14.397l-79.839,23.331l3.849,7.975
				c17.962,37.214,45.885,68.691,80.75,91.028C171.754,499.872,213.27,512,255.998,512c42.73,0,84.249-12.13,120.066-35.079
				c34.867-22.339,62.79-53.82,80.75-91.038l3.849-7.976L380.831,354.586z"/>
		</g>
	</g>
</g>
<g>
</g>
<g>
</g>
<g>
</g>
<g>
</g>
<g>
</g>
<g>
</g>
<g>
</g>
<g>
</g>
<g>
</g>
<g>
</g>
<g>
</g>
<g>
</g>
<g>
</g>
<g>
</g>
<g>
</g>
</svg>
