<?xml version="1.0" encoding="iso-8859-1"?>
<!-- Generator: Adobe Illustrator 19.0.0, SVG Export Plug-In . SVG Version: 6.00 Build 0)  -->
<svg version="1.1" id="Capa_1" xmlns="http://www.w3.org/2000/svg" xmlns:xlink="http://www.w3.org/1999/xlink" x="0px" y="0px"
	 viewBox="0 0 512.002 512.002" style="enable-background:new 0 0 512.002 512.002;" xml:space="preserve">
<g>
	<g>
		<path d="M504.066,243.836c-3.225-3.225-7.12-5.533-11.37-6.802c-0.314-0.822-0.739-1.614-1.281-2.354l-71.916-97.984
			c-3.014-4.105-7.026-7.302-11.561-9.37c4.811-6.742,7.654-14.98,7.654-23.875v-5.673c0-22.72-18.484-41.202-41.203-41.202
			c-22.72,0-41.203,18.484-41.203,41.202v5.673c0,11.263,4.547,21.481,11.896,28.926c-5.264,4.707-8.905,11.237-9.865,18.673
			l-6.318,48.921l-90.778-83.991l5.244-5.345c0.881,0.08,1.765,0.123,2.65,0.123c7.428,0,14.857-2.828,20.511-8.482l6.632-6.632
			v-0.001c11.309-11.311,11.309-29.712,0-41.022l-11.803-11.803c-11.311-11.31-29.712-11.31-41.022,0l-6.631,6.632
			c-5.479,5.479-8.497,12.763-8.497,20.512c0,1.027,0.057,2.045,0.161,3.053l-18.388-17.891c-5.355-5.212-12.384-8.026-19.891-7.924
			c-7.471,0.102-14.456,3.107-19.667,8.463c-5.21,5.355-8.024,12.418-7.922,19.89c0.102,7.472,3.107,14.456,8.462,19.667
			l9.282,9.032h-41.239c3.97-6.417,6.268-13.97,6.268-22.054v-5.826c0-23.186-18.863-42.048-42.048-42.048
			c-23.186,0-42.045,18.865-42.045,42.05v5.826c0,9.959,3.487,19.115,9.295,26.327c-6.828,3.456-12.641,8.859-16.549,15.713
			L5.884,168.14C2.034,174.887,0,182.562,0,190.33c0,16.505,9.028,31.618,23.563,39.442l19.24,10.356l-4.359,14.619
			c-0.902,3.027-0.322,6.303,1.565,8.835s4.861,4.025,8.02,4.025h1.714L25.462,416.05c-0.474,2.897,0.348,5.855,2.249,8.092
			c1.9,2.236,4.688,3.525,7.623,3.525h1.938v15.131c0,1.712,0.174,3.385,0.503,5.001H25.506c-5.524,0-10.003,4.479-10.003,10.003
			s4.478,10.002,10.003,10.002h161.04c5.524,0,10.003-4.479,10.003-10.002s-4.478-10.003-10.003-10.003h-37.265
			c-2.7-13.245-10.655-24.595-21.579-31.789l0.309-148.405h15.867c3.159,0,6.133-1.492,8.02-4.025
			c1.887-2.533,2.468-5.808,1.565-8.835l-15.087-50.593V173.27h27.233c10.36,0,20.463-4.241,27.718-11.635l9.057-9.23l28.765,32.956
			c3.632,4.161,9.951,4.59,14.112,0.958c4.162-3.633,4.591-9.951,0.958-14.113l-29.783-34.122l7.67-7.816l148.16,137.083
			l-38.183,57.136c-6.598,9.874-8.403,22.053-4.953,33.414l15.817,52.105l-21.071,7.244l-31.594-61.828
			c-5.378-10.527-4.605-23.15,2.018-32.94l31.963-47.249c2.544-3.761,2.237-8.762-0.749-12.183l-30.068-34.448
			c-3.633-4.161-9.951-4.59-14.112-0.958c-4.162,3.633-4.591,9.951-0.958,14.114l25.003,28.645l-27.647,40.869
			c-10.708,15.829-11.958,36.234-3.262,53.251l31.138,60.937c-4.822,3.946-8.453,9.454-10.567,16.213
			c-2.742,8.771-2.697,19.281,0.123,28.834c0.75,2.545,2.482,4.687,4.812,5.955c1.48,0.806,3.126,1.217,4.782,1.217
			c0.95,0,1.904-0.136,2.831-0.409l52.703-15.554c10.879-3.212,17.116-14.675,13.905-25.552l-7.778-26.357
			c-0.344-1.165-0.889-2.213-1.574-3.133l-16.57-54.585c-1.702-5.605-0.811-11.616,2.445-16.488l42.927-64.237
			c0.201-0.3,0.377-0.61,0.542-0.924c0.012-0.023,0.028-0.042,0.04-0.065l19.301-37.592l41.595,33.352
			c0.11,7.074,2.909,13.709,7.923,18.724c0,0,0,0,0.001,0c5.28,5.28,12.217,7.92,19.153,7.92c6.937,0,13.873-2.641,19.154-7.92
			l2.715-2.715c5.116-5.116,7.934-11.919,7.934-19.154C512,255.754,509.182,248.953,504.066,243.836z M161.761,69.615
			c1.484-1.525,3.475-2.382,5.602-2.411c2.172-0.045,4.141,0.772,5.666,2.258l16.659,16.21l-13.402,9.196l-14.372-13.984
			c-1.525-1.483-2.382-3.474-2.411-5.602C159.476,73.153,160.277,71.141,161.761,69.615z M58.182,76.373
			c0-12.154,9.888-22.044,22.043-22.044s22.044,9.889,22.044,22.044v5.826c0,12.155-9.888,22.043-22.044,22.043
			s-22.043-9.888-22.043-22.043V76.373z M70.014,267.607h37.991l-0.291,140.056h-60.61L70.014,267.607z M128.569,447.8h-66.29
			c-2.758,0-5.001-2.244-5.001-5.001v-15.004h42.998C113.316,427.795,124.44,436.156,128.569,447.8z M118.029,247.602v-0.001H61.515
			h-0.066l2.835-9.506c0.01-0.032,0.019-0.065,0.029-0.097l6.675-22.383h49.93l9.538,31.987H118.029z M179.047,147.626
			c-3.518,3.584-8.416,5.64-13.439,5.64h-27.233v-2.667c0-5.523-4.478-10.002-10.003-10.002s-10.003,4.479-10.003,10.002v45.011
			H67.677l-10.333-10.333c-3.906-3.905-10.24-3.905-14.146,0c-3.906,3.906-3.907,10.24,0,14.147l9.045,9.045l-3.603,12.082
			l-15.596-8.395c-8.044-4.33-13.04-12.693-13.04-21.826c0-4.299,1.125-8.546,3.256-12.281L48.3,134.148
			c3.483-6.107,10.014-9.9,17.045-9.9l100.362,0.011c2.021,0,3.993-0.611,5.658-1.754l44.106-30.26l9.043,9.043L179.047,147.626z
			 M225.213,69.964c-0.001-2.406,0.936-4.666,2.637-6.367l6.632-6.632c1.754-1.755,4.06-2.633,6.366-2.633
			c2.305,0,4.61,0.877,6.366,2.633l11.802,11.803c3.51,3.51,3.51,9.221,0,12.732l-6.631,6.631c-3.51,3.51-9.221,3.511-12.731,0
			L227.85,76.329C226.149,74.628,225.213,72.368,225.213,69.964z M351.223,429.002l3.784,12.824c0.09,0.3-0.083,0.615-0.381,0.704
			l-41.604,12.278c0.061-2.544,0.43-4.989,1.111-7.167c1.432-4.582,3.995-7.448,7.616-8.517c0.055-0.016,0.106-0.039,0.16-0.056
			c0.087-0.027,0.174-0.048,0.26-0.078L351.223,429.002z M353.191,97.778c0-11.689,9.509-21.197,21.198-21.197
			s21.198,9.509,21.198,21.197v5.673c0,11.689-9.509,21.197-21.198,21.197s-21.198-9.509-21.198-21.197V97.778z M467.227,242.482
			c-0.502,0.434-0.994,0.881-1.468,1.354l-2.714,2.715c-0.055,0.055-0.105,0.113-0.16,0.168l-46.352-37.166
			c-0.028-0.022-0.055-0.044-0.083-0.067l-29.532-23.681c-4.311-3.456-10.606-2.763-14.062,1.546
			c-3.456,4.31-2.764,10.606,1.546,14.062l23.194,18.598l-15.15,29.506l-35.563-32.904c0.049-0.24,0.1-0.48,0.132-0.728
			l8.041-62.272c0.66-5.106,5.04-8.958,10.19-8.958h30.465c3.014,0,5.877,1.45,7.661,3.88l66.809,91.026L467.227,242.482z
			 M489.921,267.999l-2.714,2.715c-2.761,2.761-7.255,2.76-10.017,0.001v-0.001c-1.337-1.337-2.074-3.116-2.074-5.008
			c0-1.631,0.55-3.177,1.558-4.429l3.974-3.931c1.223-0.928,2.704-1.437,4.265-1.437c1.892,0,3.67,0.736,5.009,2.075
			c1.337,1.337,2.074,3.116,2.074,5.008C491.996,264.884,491.259,266.662,489.921,267.999z"/>
	</g>
</g>
<g>
	<g>
		<path d="M270.867,200.489c-1.86-1.86-4.431-2.932-7.072-2.932c-2.631,0-5.211,1.07-7.072,2.932
			c-1.86,1.859-2.931,4.431-2.931,7.071c0,2.632,1.07,5.212,2.931,7.072c1.86,1.86,4.441,2.931,7.072,2.931
			c2.641,0,5.211-1.069,7.072-2.931c1.87-1.859,2.931-4.44,2.931-7.072C273.798,204.929,272.738,202.348,270.867,200.489z"/>
	</g>
</g>
<g>
	<g>
		<path d="M229.457,450.731c-1.86-1.861-4.431-2.931-7.072-2.931c-2.631,0-5.201,1.069-7.072,2.931
			c-1.86,1.86-2.931,4.441-2.931,7.072s1.07,5.211,2.931,7.071c1.87,1.86,4.441,2.932,7.072,2.932s5.211-1.07,7.072-2.932
			c1.87-1.859,2.931-4.44,2.931-7.071S231.327,452.591,229.457,450.731z"/>
	</g>
</g>
<g>
</g>
<g>
</g>
<g>
</g>
<g>
</g>
<g>
</g>
<g>
</g>
<g>
</g>
<g>
</g>
<g>
</g>
<g>
</g>
<g>
</g>
<g>
</g>
<g>
</g>
<g>
</g>
<g>
</g>
</svg>
