<?xml version="1.0" encoding="iso-8859-1"?>
<!-- Generator: Adobe Illustrator 19.0.0, SVG Export Plug-In . SVG Version: 6.00 Build 0)  -->
<svg version="1.1" id="Capa_1" xmlns="http://www.w3.org/2000/svg" xmlns:xlink="http://www.w3.org/1999/xlink" x="0px" y="0px"
	 viewBox="0 0 512 512" style="enable-background:new 0 0 512 512;" xml:space="preserve">
<g>
	<g>
		<path d="M426.281,220.112c-21.866-34.294-49.303-61.993-79.484-80.698l74.108,10.886c1.155,0.169,2.302,0.252,3.437,0.252
			c11.481,0,21.564-8.436,23.281-20.126c1.887-12.845-7.029-24.83-19.874-26.718l-29.849-4.385l29.849-4.385
			c12.845-1.887,21.761-13.872,19.874-26.718c-0.914-6.222-4.196-11.717-9.243-15.47c-5.047-3.753-11.257-5.317-17.475-4.404
			l-48.847,7.175c13.727-23.102,17.24-40.188,10.717-51.709C381.44,1.457,378.942,0,376.235,0c-38.946,0-70.382,8.755-98.118,16.479
			c-47.369,13.193-84.783,23.612-137.932-15.042c-4.048-2.945-9.97-1.035-11.549,3.701c-7.724,23.171,3.486,52.615,33.308,87.589
			c-5.843,4.288-9.647,11.202-9.647,18.99c0,11.886,8.854,21.737,20.313,23.319c-33.201,18.69-63.448,48.194-87.112,85.423
			c-29.289,46.08-45.42,98.555-45.42,147.761C40.078,494.918,149.228,512,256,512s215.922-17.082,215.922-143.781
			C471.922,318.873,455.713,266.273,426.281,220.112z M425.565,118.578c2.249,0.331,4.237,1.517,5.595,3.343
			c4.44,5.967-0.709,14.595-8.072,13.509l-67.833-9.964c2.794-3.872,4.448-8.619,4.448-13.747c0-0.962-0.065-1.91-0.177-2.842
			L425.565,118.578z M423.088,63.215c4.595-0.672,8.991,2.597,9.665,7.188c0.674,4.595-2.598,8.99-7.188,9.664L349.8,91.198
			c-0.513,0.075-1.005,0.2-1.474,0.371c-0.441-0.268-0.895-0.516-1.355-0.754c5.221-6.489,9.92-12.663,14.086-18.518
			c0.213-0.014,0.429-0.031,0.645-0.063L423.088,63.215z M141.375,20.469c53.91,34.679,94.36,23.415,140.775,10.488
			c25.489-7.099,54.214-15.099,88.689-15.868c1.153,10.908-9.068,34.558-41.129,73.083H177.918
			C154.284,61.696,141.674,38.191,141.375,20.469z M167.327,111.718c0-4.696,3.82-8.517,8.517-8.517h160.313
			c4.696,0,8.517,3.82,8.517,8.517s-3.82,8.517-8.517,8.517H175.843C171.147,120.235,167.327,116.414,167.327,111.718z M256,496.971
			c-104.34,0-200.892-15.597-200.892-128.751c0-97.908,67.605-201.977,150.703-231.99c0.666-0.24,1.273-0.571,1.823-0.965h96.405
			c0.459,0.289,0.953,0.536,1.485,0.726c83.465,29.729,151.369,133.907,151.369,232.229C456.892,481.373,360.34,496.971,256,496.971
			z"/>
	</g>
</g>
<g>
	<g>
		<path d="M304.094,303.593c10.773,0,19.538-8.765,19.538-19.538v-12.023c0-28.116-20.971-51.424-48.094-55.103v-13.03
			c0-10.773-8.765-19.538-19.538-19.538s-19.538,8.765-19.538,19.538v14.025c-27.846,6.211-48.094,30.966-48.094,60.119
			c0,33.977,27.643,61.62,61.62,61.62h12.023c12.431,0,22.544,10.113,22.544,22.544c0,12.431-10.113,22.544-22.544,22.544h-18.035
			c-9.116,0-16.532-7.417-16.532-16.532c0-10.773-8.765-19.538-19.538-19.538c-10.773,0-19.538,8.765-19.538,19.538
			c0,28.116,20.971,51.424,48.094,55.103v13.03c0,10.773,8.765,19.538,19.538,19.538s19.538-8.765,19.538-19.538v-14.025
			c27.846-6.211,48.094-30.966,48.094-60.119c0-33.977-27.643-61.62-61.62-61.62h-12.023c-12.431,0-22.544-10.113-22.544-22.544
			c0-12.431,10.113-22.544,22.544-22.544h18.035c9.116,0,16.532,7.417,16.532,16.532v12.023
			C284.556,294.828,293.321,303.593,304.094,303.593z M268.024,240.47h-18.035c-20.719,0-37.573,16.855-37.573,37.573
			c0,20.719,16.855,37.573,37.573,37.573h12.023c25.69,0,46.591,20.901,46.591,46.591c0,23.77-17.802,43.672-41.409,46.295
			c-3.805,0.423-6.685,3.639-6.685,7.469v20.381c0,2.486-2.023,4.509-4.509,4.509s-4.509-2.023-4.509-4.509v-20.039
			c0-4.15-3.365-7.515-7.515-7.515c-22.376,0-40.579-18.204-40.579-40.579c0-2.486,2.023-4.509,4.509-4.509s4.509,2.023,4.509,4.509
			c0,17.403,14.159,31.562,31.562,31.562h18.035c20.719,0,37.573-16.855,37.573-37.573c0-20.719-16.855-37.573-37.573-37.573
			h-12.023c-25.69,0-46.591-20.901-46.591-46.591c0-23.77,17.802-43.672,41.409-46.295c3.805-0.423,6.685-3.639,6.685-7.469v-20.381
			c0-2.486,2.023-4.509,4.509-4.509c2.486,0,4.509,2.023,4.509,4.509v20.039c0,4.15,3.365,7.515,7.515,7.515
			c22.376,0,40.579,18.204,40.579,40.579v12.023c0,2.486-2.023,4.509-4.509,4.509s-4.509-2.023-4.509-4.509v-12.023
			C299.585,254.628,285.426,240.47,268.024,240.47z"/>
	</g>
</g>
<g>
</g>
<g>
</g>
<g>
</g>
<g>
</g>
<g>
</g>
<g>
</g>
<g>
</g>
<g>
</g>
<g>
</g>
<g>
</g>
<g>
</g>
<g>
</g>
<g>
</g>
<g>
</g>
<g>
</g>
</svg>
