<?xml version="1.0" encoding="iso-8859-1"?>
<!-- Generator: Adobe Illustrator 19.0.0, SVG Export Plug-In . SVG Version: 6.00 Build 0)  -->
<svg version="1.1" id="Layer_1" xmlns="http://www.w3.org/2000/svg" xmlns:xlink="http://www.w3.org/1999/xlink" x="0px" y="0px"
	 viewBox="0 0 512 512" style="enable-background:new 0 0 512 512;" xml:space="preserve">
<g>
	<g>
		<path d="M511.357,252.76c-1.312-3.179-4.412-5.253-7.851-5.253H380.268V124.858c0-2.244-0.889-4.399-2.472-5.99L262.021,2.503
			c-2.427-2.438-6.083-3.172-9.261-1.86c-3.179,1.311-5.253,4.412-5.253,7.851V131.72H124.858c-2.244,0-4.399,0.889-5.99,2.473
			L67.536,185.27c-3.325,3.309-3.338,8.685-0.029,12.01c3.307,3.325,8.684,3.338,12.01,0.029l45.326-45.101l86.461,86.461
			c-1.105,2.858-1.933,5.818-2.477,8.836H29.07l28.298-28.158c3.325-3.309,3.338-8.685,0.029-12.01
			c-3.308-3.325-8.685-3.338-12.01-0.029L2.503,249.98c-2.438,2.426-3.172,6.082-1.86,9.261c1.311,3.179,4.412,5.252,7.851,5.252
			H131.72v122.649c0,2.246,0.889,4.399,2.473,5.99L249.98,509.497c1.626,1.634,3.805,2.503,6.022,2.503
			c1.09,0,2.191-0.211,3.239-0.643c3.179-1.312,5.253-4.412,5.253-7.851v-58.396c0-4.69-3.803-8.493-8.493-8.493
			s-8.493,3.803-8.493,8.493v37.822l-95.299-95.774l86.461-86.461c2.858,1.105,5.818,1.933,8.837,2.477v111.364
			c0,4.69,3.803,8.493,8.493,8.493s8.493-3.803,8.493-8.493V380.27h122.649c2.244,0,4.398-0.889,5.99-2.472l116.364-115.776
			C511.935,259.595,512.669,255.939,511.357,252.76z M264.495,140.213V29.073l95.286,95.771l-86.453,86.453
			c-2.854-1.107-5.813-1.936-8.833-2.48V140.213z M145.363,148.706h102.146v60.121h-0.001c-10.433,1.881-19.936,7.171-27.028,14.997
			L145.363,148.706z M148.707,366.639V264.493h60.131c1.881,10.427,7.168,19.928,14.991,27.023L148.707,366.639z M256,286.96
			c-5.255,0-10.451-1.342-15.021-3.878c-9.831-5.467-15.938-15.843-15.938-27.081c0-5.254,1.343-10.451,3.882-15.027
			c5.459-9.835,15.835-15.944,27.079-15.944c5.266,0,10.451,1.342,15.02,3.895c9.831,5.449,15.94,15.824,15.94,27.075
			c-0.001,5.263-1.341,10.452-3.882,15.016C277.618,280.85,267.243,286.96,256,286.96z M264.495,363.284v-60.121h-0.001
			c10.435-1.881,19.938-7.173,27.029-14.996l75.117,75.117H264.495z M387.158,359.78l-86.459-86.459
			c2.128-5.495,3.247-11.379,3.247-17.321c0-13.708-5.875-26.558-15.775-35.527l75.113-75.113v102.146h-41.604
			c-4.69,0-8.493,3.803-8.493,8.493c0,4.69,3.803,8.493,8.493,8.493h161.25L387.158,359.78z"/>
	</g>
</g>
<g>
</g>
<g>
</g>
<g>
</g>
<g>
</g>
<g>
</g>
<g>
</g>
<g>
</g>
<g>
</g>
<g>
</g>
<g>
</g>
<g>
</g>
<g>
</g>
<g>
</g>
<g>
</g>
<g>
</g>
</svg>
